<svg xmlns="http://www.w3.org/2000/svg" width="20.397" height="26.344" viewBox="0 0 20.397 26.344">
  <g id="Premium_icon_Copy" data-name="Premium icon Copy" transform="translate(1.152 1)">
    <path id="Stroke_1" data-name="Stroke 1" d="M15.709,7.934a7.9,7.9,0,0,1-7.854,7.934A7.934,7.934,0,0,1,7.854,0,7.894,7.894,0,0,1,15.709,7.934Z" transform="translate(1.191 0)" fill="none" stroke="#000" stroke-miterlimit="10" stroke-width="2"/>
    <path id="Stroke_3" data-name="Stroke 3" d="M9.426,4.761a4.737,4.737,0,0,1-4.712,4.76A4.761,4.761,0,0,1,4.713,0,4.737,4.737,0,0,1,9.426,4.761Z" transform="translate(4.333 3.173)" fill="none" stroke="#000" stroke-miterlimit="10" stroke-width="2"/>
    <path id="Stroke_5" data-name="Stroke 5" d="M3.03,0,0,7.572l3.438-.431L5.6,9.82,8.15,2.379" transform="translate(0.406 13.487)" fill="none" stroke="#000" stroke-miterlimit="10" stroke-width="2"/>
    <path id="Stroke_7" data-name="Stroke 7" d="M5.119,0,8.15,7.572,4.712,7.141,2.554,9.82,0,2.379" transform="translate(9.536 13.487)" fill="none" stroke="#000" stroke-miterlimit="10" stroke-width="2"/>
  </g>
</svg>
