<svg xmlns="http://www.w3.org/2000/svg" width="33.455" height="29.454" viewBox="0 0 33.455 29.454">
  <g id="Settings_Icon" data-name="Settings Icon" transform="translate(1 1)">
    <path id="Stroke_1" data-name="Stroke 1" d="M6.264,3.142A3.132,3.132,0,1,0,3.132,6.284,3.138,3.138,0,0,0,6.264,3.142Z" transform="translate(0 21.171)" fill="none" stroke="#fff" stroke-miterlimit="10" stroke-width="2"/>
    <path id="Stroke_3" data-name="Stroke 3" d="M6.264,3.141A3.132,3.132,0,1,0,3.132,6.284,3.138,3.138,0,0,0,6.264,3.141Z" transform="translate(25.191)" fill="none" stroke="#fff" stroke-miterlimit="10" stroke-width="2"/>
    <path id="Stroke_5" data-name="Stroke 5" d="M6.264,3.141A3.132,3.132,0,1,0,3.132,6.283,3.138,3.138,0,0,0,6.264,3.141Z" transform="translate(12.528 10.517)" fill="none" stroke="#fff" stroke-miterlimit="10" stroke-width="2"/>
    <path id="Stroke_7" data-name="Stroke 7" d="M.681,0V20.988" transform="translate(2.451 0.045)" fill="none" stroke="#fff" stroke-linecap="round" stroke-miterlimit="10" stroke-width="2"/>
    <path id="Stroke_9" data-name="Stroke 9" d="M0,0V10.471" transform="translate(15.66 16.8)" fill="none" stroke="#fff" stroke-linecap="round" stroke-miterlimit="10" stroke-width="2"/>
    <path id="Stroke_11" data-name="Stroke 11" d="M0,0V10.472" transform="translate(15.66 0.045)" fill="none" stroke="#fff" stroke-linecap="round" stroke-miterlimit="10" stroke-width="2"/>
    <path id="Stroke_13" data-name="Stroke 13" d="M.681,0V20.988" transform="translate(27.507 6.283)" fill="none" stroke="#fff" stroke-linecap="round" stroke-miterlimit="10" stroke-width="2"/>
  </g>
</svg>
