<svg xmlns="http://www.w3.org/2000/svg" width="14.797" height="22.797" viewBox="0 0 14.797 22.797">
  <g id="Location_icon_Copy" data-name="Location icon Copy" transform="translate(0.202 1)">
    <path id="Stroke_1" data-name="Stroke 1" d="M6.4,20.8c0-6.088,5.78-8.431,6.343-13.594a6.461,6.461,0,0,0,.054-.8A6.4,6.4,0,1,0,0,6.4H0c0,.007,0,.012,0,.018A6.886,6.886,0,0,0,.055,7.2C.615,12.365,6.4,14.707,6.4,20.8Z" transform="translate(0.798 0.001)" fill="none" stroke="#000" stroke-linecap="round" stroke-linejoin="round" stroke-miterlimit="10" stroke-width="2"/>
    <path id="Stroke_3" data-name="Stroke 3" d="M3.2,1.6A1.6,1.6,0,1,1,1.6,0,1.6,1.6,0,0,1,3.2,1.6Z" transform="translate(5.599 4.799)" fill="none" stroke="#000" stroke-linecap="round" stroke-linejoin="round" stroke-miterlimit="10" stroke-width="2"/>
  </g>
</svg>
