<svg xmlns="http://www.w3.org/2000/svg" width="159.34" height="150.831" viewBox="0 0 159.34 150.831">
  <g id="Edelweiss_Logo" data-name="Edelweiss Logo" transform="translate(-0.579 0)">
    <path id="Fill_1" data-name="Fill 1" d="M1.457,3.661h.326a.644.644,0,0,1,.626.385L3.652,5.987H5.3L3.78,3.618a1.685,1.685,0,0,0-.634-.684A2.2,2.2,0,0,0,3.772,2.3L5.238,0H3.6L2.4,1.873a.658.658,0,0,1-.626.385H1.457V0H0V5.987H1.457Z" transform="translate(0.598 69.038)" fill="#fff"/>
    <path id="Fill_3" data-name="Fill 3" d="M2.057,5.988H3.514V4.012L5.58,0H3.926L2.786,2.207,1.654,0H0L2.057,4.012Z" transform="translate(6.937 69.038)" fill="#fff"/>
    <path id="Fill_5" data-name="Fill 5" d="M2.914,1.368V0H0V1.368H.728V4.61H0V5.987H2.914V4.61H2.186V1.368Z" transform="translate(14.06 69.038)" fill="#fff"/>
    <path id="Fill_7" data-name="Fill 7" d="M2.88,3.327,1.62,0H0L2.46,5.988h.866L5.751,0H4.132Z" transform="translate(18.549 69.038)" fill="#fff"/>
    <path id="Fill_9" data-name="Fill 9" d="M3.052,1.368a1.932,1.932,0,0,1,1.32.5L5.314.992A3.088,3.088,0,0,0,3.052,0a3.054,3.054,0,0,0,0,6.107,3.09,3.09,0,0,0,2.263-.992l-.943-.873a1.923,1.923,0,0,1-1.32.488A1.571,1.571,0,0,1,1.457,3.054,1.578,1.578,0,0,1,3.052,1.368" transform="translate(136.388 68.979)" fill="#fff"/>
    <path id="Fill_11" data-name="Fill 11" d="M2.914,1.368V0H0V1.368H.728V4.61H0V5.987H2.914V4.61H2.186V1.368Z" transform="translate(143.635 69.038)" fill="#fff"/>
    <path id="Fill_13" data-name="Fill 13" d="M2.991,5.988V1.369H4.525V0H0V1.369H1.534V5.988Z" transform="translate(148.449 69.038)" fill="#fff"/>
    <path id="Fill_15" data-name="Fill 15" d="M2.057,5.988H3.514V4.012L5.58,0H3.926L2.786,2.207,1.654,0H0L2.057,4.012Z" transform="translate(154.34 69.038)" fill="#fff"/>
    <path id="Fill_18" data-name="Fill 18" d="M46.063,91.94h0L0,45.969,46.063,0,92.125,45.969,46.063,91.94Zm19.3-21.719h0L46.932,77.974V88.618l18.432-18.4Zm-38.3.3h0L45.193,88.618V77.978Zm12.342-8.61a90.2,90.2,0,0,1-13.328,6.327l18.251,7.5A87.1,87.1,0,0,1,39.407,61.916Zm13.306,0A87.977,87.977,0,0,1,47.8,75.724l18-7.573A90.684,90.684,0,0,1,52.713,61.912ZM39.893,53.87c.269,6.733,3.436,15.1,5.3,19.489v-17.4A9.993,9.993,0,0,1,39.893,53.87Zm12.342,0a10,10,0,0,1-5.3,2.086V73.35C48.794,68.957,51.96,60.586,52.234,53.87ZM16.145,47.627,23.618,66a90.478,90.478,0,0,1,6.4-13.457A87.069,87.069,0,0,1,16.145,47.627Zm22.069,7.336h0L27.228,65.926A83.251,83.251,0,0,0,39,60.134a39.213,39.213,0,0,1-.781-5.171Zm15.7,0a39.142,39.142,0,0,1-.784,5.167,83.649,83.649,0,0,0,11.765,5.792Zm22.014-7.311a88.154,88.154,0,0,1-13.819,4.891,89.677,89.677,0,0,1,6.181,12.889Zm2.243-.817h0L70.195,65.4,88.8,46.837H78.168ZM60.323,52.959h0a39.432,39.432,0,0,1-5.179.782L66.125,64.7a82.928,82.928,0,0,0-5.8-11.741Zm-28.519,0h0A83.569,83.569,0,0,0,26,64.7l10.984-10.96a39.457,39.457,0,0,1-5.182-.778ZM3.329,46.837,21.2,64.672,13.947,46.837Zm42.734-9.161a8.294,8.294,0,1,0,8.272,9.063V45.2A8.363,8.363,0,0,0,46.063,37.676Zm10.006,9.161a9.967,9.967,0,0,1-2.046,5.232c6.681-.264,15.021-3.391,19.4-5.232Zm-37.363,0h0C23.065,48.675,31.381,51.8,38.1,52.062a9.981,9.981,0,0,1-2.041-5.225ZM70.046,26.389h0L78.216,45.1H88.8ZM53.929,39.746a9.946,9.946,0,0,1,2.14,5.356H73.706C69.233,43.206,60.716,39.987,53.929,39.746ZM38.2,39.738c-6.822.24-15.338,3.464-19.808,5.364H36.056A9.959,9.959,0,0,1,38.2,39.738ZM21.472,26.995,3.329,45.1H13.9Zm2.259-.9L16.174,44.168a87.52,87.52,0,0,1,13.843-4.906A89.957,89.957,0,0,1,23.731,26.1Zm44.489.454A89.934,89.934,0,0,1,62.1,39.272a88.316,88.316,0,0,1,13.8,4.883l-7.687-17.6Zm-2.091.551-11,10.973a39.514,39.514,0,0,1,5.186.782A83.458,83.458,0,0,0,66.129,27.1ZM26,27.112h0a83.353,83.353,0,0,0,5.8,11.737,39.33,39.33,0,0,1,5.18-.779Zm20.931-8.643h0V35.984a10,10,0,0,1,5.308,2.092C52,31.376,48.814,22.916,46.933,18.469Zm-1.74,0c-1.88,4.439-5.07,12.89-5.306,19.609a10,10,0,0,1,5.306-2.09ZM27.235,25.889h0L38.216,36.848A39.281,39.281,0,0,1,39,31.68,83.563,83.563,0,0,0,27.235,25.889Zm37.653,0a83.374,83.374,0,0,0-11.761,5.791,39.148,39.148,0,0,1,.784,5.163ZM47.812,16.108a88.418,88.418,0,0,1,4.9,13.793A90.126,90.126,0,0,1,65.6,23.738Zm-3.479-.043L26.094,23.574A90.569,90.569,0,0,1,39.414,29.9,87.812,87.812,0,0,1,44.333,16.065Zm2.6-12.743v10.52l18.486,7.929Zm-1.74,0h0L27.266,21.214l17.927-7.381V3.322Z" transform="translate(34.096 29.38)" fill="#fff"/>
    <path id="Fill_20" data-name="Fill 20" d="M0,1.736H23.442V0H0Z" transform="translate(136.388 79.537)" fill="#fff"/>
    <path id="Fill_22" data-name="Fill 22" d="M0,1.736H23.442V0H0Z" transform="translate(0.579 79.557)" fill="#fff"/>
    <path id="Fill_23" data-name="Fill 23" d="M11.416,3.961l-1.63-.735-1.86,4.1L5.959,6.44,7.677,2.65l-1.63-.735L4.329,5.7,2.412,4.839l1.86-4.1L2.642,0,0,5.829,8.774,9.79Z" transform="translate(10.049 41.091)" fill="#fff"/>
    <path id="Fill_24" data-name="Fill 24" d="M7.919,10.374h0L0,4.9,1.9,2.162A4.909,4.909,0,0,1,5.9,0,4.818,4.818,0,0,1,8.649.877a4.747,4.747,0,0,1,2.015,3.056,4.918,4.918,0,0,1-.843,3.7l-1.9,2.743ZM5.76,1.823A2.929,2.929,0,0,0,3.373,3.178L2.551,4.363,7.529,7.8l.823-1.185a3.026,3.026,0,0,0,.558-2.256A3.017,3.017,0,0,0,7.568,2.435,3.167,3.167,0,0,0,5.76,1.823Z" transform="translate(15.757 30.743)" fill="#fff"/>
    <path id="Fill_25" data-name="Fill 25" d="M11.347,6.791,10.081,5.53,6.892,8.718,5.363,7.194,8.31,4.249,7.043,2.989,4.1,5.934,2.608,4.45,5.8,1.261,4.53,0,0,4.529l6.817,6.792Z" transform="translate(24.597 19.61)" fill="#fff"/>
    <path id="Fill_26" data-name="Fill 26" d="M10.677,5.283,9.634,3.833,6.115,6.355,1.541,0,0,1.105,5.616,8.91Z" transform="translate(33.845 14.603)" fill="#fff"/>
    <path id="Fill_27" data-name="Fill 27" d="M8.514,12.734,8.288,6.5l4.507,4.318,1.029-.461L13.419,0,11.5.861,11.89,7.4,7.218,2.779,6.2,3.234l.354,6.554L1.921,5.152,0,6.012l7.5,7.177Z" transform="translate(42.437 3.591)" fill="#fff"/>
    <path id="Fill_28" data-name="Fill 28" d="M8.2,9.417,7.845,7.669l-4.421.9L2.992,6.454l4.085-.83L6.721,3.876,2.636,4.7l-.42-2.058,4.422-.9L6.281,0,0,1.276l1.919,9.417Z" transform="translate(62.13 0.824)" fill="#fff"/>
    <path id="Fill_29" data-name="Fill 29" d="M1.237,1.922l.277,6.037L.358,8.011.44,9.794,4.646,9.6,4.564,7.819,3.41,7.872,3.133,1.836l1.155-.053L4.206,0,0,.192.082,1.975Z" transform="translate(74.442 0)" fill="#fff"/>
    <path id="Fill_30" data-name="Fill 30" d="M4.123,8.036l-.082-.009A3.481,3.481,0,0,1,1.359,6.422L0,7.413A4.983,4.983,0,0,0,3.838,9.8l.082.009c2.12.229,3.847-.707,4.056-2.521C8.2,5.311,6.837,4.421,4.923,3.968L4.167,3.8C3.318,3.591,2.6,3.316,2.676,2.674c.1-.831,1.147-.945,1.776-.874l.11.012A4.482,4.482,0,0,1,6.913,3.035l1.36-.99a5.6,5.6,0,0,0-3.508-2L4.655.027C2.671-.172.987.741.782,2.528.59,4.206,1.914,5.089,3.721,5.517l.742.168c.97.235,1.723.555,1.627,1.387-.083.723-.858,1.077-1.966.964" transform="translate(83.89 0.372)" fill="#fff"/>
    <path id="Fill_31" data-name="Fill 31" d="M3.354,9.667l.079.024c2.045.6,3.911-.018,4.437-1.766.573-1.906-.614-3.02-2.417-3.8l-.714-.3c-.8-.354-1.454-.752-1.268-1.37.241-.8,1.3-.728,1.9-.547l.106.031a4.469,4.469,0,0,1,2.1,1.618l1.514-.736A5.6,5.6,0,0,0,5.993.227L5.888.195C3.97-.351,2.152.252,1.634,1.973,1.148,3.589,2.3,4.693,4,5.432l.7.3c.914.4,1.6.851,1.355,1.652-.209.7-1.034.908-2.1.6l-.079-.024A3.476,3.476,0,0,1,1.514,5.906L0,6.642A4.975,4.975,0,0,0,3.354,9.667" transform="translate(95.771 2.864)" fill="#fff"/>
    <path id="Fill_32" data-name="Fill 32" d="M3.766,5.77l3.1,2.06L4.685,11.111,6.266,12.16l5.331-8L10.016,3.109,7.86,6.344l-3.1-2.06L6.912,1.049,5.331,0,0,8,1.58,9.051Z" transform="translate(113.339 10.51)" fill="#fff"/>
    <path id="Fill_33" data-name="Fill 33" d="M6.412,10.367h0L4.91,8.9l.742-1.734L3.227,4.788,1.5,5.56,0,4.09,9.571,0l.8.778L6.412,10.366ZM7.546,2.824,4.959,3.965,6.442,5.417l1.1-2.593Z" transform="translate(122.974 21.221)" fill="#fff"/>
    <path id="Fill_34" data-name="Fill 34" d="M.755,8.762a3.822,3.822,0,0,0,5.633.824l4.575-3.2L9.875,4.837,5.333,8.009C3.857,9.041,2.8,8.558,2.22,7.738s-.667-1.98.809-3.012L7.571,1.553,6.482,0,1.906,3.2A3.8,3.8,0,0,0,.755,8.762" transform="translate(133.249 29.067)" fill="#fff"/>
    <path id="Fill_35" data-name="Fill 35" d="M4.124,4.3l.236.722c.3.953.4,1.763-.361,2.108-.665.3-1.366-.185-1.838-1.192l-.034-.075A3.468,3.468,0,0,1,2.135,2.74L.584,2.082A4.966,4.966,0,0,0,.5,6.6l.034.075c.89,1.934,2.581,2.936,4.249,2.184C6.6,8.037,6.664,6.411,6.073,4.537L5.831,3.8c-.256-.834-.386-1.59.2-1.855.765-.345,1.4.5,1.663,1.074l.045.1A4.455,4.455,0,0,1,7.9,5.766l1.551.658a5.59,5.59,0,0,0-.074-4.037l-.045-.1C8.482.484,6.834-.491,5.19.249,3.648.944,3.566,2.533,4.124,4.3" transform="translate(139.58 41.919)" fill="#fff"/>
    <path id="Fill_36" data-name="Fill 36" d="M6.19,7.933l1.625-.765L6.027,3.388l1.912-.9L9.874,6.578,11.5,5.813,8.75,0,0,4.122,2.75,9.935l1.625-.765L2.439,5.077,4.4,4.153Z" transform="translate(10.411 100.833)" fill="#fff"/>
    <path id="Fill_37" data-name="Fill 37" d="M5.933,10.452h0A4.877,4.877,0,0,1,1.948,8.329L0,5.6,7.883,0,9.83,2.731a4.937,4.937,0,0,1,.893,3.7,4.768,4.768,0,0,1-1.981,3.1A4.839,4.839,0,0,1,5.933,10.452ZM7.525,2.591h0L2.57,6.11l.842,1.18A2.917,2.917,0,0,0,5.79,8.623,3.171,3.171,0,0,0,7.636,7.98,3.028,3.028,0,0,0,8.953,6.029a3.036,3.036,0,0,0-.587-2.258l-.841-1.18Z" transform="translate(16.175 110.344)" fill="#fff"/>
    <path id="Fill_38" data-name="Fill 38" d="M6.881,2.613l3.232,3.17,1.26-1.278L6.78,0,0,6.884l4.592,4.5,1.259-1.278L2.619,6.94,4.139,5.4,7.125,8.325,8.384,7.046,5.4,4.117Z" transform="translate(25.003 120.292)" fill="#fff"/>
    <path id="Fill_39" data-name="Fill 39" d="M5.591,0,0,7.879,5.109,11.49l1.039-1.463L2.595,7.516,7.148,1.1Z" transform="translate(34.173 127.534)" fill="#fff"/>
    <path id="Fill_40" data-name="Fill 40" d="M7.29,9.816l.336-6.588L6.6,2.774,1.921,7.43,2.3.859.363,0,0,10.413l1.023.455L5.551,6.521,5.33,12.782l1.035.461L13.867,6l-1.933-.859Z" transform="translate(46.145 132.507)" fill="#fff"/>
    <path id="Fill_41" data-name="Fill 41" d="M0,9.461l6.311,1.284L6.67,8.988l-4.442-.9.433-2.122,4.1.835.359-1.758L3.02,4.2l.422-2.068,4.442.9.359-1.757L1.932,0Z" transform="translate(62.043 139.263)" fill="#fff"/>
    <path id="Fill_42" data-name="Fill 42" d="M.383,1.792l1.16.057-.3,6.063L.087,7.855,0,9.647l4.226.205L4.312,8.06,3.152,8l.3-6.063L4.608,2,4.7.206.47,0Z" transform="translate(74.181 140.979)" fill="#fff"/>
    <path id="Fill_43" data-name="Fill 43" d="M4.4,3.843H3.617c-.877-.017-1.641-.13-1.71-.774-.09-.837.916-1.181,1.548-1.248l.11-.012a4.5,4.5,0,0,1,2.577.682L7.256,1.219A5.636,5.636,0,0,0,3.373.025l-.11.012C1.273.278-.176,1.543.017,3.341.2,5.029,1.694,5.6,3.559,5.626h.765c1,.017,1.812.166,1.9,1,.079.727-.6,1.244-1.715,1.377l-.082.009a3.5,3.5,0,0,1-2.984-.984L.329,8.3A5.012,5.012,0,0,0,4.621,9.8L4.7,9.791c2.129-.242,3.617-1.54,3.42-3.364C7.909,4.437,6.373,3.866,4.4,3.843" transform="translate(83.744 140.665)" fill="#fff"/>
    <path id="Fill_44" data-name="Fill 44" d="M4.513,3.759l-.766.135c-.867.137-1.638.158-1.819-.465-.234-.809.7-1.322,1.307-1.5L3.34,1.9A4.5,4.5,0,0,1,6,2.124L6.872.678A5.639,5.639,0,0,0,2.84.179l-.106.03C.816.792-.389,2.29.115,4.026.588,5.656,2.16,5.963,4,5.66l.754-.131c.99-.157,1.813-.151,2.047.657.2.7-.376,1.33-1.448,1.655l-.079.023a3.5,3.5,0,0,1-3.111-.451L1.288,8.858a5.013,5.013,0,0,0,4.486.727l.08-.023c2.053-.608,3.292-2.144,2.78-3.906-.558-1.921-2.169-2.216-4.12-1.9" transform="translate(95.529 138.311)" fill="#fff"/>
    <path id="Fill_45" data-name="Fill 45" d="M4.754,1.03,6.871,4.313,3.722,6.337,1.6,3.054,0,4.085,5.238,12.2l1.6-1.03L4.694,7.844l3.15-2.024L9.992,9.15l1.6-1.031L6.358,0Z" transform="translate(112.51 128.683)" fill="#fff"/>
    <path id="Fill_46" data-name="Fill 46" d="M3.758,10.512h0L0,.768.814,0l9.5,4.321L8.779,5.772,7.061,4.963,4.581,7.305l.714,1.757L3.759,10.511ZM2.767,2.9,3.819,5.538,5.334,4.106Z" transform="translate(124.98 122.745)" fill="#fff"/>
    <path id="Fill_47" data-name="Fill 47" d="M9.166,3.309,4.638,0,3.511,1.537l4.5,3.284c1.461,1.067,1.344,2.23.749,3.043s-1.672,1.275-3.133.207l-4.5-3.283L0,6.323,4.529,9.632a3.832,3.832,0,0,0,5.676-.709A3.822,3.822,0,0,0,9.166,3.309" transform="translate(130.992 110.975)" fill="#fff"/>
    <path id="Fill_48" data-name="Fill 48" d="M8.457,2.013c-1.806-.868-3.1.132-4.165,1.8l-.411.66C3.4,5.2,2.905,5.791,2.32,5.51c-.759-.366-.522-1.4-.246-1.971l.048-.1A4.49,4.49,0,0,1,4.061,1.615L3.567,0A5.627,5.627,0,0,0,.5,2.661l-.048.1c-.845,1.814-.532,3.71,1.1,4.495,1.532.736,2.809-.227,3.813-1.8l.4-.648c.544-.841,1.1-1.448,1.857-1.082.66.317.741,1.167.267,2.18l-.035.075a3.5,3.5,0,0,1-2.412,2.01l.493,1.615A5,5,0,0,0,9.48,6.761l.035-.075c.917-1.932.6-3.877-1.059-4.673" transform="translate(138.867 101.21)" fill="#fff"/>
  </g>
</svg>
