<svg xmlns="http://www.w3.org/2000/svg" xmlns:xlink="http://www.w3.org/1999/xlink" width="157.603" height="194.926" viewBox="0 0 157.603 194.926">
  <defs>
    <clipPath id="clip-path">
      <path id="Clip_16" data-name="Clip 16" d="M0,0H14.328V17.047H0Z" transform="translate(2.476 1.26)" fill="none"/>
    </clipPath>
    <clipPath id="clip-path-2">
      <path id="Clip_79" data-name="Clip 79" d="M0,0H64.432V72.981H0Z" transform="translate(1.324 0.535)" fill="none"/>
    </clipPath>
  </defs>
  <g id="Edeldorf_Logo" data-name="Edeldorf Logo" transform="translate(-0.001 -0.539)">
    <path id="Fill_1" data-name="Fill 1" d="M5.619,7.79a15.176,15.176,0,0,0,2.419-.144A1.982,1.982,0,0,0,9.13,6.912a3.04,3.04,0,0,0,.544-1.474c0-.167.07-.215.189-.215L10.5,5.3c.118.022.218.045.192.189a23.168,23.168,0,0,0-.074,2.467c0,1.07.1,2.208.144,2.708.022.141-.07.167-.189.189l-.57.122c-.093.022-.141-.026-.186-.192a7.479,7.479,0,0,0-.477-1.208,1.92,1.92,0,0,0-1.3-.833,16.1,16.1,0,0,0-2.419-.144V10.02c0,1.282.118,3.586.118,4.012,0,1.234.259,1.663.57,1.8a5.265,5.265,0,0,0,1.99.215c.4,0,1.4-.026,1.9-.07a3.618,3.618,0,0,0,1.8-.785,26.043,26.043,0,0,0,2.419-2.538c.1-.1.166-.122.237-.074l.4.237a.15.15,0,0,1,.1.189L14.083,16.6a.51.51,0,0,1-.525.356c-.118,0-.64-.022-2.154-.045-1.542,0-4.054-.026-8.157-.026-.88,0-1.542.026-2.016.026-.5.022-.806.045-1.018.045-.166,0-.214-.07-.214-.26v-.5c0-.141.07-.211.237-.211h.71c1.091,0,1.184-.17,1.184-1V7.03c0-1.971-.045-4.893-.067-5.127-.1-.763-.336-.926-.973-.926H.166C.07.977.048.9.048.737V.17A.149.149,0,0,1,.214,0C.736,0,1.562.074,3.722.074l8.32-.026c.381,0,.832-.048.95-.048a.169.169,0,0,1,.189.122c.1.33.88,3.582.973,3.82.048.119.048.17-.07.24l-.384.189a.2.2,0,0,1-.278-.1,26.3,26.3,0,0,0-2.8-2.66,3.9,3.9,0,0,0-1.8-.638L5.686.881Z" transform="translate(0.001 164.777)" fill="#fefefe"/>
    <path id="Fill_3" data-name="Fill 3" d="M7.988,16.951c-.132,0-.567-.009-1.117-.02-1.062-.021-2.514-.05-3.361-.05-1.472,0-2.362.035-2.894.056-.206.008-.354.014-.45.014C.042,16.951,0,16.9,0,16.739v-.622c0-.091.068-.14.192-.14H1.424c.456,0,.711-.192.759-.571.072-.51.167-5.911.167-7.642V5.982c0-.607-.073-3.982-.119-4.342-.072-.553-.365-.667-.784-.667H.259C.137.974.07.948.07.811V.121C.07.037.122,0,.237,0,.318,0,.448.005.646.013c.548.021,1.569.061,3.316.061.316,0,1.1-.02,1.857-.039C6.544.017,7.228,0,7.492,0c3.447,0,5.867.353,8.038,2.16a7.569,7.569,0,0,1,2.656,6.03,8.515,8.515,0,0,1-2.349,6.245C13.519,16.951,9.356,16.951,7.988,16.951ZM7.728.9A2.719,2.719,0,0,0,6.4,1.093c-.378.177-.451.6-.473,1.022C5.906,3.039,5.9,5.782,5.9,6.6V8.286c0,.321.023,4.347.048,5.816a2.107,2.107,0,0,0,.4,1.3c.326.5,1.327.571,1.895.571a5.7,5.7,0,0,0,4.432-2.326,9.245,9.245,0,0,0,1.686-5.412,8.122,8.122,0,0,0-1.92-5.175A7.055,7.055,0,0,0,7.728.9Z" transform="translate(18.76 164.778)" fill="#fefefe"/>
    <path id="Fill_5" data-name="Fill 5" d="M5.619,7.79a15.176,15.176,0,0,0,2.419-.144A1.972,1.972,0,0,0,9.13,6.912a3.04,3.04,0,0,0,.544-1.474c0-.167.07-.215.189-.215l.64.074c.115.022.214.045.189.189a23.168,23.168,0,0,0-.074,2.467c0,1.07.1,2.208.144,2.708.026.141-.07.167-.189.189l-.57.122c-.093.022-.141-.026-.186-.192a7.479,7.479,0,0,0-.477-1.208,1.913,1.913,0,0,0-1.3-.833,16.1,16.1,0,0,0-2.419-.144V10.02c0,1.282.118,3.586.118,4.012,0,1.234.259,1.663.57,1.8a5.277,5.277,0,0,0,1.99.215c.4,0,1.4-.026,1.9-.07a3.606,3.606,0,0,0,1.8-.785,26.043,26.043,0,0,0,2.419-2.538c.1-.1.17-.122.237-.074l.4.237a.152.152,0,0,1,.1.189L14.083,16.6a.51.51,0,0,1-.525.356c-.118,0-.64-.022-2.154-.045-1.542,0-4.054-.026-8.157-.026-.88,0-1.542.026-2.016.026-.5.022-.806.045-1.018.045-.166,0-.214-.07-.214-.26v-.5c0-.141.074-.211.237-.211h.71c1.091,0,1.184-.17,1.184-1V7.03c0-1.971-.045-4.893-.067-5.127-.1-.763-.333-.926-.973-.926H.166C.074.977.048.9.048.737V.17A.151.151,0,0,1,.214,0C.736,0,1.562.074,3.722.074L12.045.048c.378,0,.829-.048.947-.048a.169.169,0,0,1,.189.122c.1.33.88,3.582.973,3.82.048.119.048.17-.07.24l-.381.189a.207.207,0,0,1-.282-.1,26.3,26.3,0,0,0-2.8-2.66,3.888,3.888,0,0,0-1.8-.638L5.686.881Z" transform="translate(40.966 164.777)" fill="#fefefe"/>
    <path id="Fill_7" data-name="Fill 7" d="M5.549,9.449c0,.4,0,5.531.07,6.479H6.97c1.117,0,2.182,0,3.462-.119s2.893-2.964,3.248-3.842c.07-.144.141-.215.285-.144l.47.189c.074.048.074.074.051.215-.07.167-1.018,4.082-1.162,4.723-.618-.045-7.443-.07-9.626-.07-2.349,0-3.2.07-3.51.07-.166,0-.189-.045-.189-.211v-.6c0-.119.022-.163.166-.163H.9c.874,0,1.018-.333,1.018-.593,0-.455.074-6.364.074-7.812V6.245c0-1.519-.048-4.034-.074-4.416-.045-.618-.166-.856-.71-.856H.333C.189.974.166.856.166.737V.17C.166.048.189,0,.333,0,.592,0,1.446.074,3.6.074,6.378.074,7.373,0,7.587,0,7.776,0,7.8.074,7.8.24V.785C7.8.9,7.75.974,7.565.974H6.448c-.733,0-.829.237-.829.878,0,.311-.07,3.9-.07,5.556Z" transform="translate(59.89 164.777)" fill="#fefefe"/>
    <path id="Fill_9" data-name="Fill 9" d="M7.988,16.951c-.132,0-.567-.009-1.117-.02-1.062-.021-2.514-.05-3.361-.05-1.472,0-2.362.035-2.894.056-.206.008-.354.014-.45.014C.042,16.951,0,16.9,0,16.739v-.622c0-.091.067-.14.189-.14H1.424c.456,0,.711-.192.759-.571.072-.51.166-5.911.166-7.642V5.982c0-.607-.073-3.982-.119-4.342-.072-.553-.365-.667-.784-.667H.259C.137.974.07.948.07.811V.121C.07.037.122,0,.237,0,.318,0,.448.005.646.013c.548.021,1.569.061,3.316.061.316,0,1.1-.02,1.857-.039C6.544.017,7.228,0,7.492,0c3.447,0,5.867.353,8.038,2.16a7.568,7.568,0,0,1,2.653,6.03,8.514,8.514,0,0,1-2.346,6.245C13.519,16.951,9.356,16.951,7.988,16.951ZM7.728.9A2.719,2.719,0,0,0,6.4,1.093c-.378.177-.451.6-.473,1.022C5.906,3.039,5.9,5.782,5.9,6.6V8.286c0,.321.023,4.347.048,5.816a2.107,2.107,0,0,0,.4,1.3c.326.5,1.327.571,1.894.571a5.7,5.7,0,0,0,4.433-2.326,9.245,9.245,0,0,0,1.686-5.412,8.122,8.122,0,0,0-1.92-5.175A7.055,7.055,0,0,0,7.728.9Z" transform="translate(77.903 164.778)" fill="#fefefe"/>
    <path id="Fill_11" data-name="Fill 11" d="M9.053,17.518a10.747,10.747,0,0,1-5.568-1.541A8.31,8.31,0,0,1,0,8.924,9.177,9.177,0,0,1,2.2,3.015,8.363,8.363,0,0,1,9.1,0a8.588,8.588,0,0,1,5.779,1.875,8.751,8.751,0,0,1,3.251,7.1,8.691,8.691,0,0,1-1.779,5.2,8.573,8.573,0,0,1-2.823,2.394A9.645,9.645,0,0,1,9.053,17.518ZM8.758,1.113A3.9,3.9,0,0,0,5.9,2.4,8.612,8.612,0,0,0,3.792,8.165a9.482,9.482,0,0,0,1.99,6.4A4.841,4.841,0,0,0,9.245,16.4c4.088,0,5.168-4.734,5.168-7.238a9.279,9.279,0,0,0-1.955-5.975,5.021,5.021,0,0,0-3.45-2.074h-.25Z" transform="translate(100.823 164.494)" fill="#fefefe"/>
    <path id="Fill_13" data-name="Fill 13" d="M16.307,16.951c-.046,0-.117,0-.226-.01-.333-.019-1.025-.06-2.405-.06-.48,0-1.039.023-1.58.045-.235.01-.463.019-.673.026a19.448,19.448,0,0,1-2.586-4.1c-.815-1.632-1.78-3.374-2.915-3.374H5.116v1.211c0,1.362.073,4.056.119,4.368.056.582.277.929.592.929H6.8c.157,0,.185.064.185.189v.571c0,.164-.016.212-.377.212l-.021,0c-.309-.026-1.119-.069-3.086-.069-1.9,0-2.677.04-3.051.06-.123.006-.2.011-.268.011C0,16.951,0,16.881,0,16.714v-.545c0-.118,0-.189.115-.189h.71c.638,0,.948-.249.948-.762.051-2.349.051-4.53.051-6.838v-2.3c0-1.757,0-3.275-.026-3.916C1.772,1.341,1.447.974,1.136.974H.185C.062.974.045.9.045.811V.166C.045.051.065,0,.185,0,.233,0,.308,0,.422.009c.386.019,1.291.064,3.3.064.714,0,1.668-.022,2.51-.041C6.966.016,7.657,0,8.105,0a6.04,6.04,0,0,1,4.2,1.567,3.66,3.66,0,0,1,1.35,2.589A4.458,4.458,0,0,1,9.315,8.713v.169a3.171,3.171,0,0,1,1.565,1.256c.223.275.983,1.484,1.437,2.207.173.276.31.493.362.571.131.193,1.42,2.011,1.9,2.563a3.021,3.021,0,0,0,1.731.5c.166,0,.189.091.189.189v.571C16.5,16.885,16.469,16.951,16.307,16.951ZM6.419.856a1.344,1.344,0,0,0-.9.214,1.027,1.027,0,0,0-.259.641L5.139,8.642c.454.026.741.026.95.026,3.155,0,3.865-3.043,3.865-4.109a4.014,4.014,0,0,0-.9-2.659A4.164,4.164,0,0,0,6.419.856Z" transform="translate(123.187 164.777)" fill="#fefefe"/>
    <g id="Group_17" data-name="Group 17" transform="translate(140.8 163.423)">
      <path id="Clip_16-2" data-name="Clip 16" d="M0,0H14.328V17.047H0Z" transform="translate(2.476 1.26)" fill="none"/>
      <g id="Group_17-2" data-name="Group 17" clip-path="url(#clip-path)">
        <path id="Fill_15" data-name="Fill 15" d="M5.76,8.594a18.194,18.194,0,0,0,2.346-.141A2.018,2.018,0,0,0,9.341,7.6a3.336,3.336,0,0,0,.522-1.259c.022-.119.1-.189.189-.189L10.6,6.2c.093,0,.141.07.141.167-.048.4-.048,2.371-.048,2.7,0,.856.07,2,.118,2.471,0,.119-.048.167-.166.189l-.522.119c-.093.022-.163-.048-.186-.189a7.217,7.217,0,0,0-.454-1.141,2.47,2.47,0,0,0-1.158-.948A13.937,13.937,0,0,0,5.76,9.4v.9c0,.711.026,4.7.026,5.008,0,.638.237.759.57.759h1.4c.144,0,.214.048.214.141v.641c0,.144-.045.192-.189.192-.237,0-1.184-.074-3.651-.074-2.323,0-3.226.074-3.581.074C.451,17.047.4,17,.4,16.832v-.641c0-.1.07-.119.166-.119H1.4c.5,0,.688-.1.707-.474.026-.474.1-3.467.1-7.549V6.386c0-1.045-.048-4.39-.048-4.63,0-.449-.33-.686-.973-.686H.214C.074,1.07,0,1.022,0,.926V.237C0,.144.074.1.166.1c.259,0,1.162.07,4.054.07.33,0,6.566-.07,7.706-.07.522,0,1.043-.1,1.232-.1.118,0,.189.144.237.4l.925,3.871c.022.1,0,.167-.074.189l-.474.26c-.118.051-.166,0-.333-.237A23.688,23.688,0,0,0,11.594,2.3,3.651,3.651,0,0,0,9.958,1.237,29.943,29.943,0,0,0,5.786,1c0,.311-.026,5.034-.026,6.482Z" transform="translate(2.476 1.26)" fill="#fefefe"/>
      </g>
    </g>
    <path id="Fill_18" data-name="Fill 18" d="M.429,4.829c.237-.074.237-.26.253-.625.01-.3.01-1.115.01-1.814C.691,1.6.681.657.672.545.656.34.617.25.464.2A1.914,1.914,0,0,0,.016.122C-.01.106,0,.006.016,0,.275,0,.7.022.95.022H4.32C4.643.022,5.033,0,5.171,0a.168.168,0,0,1,0,.112A2.708,2.708,0,0,0,4.816.2c-.182.054-.243.122-.253.429-.006.237-.026.952-.026,1.878,0,.708-.006,1.708.026,1.951.016.221.051.317.211.375a1.533,1.533,0,0,0,.448.08c.006.019.006.1-.019.122-.163,0-.518-.022-.883-.022s-.723.016-.915.022c-.019-.006-.019-.112,0-.122a1.965,1.965,0,0,0,.477-.1c.122-.058.138-.179.147-.375.016-.253.006-1.666.006-2.016,0-.375.01-2-.016-2.124A.1.1,0,0,0,3.961.244c-.1-.019-2.589-.01-2.72,0-.016,0-.032.042-.032.048-.016.122-.016,1.772-.016,2.147,0,.333.006,1.56.016,1.887.006.276.026.445.218.5a2.786,2.786,0,0,0,.432.08c0,.035.006.109-.016.122-.384-.006-.566-.022-.877-.022s-.762.016-.95.022a.261.261,0,0,1,0-.122,2.478,2.478,0,0,0,.413-.08" transform="translate(17.391 190.311)" fill="#fefefe"/>
    <path id="Fill_20" data-name="Fill 20" d="M.195,0c.179,0,.413.026.861.026H2.624c.3,0,.7-.01.819-.026.01,0,.022.016.022.026a7.549,7.549,0,0,0-.144,1.032.193.193,0,0,1-.128.01A2.829,2.829,0,0,0,3.126.586C3.068.391,3.014.26,2.662.244,2.451.237,1.552.228,1.42.244a.115.115,0,0,0-.083.115c-.013.292-.022,1.836-.013,1.91,0,.032.006.067.022.067.2.013,1.062.006,1.3-.01a.328.328,0,0,0,.346-.269,1.656,1.656,0,0,0,.08-.3c.026-.016.131-.01.141.01a5.229,5.229,0,0,0-.058.721c0,.352.019.529.019.65-.026.035-.122.042-.141.01a1.735,1.735,0,0,0-.048-.276.315.315,0,0,0-.333-.285c-.246-.016-1.078-.026-1.3-.006-.016,0-.029.054-.029.064-.01.138,0,1.349.013,1.83.01.211.118.276.2.292a6.315,6.315,0,0,0,1.03.048c.5,0,.592-.106.7-.208A2.362,2.362,0,0,0,3.7,3.871a.167.167,0,0,1,.106.058,4.847,4.847,0,0,1-.333,1.016c-.048.08-.074.09-.486.09s-.659-.026-1.926-.026c-.541,0-.739.026-1.046.026a.126.126,0,0,1,0-.122,2.962,2.962,0,0,0,.512-.064c.2-.051.262-.141.282-.474.01-.122.019-1.08.019-2.038C.828,1.528.819.747.809.625.793.3.764.228.56.179A2.277,2.277,0,0,0,.185.115C.16.1.169.016.195,0" transform="translate(24.691 190.31)" fill="#fefefe"/>
    <path id="Fill_22" data-name="Fill 22" d="M1.527,2.765c0-.006.016-.042.022-.042a1.692,1.692,0,0,0,.365.035,1.109,1.109,0,0,0,.6-.138,1.136,1.136,0,0,0,.506-1.093A1.231,1.231,0,0,0,1.614.179,1.378,1.378,0,0,0,1.29.211c-.026.01-.051.042-.058.106-.01.2-.026.8-.026,1.913,0,.529-.022,1.455,0,2.1.01.449.083.481.336.529.112.026.259.042.371.058.035.016.026.115.01.122-.2,0-.675-.022-.966-.022-.358,0-.8.022-.934.022a.113.113,0,0,1-.01-.122,2.7,2.7,0,0,0,.381-.058c.173-.048.262-.032.285-.493.016-.247.035-.692.035-1.9,0-.5.006-1.593-.01-1.82C.689.365.657.237.452.189a2.677,2.677,0,0,0-.4-.067A.186.186,0,0,1,.071,0c.138,0,.5.026.877.026.39,0,.656-.016,1.1-.016a1.793,1.793,0,0,1,1.04.3,1.281,1.281,0,0,1,.48,1.035,1.487,1.487,0,0,1-.845,1.416,1.766,1.766,0,0,1-.771.17A1.224,1.224,0,0,1,1.6,2.887a.33.33,0,0,1-.07-.122" transform="translate(30.48 190.31)" fill="#fefefe"/>
    <path id="Fill_24" data-name="Fill 24" d="M.022,0C.175,0,.5.026.956.026c.438,0,.614-.019.835-.026a.136.136,0,0,1,0,.122,2.244,2.244,0,0,0-.349.067c-.16.048-.218.112-.227.346C1.206.666,1.2,2.083,1.2,2.4c0,1.666-.01,2.131.026,2.269a.106.106,0,0,0,.08.087c.09.019,1.616.026,1.715.019a.129.129,0,0,0,.122-.106c.022-.311.022-1.58.022-2.278,0-.788,0-1.746-.01-1.862-.013-.2-.045-.253-.17-.311a1.531,1.531,0,0,0-.422-.1.16.16,0,0,1,0-.122c.115,0,.285.026.861.026.438,0,.611-.019.835-.026a.146.146,0,0,1-.006.122A2.35,2.35,0,0,0,3.9.179c-.163.048-.2.138-.211.372C3.67.683,3.66,2.083,3.66,2.4c0,1.666.01,2.057.026,2.253,0,.032.029.1.09.1.3.019,1.661.035,1.782,0,.026-.006.042-.029.051-.064.026-.186.016-.634.016-2.153,0-.385-.01-1.935-.016-2.067A.283.283,0,0,0,5.42.2a2.522,2.522,0,0,0-.39-.08A.2.2,0,0,1,5.03,0c.157,0,.506.026.88.026C6.233.026,6.63,0,6.761,0a.16.16,0,0,1,0,.122c-.154.032-.3.048-.39.08C6.2.26,6.162.349,6.153.66c-.01.224-.026.916-.026,1.846,0,1.371,0,1.7.016,1.983.019.218.061.285.211.34a2.034,2.034,0,0,0,.448.083.114.114,0,0,1-.016.122c-.323,0-.522-.026-.822-.026H.972c-.31,0-.771.016-.96.026a.16.16,0,0,1,0-.122,2.507,2.507,0,0,0,.422-.083c.237-.074.227-.211.243-.577C.687,3.951.7,3.089.7,2.39.7,1.6.687.66.678.545.662.34.63.276.508.218A1.871,1.871,0,0,0,.022.131C0,.115.006.016.022,0" transform="translate(35.926 190.31)" fill="#fefefe"/>
    <path id="Fill_26" data-name="Fill 26" d="M1.706,5.018h0c-.056,0-.152,0-.275-.007C1.238,5,1,5,.781,5,.527,5,.336,5,.2,5.011c-.076,0-.136.006-.179.006-.006,0-.011-.01-.014-.023a.134.134,0,0,1,.014-.1c.573-.074.648-.136.9-.74.407-.96.962-2.511,1.26-3.345.063-.177.113-.317.145-.4A2.3,2.3,0,0,0,2.436,0h.014A1.665,1.665,0,0,0,2.624.01,1.461,1.461,0,0,0,2.8,0h.013a3.313,3.313,0,0,0,.1.359c.05.14.192.574.371,1.124.337,1.035.8,2.45.96,2.843.213.485.243.507.787.571a.129.129,0,0,1-.016.121l-.091,0C4.7,5.008,4.322,5,4.158,5c-.194,0-.729.006-.9.022a.207.207,0,0,1,0-.122,2.253,2.253,0,0,0,.407-.08c.128-.058.127-.116.1-.228-.083-.322-.353-1.1-.515-1.558l-.039-.111a.257.257,0,0,0-.055-.038c-.083-.01-.253-.01-.759-.01a6.517,6.517,0,0,0-.665.01c-.023,0-.055.032-.064.058a14.35,14.35,0,0,0-.528,1.551c-.025.162-.022.281.237.343l.022.005a2.718,2.718,0,0,0,.32.059.165.165,0,0,1-.01.122ZM2.494.638c-.021,0-.032,0-.032.006C2.361.91,2.1,1.7,1.919,2.217l-.114.337c0,.03.005.051.032.058.07.009.272.009.714.009.185,0,.5,0,.534-.009A.015.015,0,0,0,3.1,2.6a.058.058,0,0,0,.006-.05C2.994,2.209,2.635,1.05,2.494.638Z" transform="translate(44.661 190.325)" fill="#fefefe"/>
    <path id="Fill_28" data-name="Fill 28" d="M.911,4.156C1.407,2.986,2.146.9,2.316.433A2.607,2.607,0,0,0,2.431,0a1.8,1.8,0,0,0,.186.01A1.681,1.681,0,0,0,2.806,0a3.643,3.643,0,0,0,.1.385C3.049.82,3.99,3.727,4.233,4.326c.211.481.243.506.787.57A.14.14,0,0,1,5,5.018C4.8,5.012,4.338,5,4.153,5s-.739.006-.909.022c-.006-.016-.016-.106,0-.122a2.237,2.237,0,0,0,.4-.08c.131-.058.131-.115.1-.228C3.593,4.041,2.79,1.6,2.479.67c0-.01-.026,0-.032,0-.221.657-1.12,3.137-1.293,3.634-.122.34-.042.471.2.529A3.235,3.235,0,0,0,1.7,4.9a.162.162,0,0,1-.01.122C1.545,5.018,1.132,5,.774,5c-.4,0-.64.022-.762.022a.16.16,0,0,1,0-.122c.566-.074.65-.138.9-.74" transform="translate(53.746 190.326)" fill="#fefefe"/>
    <path id="Fill_30" data-name="Fill 30" d="M.021,0C.168,0,.59.026.961.026,1.3.026,1.547,0,1.742,0a.148.148,0,0,1,.006.122c-.122.016-.259.032-.33.048C1.24.218,1.2.34,1.189.593c-.016.343-.026,1.154-.026,1.865,0,.763.01,1.666.019,1.935.016.25.042.388.243.445a2.665,2.665,0,0,0,.413.074c.026.026.01.106-.01.122-.166,0-.461-.026-.816-.026-.4,0-.56.026-.982.026a.118.118,0,0,1,0-.122,2.945,2.945,0,0,0,.362-.058c.2-.042.237-.163.253-.349S.67,2.9.67,2.227C.67,1.618.67.984.654.609.629.413.635.244.453.2A3.73,3.73,0,0,0,.011.122C-.011.106,0,.016.021,0" transform="translate(60.718 190.31)" fill="#fefefe"/>
    <path id="Fill_32" data-name="Fill 32" d="M.019,0C.278,0,.7.026.954.026c.438,0,.614-.019.835-.026C1.8.026,1.8.106,1.782.122a2.1,2.1,0,0,0-.336.058c-.16.048-.227.087-.234.356-.019.327-.019.878-.019,1.727a.075.075,0,0,0,.035.064c.016.01.128.016,1.51.016.8,0,1.274,0,1.347-.006.016,0,.032-.035.032-.042,0-.426,0-1.56-.016-1.814C4.093.327,4.054.237,3.942.2A2.362,2.362,0,0,0,3.526.122a.106.106,0,0,1,0-.122c.157,0,.5.026.867.026C4.73.026,5.126,0,5.258,0a.127.127,0,0,1,0,.122A2.639,2.639,0,0,0,4.89.2c-.17.058-.234.112-.243.465-.01.224-.026.916-.026,1.846,0,.7.01,1.714.026,1.958.016.221.058.311.211.365a1.672,1.672,0,0,0,.445.083.1.1,0,0,1-.016.122c-.323,0-.518-.026-.893-.026s-.71.016-.909.026a.126.126,0,0,1,0-.122,2.87,2.87,0,0,0,.406-.064c.173-.051.211-.115.218-.407.01-.205.01-1.279.01-1.782,0-.032-.016-.058-.032-.058C3.971,2.6,3.152,2.6,2.723,2.6c-.57,0-1.408,0-1.494.006-.016,0-.035.042-.035.048,0,.417.01,1.554.019,1.676.022.279.006.439.2.5a2.309,2.309,0,0,0,.445.09c.016.026,0,.112-.026.122-.253-.01-.56-.026-.867-.026s-.765.016-.95.026a.106.106,0,0,1,0-.122,2.431,2.431,0,0,0,.413-.083c.237-.074.237-.26.253-.625C.691,3.9.691,3.089.691,2.39.691,1.6.685.66.675.545.659.3.589.228.467.2S.221.154.019.122A.119.119,0,0,1,.019,0" transform="translate(64.698 190.31)" fill="#fefefe"/>
    <path id="Fill_34" data-name="Fill 34" d="M.02,0c.147,0,.57.026.944.026C1.3.026,1.549,0,1.741,0a.162.162,0,0,1,.01.122c-.122.016-.259.032-.333.048-.179.048-.211.17-.23.423-.016.343-.022,1.154-.022,1.865,0,.763.006,1.666.016,1.935.016.25.042.388.243.445a2.665,2.665,0,0,0,.413.074c.026.026.01.106-.006.122-.17,0-.461-.026-.819-.026-.4,0-.56.026-.982.026a.126.126,0,0,1,0-.122,3,3,0,0,0,.365-.058c.2-.042.234-.163.25-.349S.669,2.9.669,2.227c0-.609,0-1.243-.016-1.618C.628.413.637.244.452.2A3.771,3.771,0,0,0,.013.122C-.012.106,0,.016.02,0" transform="translate(72.147 190.31)" fill="#fefefe"/>
    <path id="Fill_36" data-name="Fill 36" d="M.144,5.063c-.044,0-.085,0-.124,0A.184.184,0,0,1,0,4.945L.09,4.938c.3-.023.379-.029.752-.432.133-.145.321-.4.521-.672a5.183,5.183,0,0,1,1-1.158s.011-.008.011-.014,0-.011-.011-.018A1.384,1.384,0,0,1,1.207,1.317C1.207.511,1.836.01,2.848.01c.145,0,.328,0,.5.008s.328.007.45.007.249-.007.384-.013S4.447,0,4.545,0A.134.134,0,0,1,4.56.08c0,.023-.007.038-.015.042-.113.017-.22.036-.327.058-.2.041-.287.137-.294.311C3.911.786,3.9,2.118,3.9,2.569c0,.416.017,1.494.023,1.814.009.3.082.423.278.471a2.285,2.285,0,0,0,.275.045l.093.012c.007,0,.008.027.008.037,0,.032-.007.08-.018.084-.046,0-.139,0-.257-.007-.188-.006-.445-.015-.648-.015-.222,0-.476.01-.645.016-.091,0-.163.006-.2.006-.006-.017-.016-.105,0-.122a2.618,2.618,0,0,0,.328-.054l.047-.01c.152-.053.2-.124.218-.464.013-.238.011-.86.01-1.315,0-.124,0-.238,0-.33,0-.017-.019-.054-.038-.054a1.7,1.7,0,0,0-.285.015.826.826,0,0,0-.562.343c-.146.187-.316.426-.481.657a11.13,11.13,0,0,1-.713.936.918.918,0,0,1-.371.292A2.327,2.327,0,0,1,.144,5.063ZM2.788.179A.972.972,0,0,0,1.751,1.237c0,.844.5,1.271,1.492,1.271l.134,0a.056.056,0,0,0,.038-.041c0-.554,0-1.852-.025-2.131a.119.119,0,0,0-.08-.1A1.623,1.623,0,0,0,2.788.179Z" transform="translate(75.96 190.309)" fill="#fefefe"/>
    <path id="Fill_38" data-name="Fill 38" d="M.432,4.829c.234-.074.234-.26.25-.625.01-.3.01-1.115.01-1.814C.691,1.6.681.657.675.545.656.34.617.25.464.2A1.885,1.885,0,0,0,.016.122C-.01.106,0,.006.016,0,.275,0,.7.022.95.022H4.32C4.643.022,5.033,0,5.171,0a.168.168,0,0,1,0,.112A2.842,2.842,0,0,0,4.816.2c-.179.054-.243.122-.253.429-.006.237-.022.952-.022,1.878,0,.708-.01,1.708.022,1.951.019.221.051.317.211.375a1.533,1.533,0,0,0,.448.08.184.184,0,0,1-.016.122c-.163,0-.522-.022-.886-.022s-.723.016-.915.022c-.016-.006-.016-.112,0-.122a1.9,1.9,0,0,0,.477-.1c.122-.058.138-.179.147-.375.016-.253.006-1.666.006-2.016,0-.375.01-2-.016-2.124A.088.088,0,0,0,3.965.244c-.1-.019-2.592-.01-2.72,0-.019,0-.035.042-.035.048-.016.122-.016,1.772-.016,2.147,0,.333.01,1.56.016,1.887.01.276.026.445.221.5a2.8,2.8,0,0,0,.429.08c0,.035.01.109-.016.122-.381-.006-.566-.022-.877-.022s-.762.016-.95.022a.261.261,0,0,1,0-.122,2.526,2.526,0,0,0,.416-.08" transform="translate(85.473 190.311)" fill="#fefefe"/>
    <path id="Fill_40" data-name="Fill 40" d="M.194,0c.179,0,.416.026.861.026H2.622c.3,0,.7-.01.822-.026.006,0,.019.016.019.026a7.075,7.075,0,0,0-.141,1.032.2.2,0,0,1-.131.01A2.829,2.829,0,0,0,3.125.586C3.067.391,3.013.26,2.661.244,2.45.237,1.55.228,1.422.244a.114.114,0,0,0-.086.115c-.013.292-.019,1.836-.013,1.91,0,.032.006.067.022.067.2.013,1.066.006,1.3-.01A.332.332,0,0,0,3,2.057a2.418,2.418,0,0,0,.08-.3c.022-.016.128-.01.138.01a5.317,5.317,0,0,0-.054.721c0,.352.016.529.016.65-.026.035-.122.042-.138.01a2.144,2.144,0,0,0-.051-.276.315.315,0,0,0-.333-.285c-.243-.016-1.078-.026-1.3-.006-.019,0-.032.054-.032.064-.006.138,0,1.349.013,1.83.01.211.118.276.2.292a6.315,6.315,0,0,0,1.03.048c.5,0,.6-.106.7-.208A2.421,2.421,0,0,0,3.7,3.871a.184.184,0,0,1,.106.058,4.841,4.841,0,0,1-.336,1.016c-.048.08-.07.09-.486.09s-.656-.026-1.926-.026c-.541,0-.736.026-1.046.026a.135.135,0,0,1,0-.122,2.962,2.962,0,0,0,.512-.064c.2-.051.262-.141.285-.474.006-.122.016-1.08.016-2.038C.827,1.528.818.747.811.625.792.3.763.228.558.179A2.277,2.277,0,0,0,.184.115.1.1,0,0,1,.194,0" transform="translate(92.773 190.31)" fill="#fefefe"/>
    <path id="Fill_42" data-name="Fill 42" d="M.021,0C.168,0,.433.026.875.026c.371,0,.64-.026.746-.026a.16.16,0,0,1,0,.122c-.39.067-.438.131-.458.292s-.006.718,0,1.019c.026.974.707,1.054,1.194,1.054a2.213,2.213,0,0,0,.944-.2.112.112,0,0,0,.016-.042C3.317,1.7,3.326.814,3.3.5,3.288.285,3.237.228,3.041.17A2.81,2.81,0,0,0,2.725.122a.16.16,0,0,1,0-.122c.237,0,.48.026.861.026.5,0,.707-.026.861-.026.026.016.026.106.01.122C4.267.154,4.187.17,4.088.2c-.176.048-.237.112-.243.4-.01.375-.026,1.253-.026,1.865,0,0,.01,1.74.026,2.057a.322.322,0,0,0,.275.34,3.163,3.163,0,0,0,.381.058.126.126,0,0,1-.013.122c-.221,0-.422-.026-.829-.026-.512,0-.7.026-.966.026-.016-.01-.016-.122,0-.122a3.374,3.374,0,0,0,.355-.048c.23-.051.253-.163.259-.628.01-.423.01-1.307.01-1.778,0-.01-.016-.042-.026-.035a2.752,2.752,0,0,1-1.264.349A1.348,1.348,0,0,1,.849,2.31a1.462,1.462,0,0,1-.2-.9S.635.8.635.6C.635.365.59.228.353.17A2.738,2.738,0,0,0,.011.122.128.128,0,0,1,.021,0" transform="translate(98.484 190.31)" fill="#fefefe"/>
    <path id="Fill_44" data-name="Fill 44" d="M.194,0c.182,0,.416.026.864.026H2.622c.3,0,.7-.01.822-.026a.037.037,0,0,1,.022.026,7.082,7.082,0,0,0-.144,1.032.2.2,0,0,1-.131.01A2.829,2.829,0,0,0,3.125.586C3.067.391,3.013.26,2.661.244,2.453.237,1.55.228,1.422.244a.115.115,0,0,0-.083.115c-.013.292-.022,1.836-.013,1.91,0,.032,0,.067.019.067.2.013,1.066.006,1.3-.01A.332.332,0,0,0,3,2.057a2.418,2.418,0,0,0,.08-.3c.026-.016.131-.01.138.01a5.317,5.317,0,0,0-.054.721c0,.352.016.529.016.65-.026.035-.122.042-.138.01a1.7,1.7,0,0,0-.051-.276.311.311,0,0,0-.33-.285c-.246-.016-1.082-.026-1.3-.006-.016,0-.029.054-.029.064-.01.138,0,1.349.013,1.83.006.211.115.276.2.292a6.343,6.343,0,0,0,1.03.048c.5,0,.6-.106.7-.208A2.426,2.426,0,0,0,3.7,3.871a.175.175,0,0,1,.106.058,4.663,4.663,0,0,1-.336,1.016c-.045.08-.07.09-.486.09s-.656-.026-1.926-.026c-.541,0-.736.026-1.046.026a.135.135,0,0,1,0-.122,2.962,2.962,0,0,0,.512-.064c.2-.051.262-.141.285-.474.006-.122.016-1.08.016-2.038C.827,1.528.818.747.811.625.8.3.763.228.558.179A2.229,2.229,0,0,0,.187.115C.162.1.171.016.194,0" transform="translate(105.064 190.31)" fill="#fefefe"/>
    <path id="Fill_46" data-name="Fill 46" d="M1.525,2.765c0-.006.016-.042.026-.042a1.668,1.668,0,0,0,.365.035,1.124,1.124,0,0,0,.6-.138,1.133,1.133,0,0,0,.5-1.093A1.228,1.228,0,0,0,1.615.179a1.36,1.36,0,0,0-.323.032c-.026.01-.051.042-.061.106-.006.2-.022.8-.022,1.913,0,.529-.022,1.455,0,2.1.006.449.083.481.333.529.115.026.259.042.374.058.032.016.026.115.006.122-.2,0-.672-.022-.966-.022-.355,0-.8.022-.934.022a.112.112,0,0,1-.006-.122A2.7,2.7,0,0,0,.4,4.855c.17-.048.262-.032.285-.493.016-.247.032-.692.032-1.9,0-.5.01-1.593-.006-1.82C.687.365.658.237.453.189A2.73,2.73,0,0,0,.047.122.187.187,0,0,1,.073,0c.138,0,.5.026.874.026.39,0,.659-.016,1.107-.016a1.793,1.793,0,0,1,1.04.3,1.3,1.3,0,0,1,.48,1.035,1.492,1.492,0,0,1-.845,1.416,1.787,1.787,0,0,1-.771.17A1.26,1.26,0,0,1,1.6,2.887a.384.384,0,0,1-.07-.122" transform="translate(110.854 190.31)" fill="#fefefe"/>
    <path id="Fill_48" data-name="Fill 48" d="M3.664.375A2.281,2.281,0,0,0,2.634.189C1.347.189.6,1.1.6,2.522A2.249,2.249,0,0,0,2.909,5.044a1.368,1.368,0,0,0,.973-.333A2.882,2.882,0,0,0,4.41,3.98c.026-.01.118.029.118.064a2.292,2.292,0,0,1-.611,1.064,4.079,4.079,0,0,1-1.162.17A2.483,2.483,0,0,1,0,2.6,2.414,2.414,0,0,1,1.27.381,3.363,3.363,0,0,1,2.928,0,11.951,11.951,0,0,1,4.41.163a8.153,8.153,0,0,0-.147,1.147c-.013.022-.141.048-.141.016C4.038.65,3.917.5,3.664.375" transform="translate(116.631 190.187)" fill="#fefefe"/>
    <path id="Fill_50" data-name="Fill 50" d="M1.615,5.056c-.169,0-.421,0-.688-.007-.319,0-.648-.009-.911-.009C.008,5.035,0,5.007,0,4.978s.005-.052.016-.059l.093-.013a4.114,4.114,0,0,0,.409-.07C.681,4.8.7,4.7.723,4.405s.026-.9.026-1.925c0-1.266,0-1.692-.02-1.971C.713.284.639.222.525.2A2.337,2.337,0,0,0,.176.134L.128.128A.057.057,0,0,1,.12.092.165.165,0,0,1,.138.006c.09,0,.183.006.28.011C.593.025.774.032.982.032c.192,0,.371-.01.528-.019C1.63.006,1.734,0,1.821,0a.157.157,0,0,1,0,.122c-.043.006-.257.034-.352.055-.181.049-.212.146-.218.432-.013.431-.019.953-.019,1.552,0,.019.025.035.025.035.378-.029.685-.035.877-.035,1.133,0,1.536.685,1.536,1.327A1.491,1.491,0,0,1,2.64,4.918,2.6,2.6,0,0,1,1.615,5.056ZM1.267,2.381c-.016,0-.035.044-.035.058,0,.525,0,1.756.019,2.064a.27.27,0,0,0,.08.2,1.216,1.216,0,0,0,.656.164A1.059,1.059,0,0,0,3.11,3.682c0-.886-.482-1.317-1.472-1.317a2.576,2.576,0,0,0-.338.012l-.033,0h0Z" transform="translate(123.185 190.304)" fill="#fefefe"/>
    <path id="Fill_52" data-name="Fill 52" d="M.327,4.992c.31-.058.326-.2.339-.609C.676,4.009.683,2.8.683,2.464S.683,1.032.667.7C.66.487.644.349.417.3A2.825,2.825,0,0,0,.043.244C.017.218.027.128.052.122c.163,0,.534.026.89.026.39,0,.646-.032.79-.026.032.006.042.115,0,.122-.154.026-.179.026-.282.048C1.2.34,1.195.471,1.188.756,1.182,1.073,1.182,2,1.182,2.464c0,.016.006.032.029.032.528,0,.717-.154.845-.343a4.857,4.857,0,0,0,.416-.715C3.006.34,3.31,0,3.812,0a.515.515,0,0,1,.227.09.189.189,0,0,1,.048.09,1.06,1.06,0,0,1-.112.445C3.95.657,3.908.673,3.9.666A1,1,0,0,0,3.486.5C3.252.5,3.1.65,2.827,1.2a3.82,3.82,0,0,1-.842,1.291c-.01.01-.016.026-.01.035a1.125,1.125,0,0,1,.365.349c.358.487.71.952,1.091,1.429.566.708.71.718,1.29.734.032,0,.016.122-.01.122a6,6,0,0,1-.95-.026A.69.69,0,0,1,3.3,4.912c-.275-.269-.8-1.025-1.357-1.782-.234-.317-.406-.487-.749-.487a.037.037,0,0,0-.022.032c0,.407.01,1.544.016,1.894.006.279.048.343.269.4a3.423,3.423,0,0,0,.349.064.1.1,0,0,1,0,.122c-.122,0-.618-.026-.925-.026s-.611.016-.854.026c-.032,0-.032-.115-.016-.122Z" transform="translate(128.705 190.189)" fill="#fefefe"/>
    <path id="Fill_54" data-name="Fill 54" d="M1.707,5.018h0c-.057,0-.155,0-.279-.008C1.237,5,1,5,.782,5,.524,5,.333,5,.193,5.011c-.076,0-.135.006-.178.006C.01,5.016.007,5.01,0,5a.161.161,0,0,1,.01-.1c.573-.074.649-.136.905-.74.38-.9.895-2.334,1.2-3.19.09-.25.16-.447.2-.559A2.3,2.3,0,0,0,2.437,0h.01A1.625,1.625,0,0,0,2.625.01,1.383,1.383,0,0,0,2.8,0h.009l0,.019c.019.074.051.2.1.34s.173.521.334,1.015c.35,1.074.829,2.544,1,2.951.207.48.244.507.788.571a.137.137,0,0,1-.016.121l-.09,0C4.7,5.008,4.323,5,4.158,5c-.194,0-.728.006-.9.022a.224.224,0,0,1,0-.122,2.252,2.252,0,0,0,.406-.08c.133-.058.131-.117.1-.228-.07-.283-.289-.913-.448-1.373l-.1-.3a.362.362,0,0,0-.054-.038c-.083-.01-.253-.01-.759-.01a6.517,6.517,0,0,0-.665.01c-.023,0-.055.032-.064.058a13.668,13.668,0,0,0-.528,1.551c-.027.156-.026.28.234.343l.03.007a2.829,2.829,0,0,0,.316.057.175.175,0,0,1-.01.122ZM2.495.638c-.01,0-.032,0-.032.006-.1.27-.386,1.1-.554,1.6l0,.01-.1.3c0,.034.011.052.035.058.07.009.271.009.71.009.175,0,.5,0,.537-.009,0,0,.005,0,.009-.007A.058.058,0,0,0,3.1,2.554C3,2.209,2.636,1.05,2.495.638Z" transform="translate(135.176 190.325)" fill="#fefefe"/>
    <path id="Fill_56" data-name="Fill 56" d="M63.5,64.547,0,.932.928,0l58.25,58.328.074.1,3.02-3.051-3.145-3.172-.074-.077-1.261,1.237-.931-.932L63.5,45.787l9.383,9.369L63.5,64.546Zm0-16.9L59.955,51.2l4.176,4.178-3.949,3.955,3.245,3.249.073.1,7.52-7.53L63.6,47.75Z" transform="translate(80.589 20.155)" fill="#fefefe"/>
    <path id="Fill_58" data-name="Fill 58" d="M71.955,64.522,13.984,6.473l-.1-.074L10.717,9.572l2.889,2.9.08.074,1.38-1.358.931.932-6.64,6.648L0,9.369,9.356,0,72.889,63.59l-.933.932h0ZM9.356,1.865l-7.494,7.5,7.4,7.428.1.1,3.4-3.425-3.9-3.9,4.1-4.1L9.43,1.964Z" transform="translate(4.129 65.94)" fill="#fefefe"/>
    <path id="Fill_60" data-name="Fill 60" d="M0,.932l48.336,48.4.931-.932L.931,0Z" transform="translate(87.076 18.694)" fill="#fefefe"/>
    <path id="Fill_62" data-name="Fill 62" d="M39.283,38.4.931,0,0,.929,38.355,39.336Z" transform="translate(96.533 19.226)" fill="#fefefe"/>
    <path id="Fill_64" data-name="Fill 64" d="M49.267,48.4.931,0,0,.958l48.31,48.4Z" transform="translate(22.14 83.72)" fill="#fefefe"/>
    <path id="Fill_66" data-name="Fill 66" d="M0,.932,38.378,39.365l.931-.932L.931,0Z" transform="translate(22.767 93.063)" fill="#fefefe"/>
    <path id="Fill_68" data-name="Fill 68" d="M0,48.4l.931.932L49.267.958,48.336,0Z" transform="translate(87.076 82.99)" fill="#fefefe"/>
    <path id="Fill_70" data-name="Fill 70" d="M0,38.429l.931.907L39.283.929,38.352,0Z" transform="translate(96.332 92.259)" fill="#fefefe"/>
    <path id="Fill_72" data-name="Fill 72" d="M49.267.907,48.31,0,0,48.379l.931.932Z" transform="translate(22.14 17.964)" fill="#fefefe"/>
    <path id="Fill_74" data-name="Fill 74" d="M39.283.932,38.352,0,0,38.407l.931.932Z" transform="translate(22.593 18.417)" fill="#fefefe"/>
    <path id="Fill_76" data-name="Fill 76" d="M9.383,72.985h0L0,63.59,63.508,0l.957.932L6.215,59.257l3.242,3.224,3.174-3.146-1.462-1.462.931-.932,6.639,6.649L9.383,72.984Zm-4.1-12.8-3.421,3.4,7.421,7.43.1.1,7.5-7.53-3.248-3.249-.074-.1-4.1,4.131L5.283,60.189Z" transform="translate(69.419 77.123)" fill="#fefefe"/>
    <g id="Group_80" data-name="Group 80" transform="translate(22.4 0.003)">
      <path id="Clip_79-2" data-name="Clip 79" d="M0,0H64.432V72.981H0Z" transform="translate(1.324 0.535)" fill="none"/>
      <g id="Group_80-2" data-name="Group 80" clip-path="url(#clip-path-2)">
        <path id="Fill_78" data-name="Fill 78" d="M.9,72.985h0L0,72.055l58.1-58.2-2.89-2.871-.079-.1-3.04,3.047,1.181,1.156-.931.932L45.7,9.4,55.078,0l9.354,9.4L.905,72.985ZM55.078,1.865,47.559,9.4l3.6,3.576,3.972-3.954,3.9,3.906L62.5,9.472l.076-.076-7.42-7.428Z" transform="translate(1.324 0.532)" fill="#fefefe"/>
      </g>
    </g>
    <path id="Fill_81" data-name="Fill 81" d="M30.368,61.019a1.465,1.465,0,0,1-1.456-.881l-.051-.1a1.883,1.883,0,0,0-1.51-.83h-.074l-.043,0a.645.645,0,0,1-.564-.406V58.78a4.655,4.655,0,0,1,1.082-4.13,2.474,2.474,0,0,1,1.755-.782,2.322,2.322,0,0,1,.587.077h.049a9.765,9.765,0,0,0,1.886.35,1.422,1.422,0,0,0,1.058-.5c.788-.686,1.09-3.222,1.133-4.056v-.1l-.1-.025a9.253,9.253,0,0,0-1.559-.1h-.105a17.226,17.226,0,0,1-4.044-.428,4.887,4.887,0,0,1-3.385-3.17,20.363,20.363,0,0,1-.992-5.645c-.02-.193-.039-.385-.058-.577-.031-.31-.061-.614-.092-.908l-.026-.1-.1-.025a7.741,7.741,0,0,1-5.684-3.323l-.076-.1-.074.051c-2.056,1.129-5.686,3.281-6.893,5.011-1.556,2.288-1.574,4.11-.051,5.415a17.273,17.273,0,0,0,2.245,1.479l.223.133C15.4,48.5,16.516,49.2,16.685,50.016a1.118,1.118,0,0,1-.15.807,7.24,7.24,0,0,0-.426.728l-.034.061c-.573,1.015-1.44,2.548-2.839,2.548a2.167,2.167,0,0,1-.675-.114,8.81,8.81,0,0,0-2.64-.5,2.67,2.67,0,0,0-1.61.421,2.347,2.347,0,0,0-.8,1.637v.125l.1.025a3.18,3.18,0,0,1,1.836,1.561.088.088,0,0,0,.021.065.039.039,0,0,0,.028.012l.029.025a5.57,5.57,0,0,0,1.885.151h.477c.6,0,1.14.027,1.484.05.264.015.539.03.764.03a1.287,1.287,0,0,0,1.274-.558c.237-.284.645-.889,1.118-1.589l.239-.353.048-.073c2.549-3.791,3.393-4.885,3.927-5.089.154-.027.25-.209.278-.378s-.024-.424-.4-.654a3.652,3.652,0,0,0-1.033-.352l-.1-.028c-1.095-.316-2.458-.709-3.045-1.785a2.614,2.614,0,0,1-.073-2.067c.7-2.2,4.523-2.979,6.736-3.245.029.435.081.811.128,1.13-1.561.191-5.247.811-5.783,2.471a1.4,1.4,0,0,0,.023,1.157c.363.7,1.612,1.036,2.438,1.259l.009,0a5.452,5.452,0,0,1,1.3.478,1.823,1.823,0,0,1,.931,1.759,1.578,1.578,0,0,1-.979,1.336l-.025.026a36.594,36.594,0,0,0-3.347,4.582l-.026.051-.274.4-.01.015c-.512.754-.916,1.349-1.175,1.646a2.391,2.391,0,0,1-2.158.99c-.255,0-.527-.016-.784-.033h-.124l-.279-.018c-.252-.017-.535-.037-.84-.037-.107,0-.213,0-.314.007-.285,0-.506,0-.7,0-1.722,0-2.32-.119-2.7-.863a1.786,1.786,0,0,0-1.481-1.032.567.567,0,0,1-.58-.58v-.049a3.72,3.72,0,0,1,1.283-3.149,3.851,3.851,0,0,1,2.273-.633,9.894,9.894,0,0,1,3.007.559.986.986,0,0,0,.3.049c.655,0,1.189-.739,1.889-2.017l.025-.049.063-.113c.108-.193.21-.375.315-.541l.051-.076-.051-.051a10.931,10.931,0,0,0-2.332-1.672l-.308-.19a17.662,17.662,0,0,1-2.64-1.74c-1.969-1.663-2.014-4.178-.125-6.9,1.41-2.074,5.444-4.39,7.114-5.29l.128-.074-.077-.1a17.572,17.572,0,0,1-.954-1.706l-.054-.108.317-.054.112-.02.061-.012a5.732,5.732,0,0,0,.671-.163c.929,1.84,2.954,4.984,6.083,5.364l.179.025-.025-.176a14.265,14.265,0,0,0-.806-2.771c-.151-.3-.5-.909-.58-1.006-.045-.069-.086-.139-.125-.206s-.1-.165-.153-.249a16.854,16.854,0,0,1-1.882-3.676l-.076-.227-.154.175a5.467,5.467,0,0,1-3.242,2.016,4.234,4.234,0,0,1-.8.073,13.277,13.277,0,0,1-4.508-1.214l-.17-.067a9.384,9.384,0,0,0-2.447-.78.548.548,0,0,0-.171.023,3.221,3.221,0,0,1-.953.151,2.446,2.446,0,0,1-1.21-.3L6.3,29.265l-.051.05A4.582,4.582,0,0,0,4.64,31.153c-.377.79-.77,1.112-1.357,1.112a2.478,2.478,0,0,1-.356-.029l-.011,0a1.622,1.622,0,0,0-.262-.027,1.464,1.464,0,0,0-.933.433.568.568,0,0,1-.36.131.61.61,0,0,1-.091-.007.507.507,0,0,1-.378-.275,8.852,8.852,0,0,1-.73-3.675v-.33l.275-.151a11.164,11.164,0,0,0,2.82-2.317,3.346,3.346,0,0,1,1.507-2.089,2.748,2.748,0,0,1,1.281-.3,3.966,3.966,0,0,1,1.132.179,9.33,9.33,0,0,0,2.641.3c.548,0,1.132-.026,1.737-.076L11.833,24l-.175-.2a5.6,5.6,0,0,0-1.392-.839l-.042-.02c-.155-.028-.295-.048-.408-.064-.09-.013-.167-.024-.222-.035a5.819,5.819,0,0,1-3.645-1.763L5.9,21.029l-.554.228-.228-.128c-.289-.161-1-.766-1.408-2.9a11.8,11.8,0,0,1,.207-3.807l.019-.122A9.949,9.949,0,0,0,4.16,12.09l-.025-.176-.173.1a1.238,1.238,0,0,1-.651.195,1.267,1.267,0,0,1-.406-.07,2.606,2.606,0,0,1-1.51-1.66L1.344,10.4a2.451,2.451,0,0,0-.832-.3h-.1A.489.489,0,0,1,.09,9.872a.476.476,0,0,1-.08-.378l.025-.1c.266-1.077,1.1-2.9,2.521-2.9a1.806,1.806,0,0,1,.423.052,6.44,6.44,0,0,0,.858.179h.023c1.512.3,3.394.678,3.824,2.089.074.238.147.536.231.881.058.236.123.5.2.782a19.124,19.124,0,0,0,1.46,4.634,9.088,9.088,0,0,0,.762,1.028c.037.044.067.078.088.106l.026.025H10.5c.994.237,3.408.763,5.433,1.057a9.269,9.269,0,0,0-1.309.955c-2.2-.375-4.452-.906-4.525-.932l-.08-.023-.008,0c-.13-.053-.436-.179-1.371-1.56a17.192,17.192,0,0,1-1.584-4.8L7,10.753c-.074-.271-.14-.534-.2-.766-.084-.336-.157-.624-.23-.845-.236-.78-1.865-1.082-2.944-1.282-.33-.056-.648-.134-.928-.2H2.576c-.521,0-.943.739-1.206,1.359l-.051.125.125.025a1.576,1.576,0,0,1,.957.807l.025.049c.223.525.4.88.832,1.035h.1l.025-.026a1.226,1.226,0,0,1,.748-.313,1.122,1.122,0,0,1,.862.512c.507.612.316,1.776.073,3.249a11.52,11.52,0,0,0-.223,3.528,5.7,5.7,0,0,0,.6,1.862l.076.076.327-.128a.6.6,0,0,1,.221-.043.543.543,0,0,1,.457.245c.006,0,.026.023.066.069a4.311,4.311,0,0,0,.763.713,4.635,4.635,0,0,0,2.364.906,7.38,7.38,0,0,1,2.567.8A3.453,3.453,0,0,1,13.542,23.7l.025.074.1-.023a24.54,24.54,0,0,0,3.372-.807l.049-.025.025-.026c1.048-1.708,3.241-2.758,5.563-3.869l.223-.107.1-.026c.368-.184.739-.365,1.133-.556s.818-.4,1.232-.6c3.22-1.647,6.759-5.047,7.293-8.36A5.2,5.2,0,0,0,31.9,5.717l-.323-.5.074.58a4.2,4.2,0,0,1-.477,2.9l-.025.048v.026a6.176,6.176,0,0,1-.125,1.512c-.408,1.756-2.136,3.3-5.283,4.711l-.937.42-.019.008q-.949.425-1.787.8c-5.012,2.192-6.887,3.012-7.594,6.043-.4.126-.815.226-1.235.327A6.74,6.74,0,0,1,18.045,17.3l.074-.051-.023-.1a5.969,5.969,0,0,0-.212-.709l-.015-.044a5.083,5.083,0,0,1-.3-1.083v-.051l-.076-.051A4.444,4.444,0,0,1,15.5,13l1.056-.4a3,3,0,0,0,1.987,1.762.943.943,0,0,0,.164.014c.787,0,1.638-.964,2.321-1.739l.056-.063.184-.207a4.751,4.751,0,0,1,.971-.928.655.655,0,0,1,.385-.126,1.8,1.8,0,0,1,1.077.556,1.079,1.079,0,0,1,.4.907,1.175,1.175,0,0,1-.327.8,9.549,9.549,0,0,0-1-1.006l-.077-.051-.073.077a5.47,5.47,0,0,0-.482.505c-.065.074-.132.149-.2.225l-.075.086c-.728.826-1.725,1.957-2.941,2.106h-.151l.049.15c.023.055.04.11.057.163a1.326,1.326,0,0,0,.071.19c.021.072.046.144.071.219.037.107.074.217.1.335l.051.125.125-.051c.68-.349,1.455-.691,2.276-1.054.311-.137.633-.28.966-.429l.623-.274.01,0c.634-.278,1.352-.593,2.086-.933,2.761-1.258,4.327-2.58,4.653-3.929.738-3.257-2.6-5.157-2.742-5.236a1.1,1.1,0,0,1,1.658-.228A7.3,7.3,0,0,1,30.316,6.3l.279.452-.051-.528a6.237,6.237,0,0,0-.781-2.542,4.673,4.673,0,0,0-2.79-2.493l-.1-.025-.076.228c-.267.7-.688,1.867-.979,2.717a.6.6,0,0,1-.553.4l-.064.007a28.083,28.083,0,0,0-3.712.6c-2.407.693-3.034,1.165-3.194,1.384l-.025.049.025.077a1.062,1.062,0,0,0,.158.251l.021.028.1.15,5.834-1.409a1.269,1.269,0,0,1-.979,1.409L21.44,7.53l-.076.025-.026.077a.672.672,0,0,1-.014.119.507.507,0,0,0-.011.083v.173l.15-.023c.027-.009.053-.014.081-.02a.623.623,0,0,0,.172-.057l.679-.2a1.191,1.191,0,0,1,.346-.052,1.4,1.4,0,0,1,.611.151,1.3,1.3,0,0,1,.553.657c-.2.051-.7.2-1.862.554a2.164,2.164,0,0,1-.666.108,1.844,1.844,0,0,1-.189-.009,1.135,1.135,0,0,1-.7-.327,1.329,1.329,0,0,1-.3-.8v-.15l-1.734.427a6.338,6.338,0,0,0-2.742,1.787.81.81,0,0,0-.051.731l.051.125.128-.074a.609.609,0,0,1,.25-.053.6.6,0,0,1,.527.3l.253.528a4.459,4.459,0,0,1-1.236.529l-.323.1-.23-.278A2.121,2.121,0,0,1,14.752,9.4a6.663,6.663,0,0,1,2.561-1.916l.13-.049L17.366,7.3a1.326,1.326,0,0,1-.179-1.131c.278-.808,1.437-1.436,4-2.166h.026a26.035,26.035,0,0,1,3.549-.6h.074l.051-.077c.215-.634.481-1.379.7-1.977.081-.228.153-.429.21-.59.1-.221.148-.372.15-.378a.533.533,0,0,1,.5-.378h.15a4.5,4.5,0,0,1,3.293,1.84l.278.124a6.875,6.875,0,0,1,1.36.654A8.894,8.894,0,0,1,36.1,8.312,15.785,15.785,0,0,1,35,19.341l-.077.151a.56.56,0,0,0-.058.1l-.016.029c-.519.987-3.113,6.114-3.267,10.1a4.708,4.708,0,0,0,1.031,3.553,2.794,2.794,0,0,0,2.061.753H34.9c2.984-.152,8.669-1.754,11.392-4.708,2.458-2.685,2.1-6.383-.905-9.42l-.179-.178c-.375-.373-.763-.759-1.152-1.107l-.228-.224-.08-.077c-2.456-2.383-4.776-4.634-4.976-7.152-.007-.054-.723-5.388,1.587-7.43a2.708,2.708,0,0,1,1.784-.755,2.294,2.294,0,0,1,.981.226c1.525.727,2.413,2.893,2.362,4.483a7,7,0,0,1-.5,2.468l-.1.253.253-.074a3.136,3.136,0,0,0,1.657-1.01,2.754,2.754,0,0,0,.327-2.592,2.549,2.549,0,0,0-.426-.833,2.078,2.078,0,0,1-.477-1.634A3.1,3.1,0,0,1,48.2,6.348a3.906,3.906,0,0,1-.528,3.7A4.682,4.682,0,0,1,44.084,11.6c-.134,0-.232-.005-.279-.008h-.032l-.752-.1a.167.167,0,0,1-.128-.1.164.164,0,0,1,.022-.18l.506-.576a5.173,5.173,0,0,0,.931-2.971,4.231,4.231,0,0,0-1.709-3.425,1.2,1.2,0,0,0-.495-.111,1.606,1.606,0,0,0-1.041.464C39.6,5.918,39.724,9.691,39.9,11.032l.026.026c.148,2.088,2.317,4.187,4.614,6.408l.09.087c.506.48,1.048,1.023,1.559,1.537,3.45,3.458,3.823,7.88.928,11-3.01,3.242-8.93,4.912-12.173,5.063a1.2,1.2,0,0,1-.3.025A3.852,3.852,0,0,1,31.8,34.075a5.813,5.813,0,0,1-1.382-4.406,20.892,20.892,0,0,1,1.357-5.97l.175-.455-.374.329A25.592,25.592,0,0,1,26.016,27.1l-.1.051c-.636.316-1.131.58-1.558.83a1.286,1.286,0,0,1-.076-.856,1.33,1.33,0,0,1,.626-.756l.58-.3c2.4-1.2,5.685-2.846,8.048-6.5.1-.133.178-.268.264-.41l.088-.145.1-.176A14.763,14.763,0,0,0,35,8.639a3.585,3.585,0,0,0-.121-.393c-.035-.1-.071-.2-.1-.313l-.129.051-.128.023a17.066,17.066,0,0,1-.224,6.2A9.431,9.431,0,0,1,31.255,19.2a21.826,21.826,0,0,1-5.642,3.368,6.966,6.966,0,0,0-4.474,6.171c-.026.666.892,2.232,1.833,3.778l.051.1c.169.267.313.505.477.782l.205.378c.188.33,1.141,2.19,1.455,6.422.352,4.61,1,7.08,3.546,7.783a14.7,14.7,0,0,0,3.82.374c1.764.051,2.845.135,2.845,1.16-.036,1.076-.381,4.1-1.533,5.137a2.462,2.462,0,0,1-1.78.8,10.283,10.283,0,0,1-2.166-.388l-.032-.008h-.022a1.481,1.481,0,0,0-.309-.034,1.353,1.353,0,0,0-.974.438,3.609,3.609,0,0,0-.855,2.518l.023.1.077.025a2.9,2.9,0,0,1,2.14,1.535.471.471,0,0,0,.173.2.787.787,0,0,0,.28.036,6.637,6.637,0,0,0,.754-.062c.226-.02.514-.045.88-.074.145-.012.291-.018.432-.025s.3-.013.447-.027h.15l.127-.007c1.364-.073,2.652-.143,2.993-.926.17-.387.477-1.291.833-2.337l.044-.13c1.5-4.537,2.312-6.621,3.12-6.976h.074v-.074a.948.948,0,0,0-.074-.682,2.861,2.861,0,0,0-1.357-1.587,2.726,2.726,0,0,0-.983-.119c-.226,0-.466.008-.7.016h-.031c-.243.011-.545.025-.838.025a2.933,2.933,0,0,1-2.3-.752,2.3,2.3,0,0,1-.378-1.99c.123-.743.249-1.389.378-2.041a17.5,17.5,0,0,0,.527-5.213,1.226,1.226,0,0,1,.806.329,1.094,1.094,0,0,1,.374.9,23.88,23.88,0,0,1-.579,4.207l-.026.1c-.1.483-.182.957-.277,1.506v.006l-.07.4a1.24,1.24,0,0,0,.124,1.057c.265.3.981.34,1.575.34.218,0,.438-.006.662-.012.276-.018.57-.034.856-.034a3.455,3.455,0,0,1,1.336.209,3.74,3.74,0,0,1,2.135,3.2,1.346,1.346,0,0,1-.73,1.259l-.048.025c-.539.488-1.57,3.479-2.493,6.245l-.111.335c-.341,1.032-.61,1.847-.792,2.235-.654,1.455-2.412,1.534-4.113,1.611h-.063c-.265.022-.61.048-.931.048-.193.015-.373.039-.547.062-.119.016-.23.03-.333.041C30.976,60.995,30.659,61.019,30.368,61.019ZM6.049,24.768a1.611,1.611,0,0,0-.731.165,2.262,2.262,0,0,0-.953,1.41c-.184.62-1.275,1.611-3,2.72l-.051.051v.074a10.245,10.245,0,0,0,.253,1.99l.048.15.128-.073a2.236,2.236,0,0,1,.908-.2,2.411,2.411,0,0,1,.474.051.293.293,0,0,1,.129.025h.05l.049-.048a1.969,1.969,0,0,0,.249-.429,5.741,5.741,0,0,1,2.516-2.593l.025-.025a.631.631,0,0,1,.2-.034.519.519,0,0,1,.427.211,1.067,1.067,0,0,0,.753.239,2.275,2.275,0,0,0,.68-.115,1.613,1.613,0,0,1,.455-.059A9.106,9.106,0,0,1,11.5,29.1l.1.04a12.715,12.715,0,0,0,4.2,1.189,2.988,2.988,0,0,0,.608-.058c1.945-.4,2.985-1.805,3.948-3.8v.074l.253-.581a8.389,8.389,0,0,1,4.55-4.432c4.283-1.941,7.119-3.886,8.023-7.581a17.819,17.819,0,0,0,.327-2.618l.054-.731-.278.679c-1.406,3.414-4.863,6.15-7.4,7.456-.613.324-1.221.614-1.809.895-.236.112-.471.225-.707.339-3.389,1.581-5.48,2.662-5.76,4.857a1.466,1.466,0,0,1-1.129,1.237,6.468,6.468,0,0,1,.026-1.586l.048-.179-.2.051a26.845,26.845,0,0,1-6.575.872,10.953,10.953,0,0,1-2.935-.319A2.639,2.639,0,0,0,6.049,24.768Z" transform="translate(54.269 44.811)" fill="#fefefe"/>
  </g>
</svg>
