<svg width="228" height="33" viewBox="0 0 228 33" fill="none" xmlns="http://www.w3.org/2000/svg">
<path fill-rule="evenodd" clip-rule="evenodd" d="M9.86668 0.666504H0.93335V25.8665H9.86668C17.8 25.8665 22.8667 21.1332 22.8667 13.1998C22.8667 5.2665 17.8 0.666504 9.86668 0.666504ZM16.5333 13.1998C16.5333 18.0665 13.9333 20.5998 9.66668 20.5998H7.13335V5.93317H9.66668C13.8 5.93317 16.5333 8.39984 16.5333 13.1998Z" fill="white"/>
<path fill-rule="evenodd" clip-rule="evenodd" d="M43 16.133C43 11.0663 39.9333 7.33301 34.6 7.33301C28.7333 7.33301 25.1333 11.4663 25.2 16.8663C25.2 21.733 28.7333 26.3997 35.2 26.3997C38.0022 26.3934 40.7228 25.4552 42.9333 23.733L40.6667 19.4663C39.2208 20.5684 37.481 21.2179 35.6667 21.333C33.6289 21.4601 31.8089 20.0667 31.4 18.0663H42.8667C42.9443 17.4246 42.9888 16.7793 43 16.133ZM36.3303 12.6131C36.8111 13.1319 37.0538 13.8277 37 14.533H31.5333C31.8667 13.0663 32.7333 11.7997 34.4667 11.7997C35.174 11.7995 35.8494 12.0943 36.3303 12.6131Z" fill="white"/>
<path d="M43.9333 7.7334H50.3333L53.1333 17.4001C53.4667 18.5334 53.8 20.5334 53.8 20.5334H53.8667C53.8667 20.5334 54.2 18.6001 54.5333 17.4001L57.3333 7.7334H63.8L57.6 25.9334H50.1333L43.9333 7.7334Z" fill="white"/>
<path fill-rule="evenodd" clip-rule="evenodd" d="M82.4667 16.133C82.4667 11.0663 79.4 7.33301 74.0667 7.33301C68.2 7.33301 64.6 11.4663 64.6667 16.8663C64.6667 21.733 68.2 26.3997 74.6667 26.3997C77.4689 26.3934 80.1895 25.4552 82.4 23.733L80.1333 19.4663C78.6874 20.5684 76.9477 21.2179 75.1333 21.333C73.0956 21.4601 71.2756 20.0667 70.8667 18.0663H82.3333C82.4109 17.4246 82.4554 16.7793 82.4667 16.133ZM75.797 12.6131C76.2778 13.1319 76.5205 13.8277 76.4667 14.533H71C71.3333 13.0663 72.2 11.7997 73.9333 11.7997C74.6407 11.7995 75.3161 12.0943 75.797 12.6131Z" fill="white"/>
<path d="M85.6 0.666504H91.7334V18.3998C91.7334 20.1332 92.0667 20.7332 93.4 20.7332C93.6463 20.7412 93.8926 20.7189 94.1334 20.6665V25.9998C93.5156 26.0928 92.8914 26.1374 92.2667 26.1332C89 26.1332 85.5334 25.3332 85.5334 19.2665V0.666504H85.6Z" fill="white"/>
<path fill-rule="evenodd" clip-rule="evenodd" d="M116.667 16.8663C116.667 11.1997 112.067 7.33301 106.333 7.33301C100.6 7.33301 96.0667 11.133 96 16.8663C96 22.533 100.6 26.333 106.333 26.333C112.067 26.333 116.667 22.533 116.667 16.8663ZM109.353 19.9613C108.57 20.7948 107.477 21.2671 106.333 21.2663C105.19 21.2671 104.097 20.7948 103.314 19.9613C102.531 19.1279 102.128 18.0076 102.2 16.8663C102.2 14.133 104.133 12.3997 106.333 12.3997C108.533 12.3997 110.467 14.133 110.467 16.8663C110.539 18.0076 110.136 19.1279 109.353 19.9613Z" fill="white"/>
<path fill-rule="evenodd" clip-rule="evenodd" d="M125.267 7.73331H119.8V32.8666H125.933V26.0666C125.933 25.2 125.867 24.5333 125.867 24.5333H125.933C127.203 25.6539 128.84 26.2705 130.533 26.2666C135.333 26.2666 139 22.5333 139 16.8C139 11.1333 135.733 7.26664 130.8 7.26664C128.661 7.19866 126.613 8.13616 125.267 9.79997H125.2C125.243 9.42371 125.265 9.04536 125.267 8.66664V7.73331ZM132.733 16.9333C132.733 19.7333 131.133 21.2666 129.2 21.2666C126.8 21.2666 125.667 19.1333 125.667 16.9333C125.667 13.8 127.333 12.4666 129.2 12.4666C131.267 12.4666 132.733 14.2 132.733 16.9333Z" fill="white"/>
<path d="M142.067 7.73297H147.933V9.33297C147.932 9.71169 147.91 10.09 147.867 10.4663H147.933C149.08 8.56764 151.116 7.38592 153.333 7.33297C155.495 7.20449 157.511 8.42488 158.4 10.3996H158.467C159.769 8.47588 161.943 7.32626 164.267 7.33297C167.6 7.33297 170.133 9.13297 170.133 14.133V25.933H164V15.133C164 13.7996 163.733 12.8663 162.6 12.8663C159.933 12.8663 159.133 15.533 159.133 18.1996V25.8663H153V15.133C153 13.7996 152.733 12.8663 151.6 12.8663C148.8 12.8663 148.133 15.733 148.133 18.1996V25.8663H142V7.73297H142.067Z" fill="white"/>
<path fill-rule="evenodd" clip-rule="evenodd" d="M190.933 16.133C190.933 11.0663 187.867 7.33301 182.533 7.33301C176.667 7.33301 173.067 11.4663 173.133 16.8663C173.133 21.733 176.667 26.3997 183.133 26.3997C185.936 26.3934 188.656 25.4552 190.867 23.733L188.6 19.4663C187.154 20.5684 185.414 21.2179 183.6 21.333C181.562 21.4601 179.742 20.0667 179.333 18.0663H190.8C190.878 17.4246 190.922 16.7793 190.933 16.133ZM184.264 12.6131C184.744 13.1319 184.987 13.8277 184.933 14.533H179.467C179.8 13.0663 180.667 11.7997 182.4 11.7997C183.107 11.7995 183.783 12.0943 184.264 12.6131Z" fill="white"/>
<path d="M194.133 7.73309H200V9.33309C199.999 9.7118 199.976 10.0902 199.933 10.4664H200C201.22 8.44538 203.441 7.24565 205.8 7.33309C209.467 7.33309 212.333 8.99975 212.333 14.1331V25.9331H206.2V15.2664C206.2 13.5998 205.533 12.8664 204.2 12.8664C201.467 12.8664 200.267 15.1331 200.267 17.7331V25.9331H194.133V7.73309H194.133Z" fill="white"/>
<path d="M217.267 12.8H214.933V8.0667H217.467V2.8667H223.4V8.0667H227.2V12.8H223.4V18.4C223.4 20.4667 225.467 20.7334 226.667 20.7334C226.935 20.737 227.203 20.7146 227.467 20.6667V26C226.916 26.0887 226.358 26.1333 225.8 26.1334C222.933 26.1334 217.267 25.3334 217.267 19.2667V12.8Z" fill="white"/>
</svg>
