<svg id="ED-Logo" xmlns="http://www.w3.org/2000/svg" width="320" height="27" viewBox="0 0 320 27">
  <rect id="ED-Logo_Light_background" data-name="ED-Logo Light background" width="320" height="27" fill="none"/>
  <g id="ED-Logo-2" data-name="ED-Logo" transform="translate(69.547 0.529)">
    <path id="Path_1384" d="M0,20.012V0H7.147c6.347,0,10.4,3.653,10.4,9.953s-4.053,10.059-10.4,10.059Z" transform="translate(0 0)" fill="#fff"/>
    <path id="Path_1385" d="M0,7.571A7.136,7.136,0,0,1,7.52,0c4.267,0,6.72,2.965,6.72,6.988a14.994,14.994,0,0,1-.107,1.535H4.961a3.271,3.271,0,0,0,3.414,2.594,7.4,7.4,0,0,0,4-1.483l1.814,3.388A10.149,10.149,0,0,1,8,15.141C2.827,15.141,0,11.435,0,7.571Z" transform="translate(19.413 5.294)" fill="#fff"/>
    <path id="Path_1386" d="M0,0H5.12L7.36,7.676c.267.9.533,2.488.533,2.488h.053s.267-1.535.533-2.488L10.72,0h5.173l-4.96,14.453H4.96Z" transform="translate(34.4 5.612)" fill="#fff"/>
    <path id="Path_1387" d="M0,7.571A7.136,7.136,0,0,1,7.52,0c4.267,0,6.72,2.965,6.72,6.988a14.994,14.994,0,0,1-.107,1.535H4.961a3.271,3.271,0,0,0,3.414,2.594,7.4,7.4,0,0,0,4-1.483l1.814,3.388A10.149,10.149,0,0,1,8,15.141C2.827,15.141,0,11.435,0,7.571Z" transform="translate(50.986 5.294)" fill="#fff"/>
    <path id="Path_1388" d="M.053,0H4.96V14.082c0,1.376.267,1.853,1.333,1.853a2.409,2.409,0,0,0,.587-.053v4.235a9.67,9.67,0,0,1-1.493.106C2.773,20.224,0,19.588,0,14.771V0Z" transform="translate(67.68)" fill="#fff"/>
    <path id="Path_1389" d="M0,7.571C.053,3.017,3.68,0,8.266,0s8.267,3.07,8.267,7.571-3.68,7.517-8.267,7.517S0,12.071,0,7.571Z" transform="translate(76.053 5.294)" fill="#fff"/>
    <path id="Path_1390" d="M.053,20.332V.373H4.427v.741a8.007,8.007,0,0,1-.053.9h.053A5.486,5.486,0,0,1,8.853,0c3.947,0,6.56,3.07,6.56,7.57,0,4.553-2.933,7.518-6.773,7.518a5.568,5.568,0,0,1-3.68-1.377H4.907s.053.53.053,1.218v5.4ZM0,.373H.053Z" transform="translate(95.04 5.239)" fill="#fff"/>
    <path id="Path_1391" d="M.053.325H4.747V1.6a8.115,8.115,0,0,1-.053.9h.053A5.2,5.2,0,0,1,9.067.007,4.177,4.177,0,0,1,13.12,2.443h.053A5.6,5.6,0,0,1,17.813.007c2.667,0,4.693,1.429,4.693,5.4v9.371H17.6V6.2c0-1.059-.213-1.8-1.12-1.8-2.133,0-2.773,2.118-2.773,4.235v6.088H8.8V6.2c0-1.059-.213-1.8-1.12-1.8-2.24,0-2.773,2.276-2.773,4.235v6.088H0V.325Z" transform="translate(112.853 5.287)" fill="#fff"/>
    <path id="Path_1392" d="M0,7.571A7.136,7.136,0,0,1,7.52,0c4.267,0,6.72,2.965,6.72,6.988a14.994,14.994,0,0,1-.107,1.535H4.961a3.271,3.271,0,0,0,3.414,2.594,7.4,7.4,0,0,0,4-1.483l1.814,3.388A10.149,10.149,0,0,1,8,15.141C2.827,15.141,0,11.435,0,7.571Z" transform="translate(137.759 5.294)" fill="#fff"/>
    <path id="Path_1393" d="M0,.321H4.693V1.592a8.117,8.117,0,0,1-.053.9h.053A5.2,5.2,0,0,1,9.333,0c2.933,0,5.227,1.324,5.227,5.4v9.371H9.653V6.3c0-1.324-.533-1.906-1.6-1.906-2.187,0-3.147,1.8-3.147,3.865v6.512H0V.321Z" transform="translate(154.56 5.291)" fill="#fff"/>
    <path id="Path_1394" d="M1.867,7.888H0V4.129H2.027V0H6.773V4.129h3.04V7.888H6.773v4.447c0,1.641,1.653,1.853,2.613,1.853a3.355,3.355,0,0,0,.64-.053v4.235a8.457,8.457,0,0,1-1.333.106c-2.293,0-6.827-.635-6.827-5.453Z" transform="translate(171.2 1.747)" fill="#fff"/>
  </g>
</svg>
