<svg xmlns="http://www.w3.org/2000/svg" xmlns:xlink="http://www.w3.org/1999/xlink" width="199.993" height="73.572" viewBox="0 0 199.993 73.572">
  <defs>
    <clipPath id="clip-path">
      <path id="Clip_7" data-name="Clip 7" d="M0,0H4.561V4.523H0Z" transform="translate(0.407 0.774)" fill="none"/>
    </clipPath>
    <clipPath id="clip-path-2">
      <path id="Clip_18" data-name="Clip 18" d="M0,0H20.378V13.433H0Z" transform="translate(0.683 0.383)" fill="none"/>
    </clipPath>
    <clipPath id="clip-path-3">
      <path id="Clip_21" data-name="Clip 21" d="M0,73.572H199.993V0H0Z" transform="translate(0 0.441)" fill="none"/>
    </clipPath>
  </defs>
  <g id="Podolgrad_Logo" data-name="Podolgrad Logo" transform="translate(0 -0.986)">
    <path id="Fill_1" data-name="Fill 1" d="M.6,1.193l13.1,12.994.6-.6L.6,0,0,.6l.6.6Z" transform="translate(100.728 2.014)" fill="#fefefe"/>
    <g id="Group_34" data-name="Group 34" transform="translate(0 0.545)">
      <path id="Fill_2" data-name="Fill 2" d="M15.341,29.832h0l-.6-.6,13.1-12.994-.735-.728-1.069,1.059-5.747,5.7v.059H20.23L13.67,28.84,0,15.214l.6-.6L13.672,27.644l.767-.76L9.611,22.1l-8.575-8.5L14.74,0l.6.6-13.1,13,.734.728,7.156-7.1.6.595L4.612,13.889,3.576,14.916,10.2,21.489h.66V20.7H9.878v-.8H9.86V10.724l.253-.112a12.153,12.153,0,0,1,3.865-.985L12.146,7.811l-1.3-1.294L10.829,6.5l4.234-4.2,1.926,1.9,2.318,2.3-.04.041L16.927,8.86h.006l-.773.767a12.155,12.155,0,0,1,3.865.985l.251.112v9.128h.014V20.7H19.2v.793h.675l6.628-6.574L19.36,7.83l.6-.6,7.445,7.384.3.3,1.337,1.326-13.7,13.59Zm-4.287-7.5L14,25.259l1.036,1.027,3.986-3.953Zm.661-1.637v.793h6.636V20.7Zm-1-4.732v3.888h8.713V15.964Zm7.455-4.275V15.12h1.258V11.689Zm-5.344,0h0V15.12h4.493V11.689H12.822Zm-2.11,0V15.12h1.259V11.689Zm4.347-1.265a11.559,11.559,0,0,0-3.092.421h6.2a11.559,11.559,0,0,0-3.092-.421h-.02Zm-.018-6.878-3,2.971,3,2.974a.031.031,0,0,0,.011.007l.014,0a.033.033,0,0,0,.014,0l.007,0,0,0,2.971-2.947L16.077,4.573,15.041,3.546Z" transform="translate(84.956 0.442)" fill="#fefefe"/>
      <path id="Fill_4" data-name="Fill 4" d="M1.487,2.948h0a1.486,1.486,0,0,1-1.365-.9A1.465,1.465,0,0,1,.254.651a1.494,1.494,0,0,1,2.065-.4A1.468,1.468,0,0,1,2.856.9a1.464,1.464,0,0,1-.138,1.4,1.488,1.488,0,0,1-1.231.649Zm0-2.105A.636.636,0,0,0,.9,1.229a.623.623,0,0,0,.058.6.634.634,0,0,0,.281.229A.637.637,0,0,0,1.841,2a.623.623,0,0,0,.281-.523.614.614,0,0,0-.108-.351.637.637,0,0,0-.28-.23A.666.666,0,0,0,1.487.843Z" transform="translate(98.538 16.869)" fill="#fefefe"/>
      <g id="Group_8" data-name="Group 8" transform="translate(195.025 40.461)">
        <path id="Clip_7-2" data-name="Clip 7" d="M0,0H4.561V4.523H0Z" transform="translate(0.407 0.774)" fill="none"/>
        <g id="Group_8-2" data-name="Group 8" clip-path="url(#clip-path)">
          <path id="Fill_6" data-name="Fill 6" d="M2.281,0,0,2.262,2.281,4.523,4.561,2.262Z" transform="translate(0.407 0.774)" fill="#fefefe"/>
        </g>
      </g>
      <path id="Fill_9" data-name="Fill 9" d="M0,2.262,2.281,4.524,4.56,2.262,2.281,0Z" transform="translate(0 41.235)" fill="#fefefe"/>
      <path id="Fill_11" data-name="Fill 11" d="M7.1,7.383l.239-.255.074-.146.165-.2a12.609,12.609,0,0,0,.845-.947Q8.9,5.253,9.408,4.6t1-1.319q.5-.665.891-1.211t.652-.9a2.6,2.6,0,0,1,.294-.374.914.914,0,0,1,.046-.145,1.69,1.69,0,0,0,.074-.273A.8.8,0,0,0,12.373.11q-.018-.118-.128-.1a.263.263,0,0,0-.267.073c-.067.073-.131.14-.192.2l-.258.291q-.33.4-.679.847t-.661.828q-.57.656-1.12,1.42-.294.383-.752.911L7.38,5.654Q6.9,6.2,6.472,6.736a7.561,7.561,0,0,0-.671.956.881.881,0,0,0-.1.118c-.031.042-.059.082-.083.118-.147.193-.292.376-.432.546a5.091,5.091,0,0,0-.394.547q-.331.4-.643.809c-.209.273-.41.55-.606.829a1.969,1.969,0,0,0-.257.31,2.036,2.036,0,0,1-.258.309.283.283,0,0,1-.092.174.4.4,0,0,0-.109.154,7.738,7.738,0,0,0-.579.765,5.426,5.426,0,0,1-.6.747.812.812,0,0,1-.119.154,1.943,1.943,0,0,0-.138.155c-.024.037-.058.085-.1.146a.355.355,0,0,1-.156.127,12.6,12.6,0,0,1,.2-1.439q.146-.746.239-1.384.091-.836.257-1.748t.312-1.893a.687.687,0,0,0,.1-.337.979.979,0,0,1,.083-.355c.012-.024.012-.042,0-.054s-.012-.031,0-.054a1.969,1.969,0,0,1,.056-.282c.024-.091.049-.179.074-.264s.024-.164.036-.236a.933.933,0,0,1,.056-.2c.049-.243.089-.485.118-.727a6.239,6.239,0,0,1,.12-.674c.024-.11.052-.219.083-.328s.064-.212.1-.31c.061-.121.116-.237.165-.345a.472.472,0,0,0-.018-.383,1.284,1.284,0,0,0-.33-.291,3.334,3.334,0,0,0-.4-.2,1.321,1.321,0,0,0-.79.31q-.257,1.255-.441,2.53T.789,7.565C.74,7.881.695,8.2.652,8.538S.557,9.2.5,9.513q-.164,1.092-.285,2.22T0,13.974a.866.866,0,0,0,.267.655.921.921,0,0,0,.743.218.522.522,0,0,0,.294-.009.781.781,0,0,0,.239-.136,1.607,1.607,0,0,0,.2-.2l.165-.2c.233-.291.474-.607.725-.947s.487-.667.706-.983a.11.11,0,0,1,.01-.054.155.155,0,0,0,.008-.055c.221-.278.423-.528.606-.746s.38-.467.588-.746A.552.552,0,0,1,4.8,10.55a.4.4,0,0,0,.211-.255c.061-.073.119-.148.174-.227s.113-.161.175-.247v-.11a.374.374,0,0,0,.127-.182.355.355,0,0,1,.147-.182A9.032,9.032,0,0,1,6.242,8.5q.33-.41.643-.81c.036-.061.07-.113.1-.155s.071-.094.119-.155" transform="translate(80.217 53.852)" fill="#fefefe"/>
      <path id="Fill_13" data-name="Fill 13" d="M.984.073A.2.2,0,0,0,.745.018.975.975,0,0,0,.452.2,1.842,1.842,0,0,0,.195.474C.121.571.09.638.1.674.09.723.071.783.048.856A.906.906,0,0,0,0,1.075a.378.378,0,0,0,.028.19.221.221,0,0,0,.146.118c.049.025.083.031.1.019a.115.115,0,0,1,.064-.019.389.389,0,0,1,.175-.118.252.252,0,0,0,.156-.136q.036,0,.036-.009c0-.006.012,0,.037.009A.151.151,0,0,1,.81,1.02C.853.983.867.947.856.911.9.935.925.923.92.875S.929.814.966.838C.966.814.972.8.984.793S1,.771.984.747A.384.384,0,0,0,1.177.464.384.384,0,0,0,1.094.11.093.093,0,0,1,1.048.092.108.108,0,0,0,.984.073" transform="translate(89.064 59.341)" fill="#fefefe"/>
      <path id="Fill_15" data-name="Fill 15" d="M14.144,5.116l.055-.183a13.37,13.37,0,0,1,1.479-.255q.779-.09,1.441-.182l.018-.037a.233.233,0,0,1,.128-.037.338.338,0,0,0,.165-.054.147.147,0,0,0,.019-.092.145.145,0,0,1,.037-.109c-.013,0-.019.012-.019.037a.016.016,0,0,1-.018.018.617.617,0,0,0-.037-.064c-.013-.018-.006-.038.018-.063a1.117,1.117,0,0,0-.449-.082c-.141.006-.28.015-.414.028-.208.025-.351.039-.432.045a1.025,1.025,0,0,1-.192,0,.937.937,0,0,0-.183,0c-.074.006-.209.021-.4.045-.134.025-.275.045-.422.063a3.623,3.623,0,0,0-.44.082h-.019c.122-.266.248-.528.376-.783s.254-.516.376-.784a7.09,7.09,0,0,0,.423-.873c.121-.3.251-.6.385-.892a.641.641,0,0,0,.046-.164.471.471,0,0,1,.047-.146,1.141,1.141,0,0,0,.118-.173.158.158,0,0,0,.01-.155.352.352,0,0,0-.221-.227A.884.884,0,0,0,15.668,0a1.034,1.034,0,0,0-.348.073A.543.543,0,0,0,15.081.2.34.34,0,0,0,15,.364a1.585,1.585,0,0,1-.065.2.734.734,0,0,1-.092.209.471.471,0,0,0-.074.173.126.126,0,0,0-.037.092.192.192,0,0,1-.037.109,1.057,1.057,0,0,1-.128.273q-.091.237-.193.483a4.732,4.732,0,0,1-.229.482q-.257.565-.487,1.111c-.153.364-.3.735-.431,1.11a1.184,1.184,0,0,1-.175.055l-.174.037a2.035,2.035,0,0,0-.257.036c-.135.026-.282.055-.441.092s-.315.069-.469.1-.272.058-.357.082l-.221.091c-.024.049-.052.1-.083.164s-.058.122-.083.183a1.1,1.1,0,0,0-.037.255.176.176,0,0,0,.093.164c.012.025.04.035.083.028s.095-.015.156-.028A.33.33,0,0,0,11.4,5.79a1.311,1.311,0,0,1,.119-.092c.086-.024.174-.051.266-.082l.248-.082a4.084,4.084,0,0,1,.523-.209,3.161,3.161,0,0,1,.45-.1q-.093.255-.174.519c-.056.176-.113.354-.175.537q-.2.691-.44,1.365t-.423,1.385c0,.022-.009.046-.014.068a1,1,0,0,1-.16.113c-.092.049-.186.1-.285.164a.462.462,0,0,0-.2.037,1.131,1.131,0,0,0-.258.155c-.086.067-.172.136-.257.209-.135.073-.214.118-.239.136a.4.4,0,0,1-.055.037c-.013.007-.035.016-.065.028s-.113.049-.248.11-.226.109-.311.146-.184.079-.295.126a2.264,2.264,0,0,1,.019-.474q.036-.327.1-.691T9.656,8.5c.043-.219.071-.377.083-.474.037-.134.077-.273.119-.418A1.123,1.123,0,0,0,9.9,7.192a.435.435,0,0,0-.229-.3.74.74,0,0,0-.4-.136,1.219,1.219,0,0,0-.514.164c-.171.1-.323.188-.459.273a5.616,5.616,0,0,0-1.028.764q-.44.419-.918.838a1.068,1.068,0,0,0-.2.173.36.36,0,0,1-.221.118c.074-.206.15-.394.23-.564s.156-.339.229-.509a.529.529,0,0,0,.037-.2.675.675,0,0,1,.038-.218c.061-.1.121-.2.183-.31a.421.421,0,0,0,0-.382.353.353,0,0,0-.285-.255.492.492,0,0,0-.45.073.387.387,0,0,0-.1.1.756.756,0,0,1-.083.1c-.012.06-.025.13-.037.209a2.038,2.038,0,0,1-.055.246,1.083,1.083,0,0,1-.11.2,1.043,1.043,0,0,0-.109.2c-.085.213-.18.412-.27.619a.969.969,0,0,0-.3.11l-.294.182a2.217,2.217,0,0,1-.267.127,2.772,2.772,0,0,1-.3.11q-.46.164-.918.382t-.835.392c-.251.115-.463.207-.634.273s-.275.082-.312.045-.036-.115,0-.237a2.647,2.647,0,0,1,.184-.427c.086-.164.177-.338.276-.519s.189-.358.276-.528a.059.059,0,0,0,.036-.055A.059.059,0,0,1,2.1,8.193c.013-.012.021-.015.028-.009s.015,0,.028-.009a.851.851,0,0,0,.055-.137.428.428,0,0,1,.055-.118.4.4,0,0,0,.074-.273.326.326,0,0,0,.028-.164c-.007-.047-.016-.114-.028-.2a.245.245,0,0,0-.083-.145.783.783,0,0,1-.119-.128A.125.125,0,0,1,2,7a.162.162,0,0,0-.156-.01.744.744,0,0,0-.276.11,6.592,6.592,0,0,0-.477.791q-.221.429-.423.847c-.037.1-.08.2-.128.31s-.1.213-.146.31a1.382,1.382,0,0,1-.1.273A2.8,2.8,0,0,0,.174,9.9c-.062.182-.109.345-.147.491a.9.9,0,0,0,0,.436.688.688,0,0,0,.358.264,1.764,1.764,0,0,0,.505.063.19.19,0,0,1,.073.009c.013.007.038-.009.074-.045q.128.055.478-.155c.233-.138.487-.3.762-.482s.538-.358.789-.528a2.91,2.91,0,0,1,.578-.328c.147-.074.3-.152.45-.238a2.2,2.2,0,0,0,.4-.272,2.122,2.122,0,0,0,.367-.209c.04-.029.074-.059.112-.089-.033.07-.061.147-.095.216a6.172,6.172,0,0,0-.459,1.375,2.579,2.579,0,0,0-.1.273.339.339,0,0,0,.2.473.465.465,0,0,0,.34.073,1.445,1.445,0,0,0,.569-.474q.385-.437,1.009-1.092A4.158,4.158,0,0,1,6.857,9.3q.219-.163.4-.328.312-.309.624-.564T8.526,7.9l.221-.183A.653.653,0,0,1,9,7.592c-.024.134-.055.267-.092.4a2.329,2.329,0,0,0-.074.455c-.012.073-.04.206-.083.4s-.086.4-.128.61-.083.413-.119.6a2.481,2.481,0,0,0-.055.373.85.85,0,0,0,.156.446q.155.246.357.209a2.528,2.528,0,0,0,.285-.018c.1-.012.218-.031.34-.054a1.86,1.86,0,0,0,.469-.246,4.541,4.541,0,0,1,.449-.282c.147-.1.242-.158.285-.183a.474.474,0,0,0,.093-.064.941.941,0,0,1,.083-.072c.036-.031.121-.1.257-.209a.638.638,0,0,0,.2-.128c.049-.048.109-.114.183-.2.027-.015.038-.035.064-.05-.05.222-.1.436-.146.669a10.15,10.15,0,0,0-.156,1.311.929.929,0,0,0,.018.182c.013.061.068.115.165.164h.019a.516.516,0,0,1,.174-.045.345.345,0,0,0,.156-.044c.062-.013.086-.028.074-.046s.012-.039.074-.063a.946.946,0,0,0,.018-.183.474.474,0,0,1,.037-.182l.11-.183A.56.56,0,0,0,12.235,11a.972.972,0,0,1,.019-.2l.036-.182a1.065,1.065,0,0,1,.056-.183.172.172,0,0,1,.046-.11.464.464,0,0,0,.064-.09,1.081,1.081,0,0,0,.1-.328.831.831,0,0,1,.119-.329,1.256,1.256,0,0,1,.11-.309,1.4,1.4,0,0,0,.109-.292q.276-.964.606-1.929t.643-1.93" transform="translate(87.12 54.444)" fill="#fefefe"/>
      <g id="Group_19" data-name="Group 19" transform="translate(99.502 60.197)">
        <path id="Clip_18-2" data-name="Clip 18" d="M0,0H20.378V13.433H0Z" transform="translate(0.683 0.383)" fill="none"/>
        <g id="Group_19-2" data-name="Group 19" clip-path="url(#clip-path-2)">
          <path id="Fill_17" data-name="Fill 17" d="M3.87,13.434a.892.892,0,0,1-.342-.07,1.2,1.2,0,0,1-.321-.337c-.064-.1-.09-.167-.08-.2a.023.023,0,0,1,.015-.014A4.231,4.231,0,0,1,3.6,10.832,11.2,11.2,0,0,1,4.886,8.784a19.937,19.937,0,0,1,1.725-1.93c.615-.6,1.214-1.165,1.781-1.667a3.268,3.268,0,0,0,.33-.281,2.632,2.632,0,0,1,.311-.265,2.016,2.016,0,0,0,.248-.136.58.58,0,0,0,.083-.065c.013,0,.038-.049.083-.164.036-.093.048-.144.038-.159a.011.011,0,0,0-.01,0l.057-.1.054-.093c.024-.043.045-.082.064-.118a.651.651,0,0,0,.045-.12c.011-.032.034-.1.075-.208.025-.063.047-.125.064-.183a.327.327,0,0,0-.009-.2c-.025,0-.048.035-.074.109H9.745c-.033,0-.05.006-.05.017l-.013.013-.059.06-.074.073a.278.278,0,0,0-.129.091,2.478,2.478,0,0,1-.339.283A2.238,2.238,0,0,0,8.76,4a1.053,1.053,0,0,1-.2.137c-.117.064-.216.116-.313.164s-.216.1-.321.145a1.236,1.236,0,0,1-.247.082.654.654,0,0,1-.211.019c-.117,0-.237-.006-.367-.019s-.227-.021-.333-.032l-.035,0a.406.406,0,0,1-.211-.056h.037A.117.117,0,0,1,6.5,4.387c-.013-.025-.043-.037-.092-.037A.559.559,0,0,1,6.318,4.1a1.37,1.37,0,0,1,0-.31A2.161,2.161,0,0,1,6.369,3.5L6.361,3.5a.319.319,0,0,1-.1.033.027.027,0,0,1-.012,0,2.168,2.168,0,0,0-.534.328,5.346,5.346,0,0,1-.485.365,2.163,2.163,0,0,1-.534.255,1,1,0,0,1-.309.046,1.563,1.563,0,0,1-.36-.046.162.162,0,0,1-.083-.028.53.53,0,0,0-.1-.045.511.511,0,0,1-.23-.173A1.67,1.67,0,0,1,3.5,4a1.761,1.761,0,0,1-.046-.355,2,2,0,0,1,.028-.428.065.065,0,0,0-.026-.007.021.021,0,0,0-.021.017c-.006.018-.015.027-.027.027a.494.494,0,0,0-.074.045c-.023.019-.054.039-.09.063l-.015.017c-.06.069-.111.129-.162.185a.588.588,0,0,1-.211.145.247.247,0,0,1-.1.11.467.467,0,0,0-.1.073.012.012,0,0,0-.011,0s0,.012,0,.023a.027.027,0,0,1,0,.023.012.012,0,0,1-.01,0c-.028.013-.064.029-.111.046a.214.214,0,0,0-.109.082,4.97,4.97,0,0,1-.9.491,1.655,1.655,0,0,1-.266.155.482.482,0,0,1-.2.05.391.391,0,0,1-.061,0H.827a.431.431,0,0,1-.156-.036c-.1-.012-.2-.021-.293-.027a.324.324,0,0,1-.239-.118C.005,4.5-.032,4.344.028,4.114.028,4.1.034,4.1.047,4.1s.018-.012.018-.037a.9.9,0,0,1,.12-.374A3.678,3.678,0,0,1,.4,3.368a3.511,3.511,0,0,1,.33-.473c.125-.149.243-.3.35-.454.105-.093.264-.238.458-.419.216-.2.438-.4.661-.591s.444-.374.644-.528a1.232,1.232,0,0,1,.4-.246A.942.942,0,0,0,3.563.427a.755.755,0,0,1,.375-.21c.013,0,.018,0,.018-.009S3.963.2,3.975.2a.483.483,0,0,1,.083.008l.018,0A.092.092,0,0,0,4.141.182.58.58,0,0,0,4.4.236a1.415,1.415,0,0,0,.166.174A.249.249,0,0,1,4.655.6a.123.123,0,0,1,.018.145.226.226,0,0,1-.11.127.148.148,0,0,1-.106.048l-.022,0-.03,0a.259.259,0,0,0-.118.03,1.168,1.168,0,0,0-.348.218l-.22.146-.037.037a.323.323,0,0,0-.119.026.208.208,0,0,0-.1.138.926.926,0,0,0-.293.136c-.094.064-.19.127-.294.192-.059.059-.114.111-.165.155s-.1.086-.166.136l-.138.121L2.231,2.4c-.114.1-.216.2-.311.291a1.165,1.165,0,0,0-.175.173.536.536,0,0,1-.212.155.157.157,0,0,1-.074.128v.036a.429.429,0,0,0-.174.156c-.037.057-.081.118-.138.191A.654.654,0,0,1,1,3.823.506.506,0,0,0,.873,4.1a.705.705,0,0,0,.293-.164c.423-.247.824-.507,1.193-.774.417-.3.8-.584,1.175-.866a2.06,2.06,0,0,1,.321-.236,1.056,1.056,0,0,0,.3-.292h.056V1.748a.223.223,0,0,1,.054-.092.22.22,0,0,0,.056-.109.2.2,0,0,0,.018-.092.127.127,0,0,1,.037-.091.429.429,0,0,1,.129-.017h.348c.045.022.107.05.2.091a.245.245,0,0,1,.13.254A1.262,1.262,0,0,1,5.031,2c-.067.1-.138.2-.211.309a.787.787,0,0,1-.13.293v.09a.242.242,0,0,0-.109.164c-.013.057-.022.107-.028.147a.7.7,0,0,1-.064.164l-.111.4c0,.159.03.249.092.273a.217.217,0,0,0,.08.015A.415.415,0,0,0,4.7,3.823,2.077,2.077,0,0,0,5,3.668,2.171,2.171,0,0,1,5.3,3.514a3.028,3.028,0,0,0,.643-.329c.218-.144.416-.266.587-.364a1.409,1.409,0,0,1,.136-.043l.064-.018a2.073,2.073,0,0,1,.262-.385c.15-.184.326-.38.522-.582.183-.186.376-.383.561-.564L8.447.856A.819.819,0,0,1,8.539.783,1.8,1.8,0,0,1,8.7.673,1.556,1.556,0,0,0,8.87.563a.234.234,0,0,1,.11-.054c.135-.073.271-.156.4-.246a1.889,1.889,0,0,1,.4-.21A.429.429,0,0,1,9.935.009.933.933,0,0,1,10.044,0c.141.008.227.033.257.073a.062.062,0,0,1,.01.054.525.525,0,0,1-.193.246C10,.466,9.874.564,9.733.664A1.754,1.754,0,0,0,9.42.929c-.079.055-.157.115-.238.182A.735.735,0,0,0,9,1.347a1.372,1.372,0,0,1-.2.164.355.355,0,0,0-.148.218,2.114,2.114,0,0,0-.211.2,1.938,1.938,0,0,0-.175.218.65.65,0,0,0-.284.274,1.134,1.134,0,0,1-.247.31c-.1.144-.193.3-.284.454a2.6,2.6,0,0,0-.23.528.237.237,0,0,1-.028.11.211.211,0,0,0-.026.091.2.2,0,0,0,.086.025.091.091,0,0,0,.033-.006L7.365,3.9c.106-.067.193-.123.266-.173s.169-.109.284-.174c.053-.042.1-.08.148-.11a.945.945,0,0,1,.146-.072c.235-.163.489-.353.753-.564s.5-.41.752-.619a.888.888,0,0,0,.194-.164c.058-.064.12-.128.193-.2a1.9,1.9,0,0,1,.2-.136.183.183,0,0,0,.11-.156c.025-.058.034-.1.028-.108s.022-.05.083-.11a1.5,1.5,0,0,0,.12-.136.246.246,0,0,1,.211-.082.2.2,0,0,1,.1.026.123.123,0,0,0,.066.017.214.214,0,0,0,.053-.007.053.053,0,0,0,.052.029l.022,0,.022,0a.094.094,0,0,1,.07.03.6.6,0,0,1,.175.255.6.6,0,0,1-.01.273,1.8,1.8,0,0,0-.082.319,1.067,1.067,0,0,1-.1.319,2.168,2.168,0,0,1-.138.518,2.908,2.908,0,0,0-.156.5A1.231,1.231,0,0,1,11.311,3c.182-.12.376-.237.579-.346s.4-.208.578-.292a1.859,1.859,0,0,0,.385-.219h.055c.026-.024.053-.048.083-.072a.141.141,0,0,1,.083-.037,1.825,1.825,0,0,1,.2-.137.692.692,0,0,1,.257-.082.022.022,0,0,0,0-.013.017.017,0,0,0-.013,0c.256-.139.5-.267.734-.382a4.058,4.058,0,0,1,.713-.264,3.5,3.5,0,0,1,.68-.5,2.817,2.817,0,0,1,.423-.219c.14-.058.276-.119.4-.182a.748.748,0,0,0,.118-.073.224.224,0,0,1,.139-.037,1.183,1.183,0,0,1,.863.228.689.689,0,0,1,.2.446.351.351,0,0,1-.128.164.732.732,0,0,0-.166.182c-.061.061-.116.117-.166.174a.66.66,0,0,0-.11.154,14.915,14.915,0,0,1-1.469,1.129,1.089,1.089,0,0,1-.487.2,2.112,2.112,0,0,1-.37.033,2.193,2.193,0,0,1-.244-.014,1.756,1.756,0,0,0-.4.646,1.06,1.06,0,0,0-.055.382.433.433,0,0,0,.157.319,1.759,1.759,0,0,0,.179.009A1.252,1.252,0,0,0,15,4.114a5.145,5.145,0,0,1,.533-.181c.144-.04.285-.083.421-.128s.28-.1.385-.146c.288-.135.483-.228.634-.3s.3-.144.468-.227.322-.164.46-.237.336-.181.562-.3l.043-.024c.174-.085.363-.181.6-.3.21-.106.4-.2.579-.3a1.068,1.068,0,0,1,.2-.136,1.159,1.159,0,0,1,.239-.082.089.089,0,0,0,.045-.019.094.094,0,0,1,.046-.018c.111,0,.166.018.166.055a.294.294,0,0,1-.083.155,2.044,2.044,0,0,1-.2.209,1.276,1.276,0,0,0-.193.219c0,.008,0,.017-.046.045a1.313,1.313,0,0,1-.146.092,2.341,2.341,0,0,0-.212.136c-.132.095-.3.2-.5.319l-.589.347c-.18.107-.36.211-.551.318a4.238,4.238,0,0,1-.385.2l-1.321.619a1.138,1.138,0,0,1-.321.136c-.123.032-.234.065-.339.1-.174.041-.336.077-.5.108a2.439,2.439,0,0,1-.479.048h-.071a1.5,1.5,0,0,1-.524-.11.92.92,0,0,1-.413-.338.723.723,0,0,1-.147-.4,1.584,1.584,0,0,1,.038-.482A2.882,2.882,0,0,1,13.558,3a4.453,4.453,0,0,1,.211-.446.52.52,0,0,0,.148-.183.892.892,0,0,0,.074-.182c.125-.148.259-.291.389-.428l.117-.125-.018.008-.017.008a.862.862,0,0,0-.34.21.025.025,0,0,0,0,.024c0,.008.018.012.04.012a3.772,3.772,0,0,1-.349.283c-.169.126-.358.261-.56.4-.186.13-.378.261-.588.4-.188.126-.333.227-.431.3s-.192.128-.288.191L11.9,3.5a2.027,2.027,0,0,0-.311.255.842.842,0,0,0-.193.091c-.058.039-.117.082-.174.128l-.148.109c-.079.057-.156.109-.229.155a.411.411,0,0,0-.157.192.564.564,0,0,0-.229.328,3.033,3.033,0,0,1-.156.418c-.321.717-.655,1.485-1.02,2.348A19.315,19.315,0,0,1,8.08,9.9a11,11,0,0,1-1.57,2.047,5.992,5.992,0,0,1-2.083,1.384,2.344,2.344,0,0,1-.449.1A.885.885,0,0,1,3.87,13.434Zm5.257-7.79a.515.515,0,0,1-.238.127A.246.246,0,0,0,8.7,5.9c-.318.3-.612.586-.9.865s-.559.544-.846.828c-.272.271-.488.494-.661.683-.2.218-.327.361-.385.427-.2.247-.409.5-.624.747a10.271,10.271,0,0,0-.633.81,5.667,5.667,0,0,0-.524.9,3.526,3.526,0,0,0-.294,1.02c.037.024.049.077.037.155a.234.234,0,0,0,.074.21,2.631,2.631,0,0,0,1.165-.5,5.975,5.975,0,0,0,1.066-1.02,12.617,12.617,0,0,0,.955-1.329c.3-.483.575-.967.816-1.439s.469-.939.661-1.355c.211-.458.363-.794.478-1.057-.025-.047-.022-.084.009-.109A.077.077,0,0,0,9.127,5.644ZM16.945.856a3.477,3.477,0,0,0-1.166.691,8.59,8.59,0,0,0-.945,1l.008,0a.61.61,0,0,0,.313-.09c.107-.062.209-.124.3-.181.24-.191.486-.4.752-.647a8.2,8.2,0,0,0,.7-.719C16.933.91,16.945.891,16.945.856Z" transform="translate(0.683 0.383)" fill="#fefefe"/>
        </g>
      </g>
      <path id="Clip_21-2" data-name="Clip 21" d="M0,73.572H199.993V0H0Z" transform="translate(0 0.441)" fill="none"/>
      <g id="Группа_масок_1" data-name="Группа масок 1" clip-path="url(#clip-path-3)">
        <path id="Fill_20" data-name="Fill 20" d="M0,.945H53.921V0H0Z" transform="translate(121.418 58.75)" fill="#fefefe"/>
        <path id="Fill_22" data-name="Fill 22" d="M0,.945H53.921V0H0Z" transform="translate(24.655 58.75)" fill="#fefefe"/>
        <path id="Fill_23" data-name="Fill 23" d="M0,.945H53.921V0H0Z" transform="translate(121.418 27.298)" fill="#fefefe"/>
        <path id="Fill_24" data-name="Fill 24" d="M0,.945H53.921V0H0Z" transform="translate(24.654 27.298)" fill="#fefefe"/>
        <path id="Fill_25" data-name="Fill 25" d="M0,.8H1.062a.735.735,0,0,1,.564.187.915.915,0,0,1,.172.627v9.03a.868.868,0,0,1-.189.646,1.09,1.09,0,0,1-.722.175H0v.8H5.46v-.8H4.548a1.038,1.038,0,0,1-.706-.175.893.893,0,0,1-.18-.646V1.567a.921.921,0,0,1,.163-.61A.659.659,0,0,1,4.347.771H8.711a.758.758,0,0,1,.569.179.9.9,0,0,1,.167.618v9.08a.868.868,0,0,1-.188.646,1.077,1.077,0,0,1-.715.175h-.91v.8h5.476v-.8h-.9a1.091,1.091,0,0,1-.723-.175.868.868,0,0,1-.188-.646V1.617A.924.924,0,0,1,11.467,1,.674.674,0,0,1,12,.8h1.111V0H0Z" transform="translate(7.807 35.827)" fill="#fefefe"/>
        <path id="Fill_26" data-name="Fill 26" d="M5.893,12.862a5.527,5.527,0,0,1-4.238-1.8A6.581,6.581,0,0,1,0,6.443,6.62,6.62,0,0,1,1.659,1.812,5.511,5.511,0,0,1,5.893,0a5.486,5.486,0,0,1,4.219,1.807,6.639,6.639,0,0,1,1.651,4.636,6.606,6.606,0,0,1-1.642,4.626A5.5,5.5,0,0,1,5.893,12.862Zm0-12.074a3.081,3.081,0,0,0-2.763,1.4,7.988,7.988,0,0,0-.906,4.258,8.007,8.007,0,0,0,.9,4.257,3.077,3.077,0,0,0,2.767,1.4,3.068,3.068,0,0,0,2.751-1.409,7.962,7.962,0,0,0,.912-4.245,8,8,0,0,0-.9-4.27A3.079,3.079,0,0,0,5.893.788Z" transform="translate(29.733 35.52)" fill="#fefefe"/>
        <path id="Fill_27" data-name="Fill 27" d="M.627,15.648H0v-4.18H1.74A13.276,13.276,0,0,0,3.27,7.534a21.735,21.735,0,0,0,.56-4.98,2.666,2.666,0,0,0-.247-1.439A1.22,1.22,0,0,0,2.6.8H2V0h9.573V.8H10.46a.673.673,0,0,0-.531.2.916.916,0,0,0-.172.617v9.85h1.814v4.179H10.92a4.325,4.325,0,0,0-.836-2.641A3.2,3.2,0,0,0,7.7,12.264H3.846a3.181,3.181,0,0,0-2.374.743,4.345,4.345,0,0,0-.844,2.641ZM4.807.8a38.589,38.589,0,0,1-.576,6.289,15.6,15.6,0,0,1-1.463,4.374H7.892V.8Z" transform="translate(49.887 35.826)" fill="#fefefe"/>
        <path id="Fill_28" data-name="Fill 28" d="M5.894,12.862a5.525,5.525,0,0,1-4.238-1.8A6.578,6.578,0,0,1,0,6.443,6.62,6.62,0,0,1,1.66,1.812,5.514,5.514,0,0,1,5.894,0a5.482,5.482,0,0,1,4.218,1.808,6.638,6.638,0,0,1,1.651,4.635,6.607,6.607,0,0,1-1.642,4.627A5.5,5.5,0,0,1,5.894,12.862Zm0-12.074a3.081,3.081,0,0,0-2.763,1.4,7.979,7.979,0,0,0-.907,4.258,8.007,8.007,0,0,0,.9,4.258,3.078,3.078,0,0,0,2.767,1.4,3.067,3.067,0,0,0,2.751-1.41,7.96,7.96,0,0,0,.911-4.245,8,8,0,0,0-.9-4.27A3.079,3.079,0,0,0,5.894.788Z" transform="translate(70.769 35.519)" fill="#fefefe"/>
        <path id="Fill_29" data-name="Fill 29" d="M1.61,11.294a1.1,1.1,0,0,1-.723.174H0v.8H5.461v-.8h-.77a1.367,1.367,0,0,1-.844-.17.879.879,0,0,1-.184-.65V1.617A.778.778,0,0,1,3.905.933,2.719,2.719,0,0,1,5.117.772q2.458,0,3.24.7A5.014,5.014,0,0,1,9.5,4.337h.735L10.017,0H0V.805H1.063a.737.737,0,0,1,.564.187.92.92,0,0,1,.171.626v9.031a.868.868,0,0,1-.188.646" transform="translate(121.98 35.826)" fill="#fefefe"/>
        <path id="Fill_30" data-name="Fill 30" d="M5.611,12.264H0v-.8H.887a1.1,1.1,0,0,0,.724-.175.872.872,0,0,0,.188-.646V1.618A.925.925,0,0,0,1.627.992.744.744,0,0,0,1.062.805H0V0H5.887A5.876,5.876,0,0,1,9.356.814a3.01,3.01,0,0,1,1.086,2.57,2.946,2.946,0,0,1-1.271,2.6,6.8,6.8,0,0,1-3.8.867c-.384,0-.714,0-.982-.012s-.517-.022-.731-.038v3.847a.9.9,0,0,0,.18.646,1.041,1.041,0,0,0,.707.175H5.611v.795ZM4.549.771c-.038,0-.078,0-.127.008A.052.052,0,0,1,4.4.788a.774.774,0,0,0-.569.174.936.936,0,0,0-.166.639V6.013a2.816,2.816,0,0,0,.38.041c.158.005.382.008.632.008a5.311,5.311,0,0,0,2.976-.6,2.465,2.465,0,0,0,.8-2.1,2.583,2.583,0,0,0-.665-2.006A3.584,3.584,0,0,0,5.444.771Z" transform="translate(141.546 35.826)" fill="#fefefe"/>
        <path id="Fill_31" data-name="Fill 31" d="M4.423,12.465H0v-.814H.142A1.691,1.691,0,0,0,1.2,11.365a2.778,2.778,0,0,0,.711-1.14L5.927,0H6.6l4.364,10.813a1.685,1.685,0,0,0,.418.676,1.269,1.269,0,0,0,.744.161h.36v.813H7.367v-.814h.768a1.87,1.87,0,0,0,.728-.1.359.359,0,0,0,.2-.35.93.93,0,0,0-.039-.231,3.381,3.381,0,0,0-.121-.356L8.118,8.475H3.512L2.985,9.794a5.359,5.359,0,0,0-.173.564,2.068,2.068,0,0,0-.07.422.752.752,0,0,0,.305.655A1.674,1.674,0,0,0,4,11.651h.427v.814ZM5.777,2.679,3.821,7.605H7.809Z" transform="translate(159.039 35.627)" fill="#fefefe"/>
        <path id="Fill_32" data-name="Fill 32" d="M.628,15.648H0v-4.18H1.74A13.245,13.245,0,0,0,3.27,7.533a21.719,21.719,0,0,0,.56-4.979,2.671,2.671,0,0,0-.247-1.439A1.22,1.22,0,0,0,2.6.8H2V0h9.573V.8H10.46A.665.665,0,0,0,9.93,1a.921.921,0,0,0-.172.618v9.85h1.814v4.179h-.652a4.325,4.325,0,0,0-.837-2.641A3.2,3.2,0,0,0,7.7,12.263H3.847a3.185,3.185,0,0,0-2.375.743,4.361,4.361,0,0,0-.843,2.641ZM4.808.8a38.591,38.591,0,0,1-.577,6.289,15.574,15.574,0,0,1-1.462,4.374H7.894V.8Z" transform="translate(180.614 35.827)" fill="#fefefe"/>
        <path id="Fill_33" data-name="Fill 33" d="M9.394.995A.65.65,0,0,1,9.916.8h1.112V0H1.238V.8h.577a1.255,1.255,0,0,1,.969.29,1.928,1.928,0,0,1,.252,1.186c0,.224-.04,1.2-.067,1.661-.106,1.8-.545,5.507-1.19,6.3A3.22,3.22,0,0,1,0,11.212l.105.292L.5,12.581l.02.054c.053-.015.1-.031.154-.047,2.617-.862,2.778-3.763,3.1-7.082.051-.517.134-1.979.14-2.072Q4,1.9,4.048,1.684A1.017,1.017,0,0,1,4.462.995,2.026,2.026,0,0,1,5.486.8H7.366v9.843a.867.867,0,0,1-.188.646,1.09,1.09,0,0,1-.722.175h-.9v.8h5.477v-.8h-.9a1.059,1.059,0,0,1-.71-.175.881.881,0,0,1-.184-.646V1.617A.955.955,0,0,1,9.394.995" transform="translate(93.033 35.826)" fill="#fefefe"/>
      </g>
    </g>
  </g>
</svg>
