<svg xmlns="http://www.w3.org/2000/svg" width="159.493" height="131.257" viewBox="0 0 159.493 131.257">
  <g id="signature" transform="translate(-0.001 -0.91)">
    <g id="Group_131" transform="translate(0 0.002)">
      <path id="Path_132" d="M49.668,131.234c-3.362-.194-4.657-2.1-3.827-5.327,1.373-5.313,4.51-9.668,7.724-14,.322-.438.644-.876.952-1.324.049-.071.006-.2.006-.68h0c-3.3-.454-6.53-.694-9.555-1.885-5.986-2.354-7.4-3.823-9.516-9.972-1.237-.026-1.963.9-2.83,1.521a62.284,62.284,0,0,1-13.784,7.271,18.265,18.265,0,0,1-11.144.7,8.92,8.92,0,0,1-7.107-7.362C-.935,93.317.651,86.912,3.7,80.874,9.747,68.9,18.328,58.847,28.713,50.179c8.864-7.4,18.335-13.851,28.991-18.494,6.215-2.708,12.623-4.939,19.547-5.194a14.762,14.762,0,0,1,2.335.062,4.653,4.653,0,0,1,4.369,5.48,41.33,41.33,0,0,1-2.18,7.462,3.835,3.835,0,0,0,2.776-1.9c3.94-4.884,8.658-9.067,12.919-13.675,5.241-5.656,9.982-11.7,15.09-17.45a50.6,50.6,0,0,1,5.512-5.218A9.026,9.026,0,0,1,120.077.1a.871.871,0,0,1,1.161.331,1.171,1.171,0,0,1,.016.93,5.4,5.4,0,0,1-.905,1.352c-2.783,2.967-5.552,5.951-8.394,8.863q-12.564,12.894-24.3,26.5c-.713.826-1.31,1.744-1.974,2.64,1.181.464,1.529-.539,2.063-1.028a27.78,27.78,0,0,1,7.493-4.846c.8-.356,1.668-.924,2.494-.239.905.752.671,1.813.3,2.731a40.953,40.953,0,0,1-2.467,5.348C93.486,46.292,90.8,49.534,88.99,53.3c-.367.772-.715,1.553-1.191,2.591,1.832.123,2.58-1.06,3.453-1.907,4.736-4.614,9.416-9.282,14.155-13.89,1.42-1.377,2.929-2.673,4.481-3.909.634-.5,1.522-1.3,2.325-.379.616.7-.064,1.436-.552,2.014C107.178,43.1,103.656,49.056,99.544,54.6a2.245,2.245,0,0,0-.677,2.02,44.185,44.185,0,0,0,7.28-7.06A132.966,132.966,0,0,1,116.421,39.29a24.794,24.794,0,0,1,3.513-2.49c.7-.445,1.509-1.382,2.335-.565s-.282,1.561-.619,2.287a55.292,55.292,0,0,1-6.107,9.339,20.363,20.363,0,0,0-3.707,6.774c2.909-3.094,5.788-6.224,8.735-9.282,8.109-8.412,14.431-18.245,22.39-26.777,3.754-4.025,7.448-8.095,12.065-11.228a4.78,4.78,0,0,1,2.059-1.022c1.771-.233,2.851.931,2.229,2.545A12.375,12.375,0,0,1,157.67,11.7c-4.567,6.179-9.548,12.032-14.606,17.825-5.131,5.873-10.108,11.885-15.471,17.551-4.438,4.689-8.6,9.723-14.225,13.225a7.446,7.446,0,0,0-1.781,1.921c-1.86,2.448-3.7,4.906-5.505,7.4-1.618,2.235-1.522,2.422,1.38,2.854,1.317.194,2.652.275,3.98.421,4.371.476,8.527,1.511,12.137,4.173,3.127,2.3,3.416,4.993.667,7.628a51.724,51.724,0,0,1-10.152,7.4A137.14,137.14,0,0,1,83.768,104.8a14.924,14.924,0,0,0-7.425,5.21,174.462,174.462,0,0,1-12.559,13.974,36.374,36.374,0,0,1-8.626,6.11,10.485,10.485,0,0,1-4.795,1.161Q50.016,131.257,49.668,131.234Z" transform="translate(0.002 0.908)" fill="#fff"/>
    </g>
    <g id="Group_132" transform="translate(79.725 87.197)">
      <path id="Path_133" d="M.452.022C.728-.05.912.058.84.288A.817.817,0,0,1,.392.649C.133.764-.059.635.017.392.067.239.3.142.452.022" transform="translate(0.001 0)" fill="#fff"/>
    </g>
  </g>
</svg>
