<svg width="0" height="0" class="hidden">
  <symbol xmlns="http://www.w3.org/2000/svg" viewBox="0 0 60.734 60.733" id="face">
    <path d="M57.378.001H3.352A3.352 3.352 0 000 3.353v54.026a3.353 3.353 0 003.352 3.354h29.086V37.214h-7.914v-9.167h7.914v-6.76c0-7.843 4.789-12.116 11.787-12.116 3.355 0 6.232.251 7.071.36v8.198l-4.854.002c-3.805 0-4.539 1.809-4.539 4.462v5.851h9.078l-1.187 9.166h-7.892v23.52h15.475a3.355 3.355 0 003.355-3.351V3.351a3.352 3.352 0 00-3.354-3.35z"></path>
  </symbol>
  <symbol xmlns="http://www.w3.org/2000/svg" viewBox="0 0 80 79" id="Podolgrad">
    <path d="M40.8 79l-1.6-1.579L74.047 43.01l-1.956-1.929-2.845 2.806-15.285 15.1v.157H53.8L36.355 76.371 0 40.287l1.6-1.576 34.756 34.5 2.04-2.014-12.835-12.685L2.755 35.99 39.2 0l1.6 1.579L5.957 35.99l1.953 1.929 19.032-18.795 1.6 1.576-16.277 16.079L9.511 39.5l17.627 17.407h1.755v-2.1H26.27V52.7h-.045V28.4l.672-.3a32.39 32.39 0 0110.278-2.6L32.3 20.685l-3.469-3.426-.034-.034L40.063 6.1l5.12 5.034 6.166 6.089-.105.107-6.224 6.131h.014L42.976 25.5a32.4 32.4 0 0110.278 2.6l.67.3v24.172h.038v2.235h-2.893v2.1h1.8L70.493 39.5l-19-18.766 1.6-1.579 19.8 19.552.8.792 3.554 3.51zM29.4 59.142l7.846 7.748L40 69.611l10.6-10.469zm1.758-4.335v2.1h17.648v-2.1zm-2.67-12.531v10.3h23.173v-10.3zm19.826-11.321v9.086h3.347v-9.086zm-14.214 0v9.086h11.951v-9.086zm-5.612 0v9.086h3.35v-9.086zM40.056 27.6a30.865 30.865 0 00-8.231 1.116h16.5A30.882 30.882 0 0040.1 27.6h-.04zM40 9.39l-7.968 7.869 7.976 7.876a.063.063 0 00.029.019.091.091 0 00.038.007.086.086 0 00.037-.007.1.1 0 00.029-.019l7.9-7.8-5.285-5.225L40 9.39zm.074 41.919h-.014a3.933 3.933 0 01-2.2-.666 3.889 3.889 0 01-1.432-1.717 3.862 3.862 0 01.363-3.7 3.986 3.986 0 015.491-1.054 3.9 3.9 0 011.429 1.717 3.856 3.856 0 01-.365 3.7 3.966 3.966 0 01-3.276 1.719zm0-5.574a1.69 1.69 0 00-1.559 1.021 1.652 1.652 0 00.157 1.581 1.694 1.694 0 00.746.606 1.706 1.706 0 001.6-.154 1.692 1.692 0 00.614-.734 1.652 1.652 0 00-.157-1.581 1.669 1.669 0 00-.743-.606 1.727 1.727 0 00-.657-.133zM78.4 40.288L43.555 5.88l-1.6-1.575 1.6-1.585L80 38.71l-1.6 1.578z"></path>
  </symbol>
  <symbol xmlns="http://www.w3.org/2000/svg" viewBox="0 0 80 80" id="star">
    <path fill-rule="evenodd" clip-rule="evenodd" d="M0 40L40 0l40 40-40 40L0 40zm39.245-27.963V2.89L23.677 18.459l15.568-6.422zm-.747 1.942c-1.102 2.457-3.046 7.137-4.271 12.038-4.324-2.585-9.06-4.543-11.568-5.504l15.84-6.534zm.747 17.332V16.067c-1.721 4.071-4.405 11.28-4.608 17.063a8.673 8.673 0 014.608-1.82zm-5.378-3.745c-.326 1.518-.568 3.035-.681 4.496l-9.536-9.536c2.693 1.092 6.635 2.85 10.217 5.04zm-7.8 6.597c-4.9 1.224-9.564 3.164-12.022 4.269l6.563-15.723c.974 2.533 2.91 7.19 5.458 11.454zM12.07 39.245l6.576-15.756L2.891 39.245h9.179zM40 32.783A7.224 7.224 0 0032.783 40c0 3.98 3.238 7.217 7.217 7.217 3.754 0 6.845-2.881 7.184-6.548V39.33c-.34-3.666-3.43-6.547-7.184-6.547zm27.88 7.972l-6.924 16.153 16.153-16.153h-9.23zm-1.948.71c-2.466 1.106-7.12 3.036-12 4.257 2.471 4.131 4.367 8.635 5.368 11.215l6.632-15.471zm-18.046 5.297c1.462-.113 2.98-.355 4.497-.68 2.192 3.581 3.948 7.523 5.04 10.216l-9.537-9.536zm-2.11 7.11c-1.224 4.89-3.16 9.556-4.264 12.018l15.636-6.589c-2.554-.986-7.16-2.91-11.373-5.429zm-5.02 23.237v-9.26l16.006-6.747L40.755 77.11zm0-13.284c1.71-4.046 4.37-11.188 4.604-16.951a8.677 8.677 0 01-4.605 1.815v15.136zm15.596-6.463c-2.694-1.091-6.635-2.848-10.217-5.04.326-1.517.568-3.034.68-4.495l9.537 9.535zm-17.107 6.47c-1.71-4.034-4.371-11.164-4.603-16.958a8.672 8.672 0 004.603 1.815v15.144zm-15.742-2.465l15.742 15.742v-9.257l-15.742-6.485zm10.718-7.492c1.225 4.908 3.17 9.58 4.275 12.035l-15.849-6.53c2.505-.958 7.245-2.916 11.574-5.505zm-.358-1.55c-.325-1.517-.566-3.035-.678-4.5l-9.54 9.54c2.693-1.09 6.635-2.847 10.218-5.04zm-6.245-6.245c1.516.325 3.034.565 4.5.677l-9.538 9.537c1.092-2.692 2.849-6.634 5.038-10.213zm-1.55-.357c-4.918-1.227-9.596-3.177-12.047-4.28l6.489 15.989c.94-2.466 2.924-7.303 5.558-11.71zM2.891 40.755h9.22l6.299 15.519-15.52-15.52zm24.725-6.95c1.517-.325 3.034-.567 4.498-.679l-9.535-9.535c1.091 2.691 2.846 6.632 5.037 10.213zm-11.372 6.95c4.058 1.713 11.1 4.32 16.84 4.546a8.672 8.672 0 01-1.773-4.546H16.244zm-.271-1.51c4.033-1.718 11.324-4.461 17.201-4.667a8.678 8.678 0 00-1.863 4.667H15.973zM40.755 16.07c1.723 4.077 4.408 11.292 4.61 17.061a8.668 8.668 0 00-4.61-1.82V16.07zm16.053 2.873L40.755 2.892v9.154l16.053 6.899zm-11.034 7.075c-1.221-4.874-3.151-9.533-4.255-12.001l15.45 6.64c-2.586 1.004-7.076 2.897-11.195 5.361zm.36 1.549c.326 1.517.568 3.033.681 4.493l9.532-9.532c-2.694 1.092-6.634 2.848-10.213 5.039zm6.247 6.246c-1.52-.326-3.04-.568-4.503-.68l9.548-9.549c-1.093 2.695-2.852 6.645-5.045 10.23zm-5.468 11.494c5.715-.226 12.777-2.838 16.845-4.552H48.69a8.673 8.673 0 01-1.777 4.552zm1.777-6.062a8.674 8.674 0 00-1.859-4.661c5.84.209 13.13 2.943 17.175 4.66H48.69zm5.24-5.072c4.869 1.218 9.515 3.143 11.986 4.248l-6.674-15.316c-1.018 2.604-2.89 7.017-5.312 11.068zm23.18 5.072h-9.188l-7.095-16.283 16.282 16.283z"></path>
  </symbol>
  <symbol xmlns="http://www.w3.org/2000/svg" viewBox="0 0 81.414 81.407" id="Edeldorf">
    <path d="M40.707 80.708h0l-5.025-5.024 34.019-34.012.512.5-31.2 31.2 1.737 1.724 1.7-1.683-.783-.782.5-.5 3.557 3.557-5.017 5.02zm-2.2-6.844l-1.832 1.819 3.975 3.974.057.051 4.017-4.028-1.741-1.738-.039-.053-2.2 2.209-2.237-2.233zm-2.277-2.263h0L10.355 45.708l.5-.512L36.747 71.09l-.511.511zm-4.986-.35h0L10.691 50.696l.5-.5 20.557 20.557-.5.5zm14.39-.054h0l-.5-.5 25.898-25.889.5.512zm4.959-.392h0l-.5-.484 20.549-20.554.5.5-20.544 20.541zm-11.346-.606L8.198 39.152l-.053-.04-1.7 1.7 1.547 1.55.043.04.739-.727.5.5-3.555 3.552-5.012-5.026 5.012-5.011 34.034 34.012-.5.5zM5.719 36.688h0l-4.012 4.013 3.962 3.974.053.055 1.821-1.832-2.093-2.09 2.2-2.2-1.891-1.867-.04-.053zm38.114 20.338a.786.786 0 01-.78-.472l-.027-.053a1.01 1.01 0 00-.809-.444h-.063a.347.347 0 01-.3-.217v-.012a2.492 2.492 0 01.58-2.209 1.327 1.327 0 01.94-.418 1.248 1.248 0 01.315.041h.018a5.238 5.238 0 001.01.187.761.761 0 00.567-.268 4.233 4.233 0 00.607-2.169v-.053l-.055-.014a5.113 5.113 0 00-.834-.053h-.062a9.207 9.207 0 01-2.161-.229c-1.871-.508-2.169-2.436-2.345-4.715l-.018-.22a58.145 58.145 0 00-.058-.573l-.014-.055-.053-.013a4.147 4.147 0 01-3.044-1.778l-.041-.055-.04.027a13.24 13.24 0 00-3.692 2.681c-.835 1.223-.844 2.2-.028 2.9a9.225 9.225 0 001.2.788l.125.074c.953.573 1.641.987 1.736 1.441a.6.6 0 01-.081.432 4.047 4.047 0 00-.228.389l-.017.031c-.307.544-.771 1.366-1.522 1.366a1.163 1.163 0 01-.362-.061 4.725 4.725 0 00-1.415-.266 1.43 1.43 0 00-.861.225 1.251 1.251 0 00-.431.876v.068l.053.014a1.707 1.707 0 01.985.834.048.048 0 00.011.035.02.02 0 00.014.006l.015.014a3 3 0 001.01.081h.256c.323 0 .611.015.8.027.141.008.289.016.409.016a.7.7 0 00.682-.3c.125-.149.339-.466.587-.832l.14-.207.025-.04c1.365-2.027 1.818-2.612 2.1-2.722.083-.014.135-.112.149-.2s-.014-.227-.216-.349a2.132 2.132 0 00-.553-.189l-.051-.015a2.532 2.532 0 01-1.633-.955 1.393 1.393 0 01-.039-1.106c.378-1.178 2.423-1.593 3.608-1.736.015.232.043.436.068.606-.836.1-2.809.429-3.1 1.321a.743.743 0 00.013.618c.193.374.863.555 1.306.674h.01a2.873 2.873 0 01.691.254.974.974 0 01.5.941.843.843 0 01-.523.713l-.014.013a19.484 19.484 0 00-1.793 2.451l-.014.028-.153.224c-.274.4-.491.72-.629.879a1.281 1.281 0 01-1.155.53c-.136 0-.282-.009-.42-.017h-.067l-.155-.008a6.578 6.578 0 00-.45-.019h-.541c-.921 0-1.241-.064-1.445-.462a.962.962 0 00-.794-.552.3.3 0 01-.31-.31v-.026a1.963 1.963 0 01.688-1.685 2.064 2.064 0 011.217-.338 5.312 5.312 0 011.611.3.53.53 0 00.161.027c.351 0 .637-.4 1.011-1.079l.014-.026.049-.087c.053-.094.1-.182.153-.263l.028-.041-.028-.027a5.818 5.818 0 00-1.244-.892l-.17-.1a9.452 9.452 0 01-1.415-.931c-1.054-.889-1.079-2.234-.067-3.69a12.865 12.865 0 013.811-2.83l.068-.039-.041-.055a9.31 9.31 0 01-.507-.905l-.032-.07.12-.021h.006l.1-.018h.016a3.128 3.128 0 00.376-.091c.5.985 1.583 2.666 3.259 2.869l.1.014-.014-.094a7.58 7.58 0 00-.432-1.483 6.155 6.155 0 00-.311-.537c-.024-.037-.046-.075-.067-.111s-.051-.088-.082-.133a9.033 9.033 0 01-1.008-1.966l-.041-.121-.082.094a2.925 2.925 0 01-1.737 1.078 2.271 2.271 0 01-.43.039 7.123 7.123 0 01-2.415-.649l-.091-.036a5.046 5.046 0 00-1.311-.416.3.3 0 00-.091.012 1.734 1.734 0 01-.51.081 1.315 1.315 0 01-.649-.162l-.041-.014-.028.028a2.443 2.443 0 00-.86.982c-.2.422-.412.594-.726.594a1.328 1.328 0 01-.191-.016h-.007a.874.874 0 00-.139-.014.784.784 0 00-.5.231.305.305 0 01-.195.071.33.33 0 01-.047 0 .276.276 0 01-.2-.148 4.725 4.725 0 01-.392-1.966v-.176l.148-.081a5.983 5.983 0 001.505-1.24 1.789 1.789 0 01.807-1.117 1.473 1.473 0 01.687-.163 2.134 2.134 0 01.606.1 5.03 5.03 0 001.419.161c.292 0 .6-.014.926-.04l.149-.014-.095-.106a2.964 2.964 0 00-.748-.449l-.02-.01c-.081-.015-.155-.025-.215-.034s-.092-.013-.123-.019a3.121 3.121 0 01-1.952-.942l-.028-.028-.3.121-.122-.068c-.155-.085-.538-.407-.754-1.549a6.289 6.289 0 01.111-2.038l.01-.063a5.926 5.926 0 00.12-1.184l-.014-.094-.093.053a.664.664 0 01-.349.1.672.672 0 01-.216-.037 1.392 1.392 0 01-.809-.888l-.028-.04a1.278 1.278 0 00-.445-.161h-.044a.261.261 0 01-.173-.122.255.255 0 01-.043-.2l.014-.053c.142-.576.587-1.551 1.351-1.551a.969.969 0 01.226.028 3.381 3.381 0 00.46.1h.012c.81.161 1.818.362 2.048 1.118.04.129.08.292.126.48l.1.41a10.9 10.9 0 00.782 2.479 4.861 4.861 0 00.41.552l.046.055.014.014h.027c.534.127 1.829.408 2.911.566a5 5 0 00-.7.51 35.34 35.34 0 01-2.424-.5l-.042-.012c-.072-.029-.239-.1-.739-.837a9.18 9.18 0 01-.848-2.56l-.029-.12a8.04 8.04 0 01-.1-.4 7.683 7.683 0 00-.125-.46c-.126-.417-1-.578-1.577-.685-.167-.029-.325-.067-.479-.1h-.087c-.22 0-.443.251-.646.726l-.027.067.067.014a.846.846 0 01.513.432l.014.026c.119.281.214.471.445.554h.053l.014-.014a.656.656 0 01.4-.168.607.607 0 01.461.274c.273.329.17.951.04 1.738a6.149 6.149 0 00-.12 1.886 3.053 3.053 0 00.322 1l.041.04.175-.068a.321.321 0 01.118-.023.293.293 0 01.246.131s.014.013.035.037a2.3 2.3 0 00.408.381 2.49 2.49 0 001.267.485 3.91 3.91 0 011.374.43 1.837 1.837 0 01.674.634l.014.04.053-.012a13.194 13.194 0 001.806-.432l.026-.014.014-.013a6.811 6.811 0 012.972-2.096l.125-.06.053-.014c.2-.1.407-.2.623-.305s.427-.207.643-.315c1.725-.881 3.621-2.7 3.907-4.472a2.778 2.778 0 00-.405-1.953l-.173-.269.04.31a2.239 2.239 0 01-.256 1.55l-.014.025v.014a3.29 3.29 0 01-.067.808c-.218.939-1.144 1.763-2.831 2.52l-.4.179-1.068.48c-2.685 1.172-3.689 1.61-4.068 3.232a9.722 9.722 0 01-.661.175 3.607 3.607 0 012.075-2.829l.04-.027-.012-.055a3.221 3.221 0 00-.107-.361l-.014-.041a2.631 2.631 0 01-.161-.58v-.028l-.041-.027a2.385 2.385 0 01-1.065-1.184l.566-.216a1.658 1.658 0 001.064.943.506.506 0 00.087.007c.421 0 .877-.514 1.242-.928l.032-.036.1-.108a2.567 2.567 0 01.522-.5.354.354 0 01.207-.068.962.962 0 01.577.3.575.575 0 01.214.485.625.625 0 01-.175.43 5.068 5.068 0 00-.538-.538l-.041-.028-.04.041a2.875 2.875 0 00-.25.261l-.116.129-.036.041a2.89 2.89 0 01-1.578 1.134h-.08l.025.08c.013.03.022.061.031.09a.729.729 0 00.037.1c.011.038.024.076.038.115.02.058.041.117.057.181l.028.068.067-.028c.357-.183.763-.362 1.193-.552l.543-.241.308-.135c.35-.153.745-.325 1.149-.512 1.479-.673 2.317-1.38 2.493-2.1.394-1.741-1.393-2.758-1.47-2.8a.59.59 0 01.888-.121 3.9 3.9 0 01.8.929l.148.242-.027-.283a3.334 3.334 0 00-.418-1.36 2.5 2.5 0 00-1.495-1.333l-.053-.014-.041.122a51.888 51.888 0 00-.525 1.453.324.324 0 01-.3.216h-.011a15.14 15.14 0 00-2.011.323c-1.291.371-1.626.623-1.711.74l-.014.026.014.041a.582.582 0 00.088.138l.008.011.053.081 3.125-.754a.681.681 0 01-.525.754l-1.065.255-.041.014-.014.041a.365.365 0 01-.008.064.271.271 0 00-.006.044v.093l.081-.012.042-.011a.33.33 0 00.093-.031l.364-.108a.639.639 0 01.184-.027.757.757 0 01.328.08.7.7 0 01.3.352 29.51 29.51 0 00-1 .3 1.156 1.156 0 01-.357.058h-.1a.609.609 0 01-.375-.175.712.712 0 01-.163-.43v-.081l-.93.229a3.393 3.393 0 00-1.469.956.433.433 0 00-.027.391l.027.068.068-.04a.327.327 0 01.134-.028.319.319 0 01.283.162l.136.283a2.382 2.382 0 01-.662.283l-.173.055-.123-.149a1.131 1.131 0 01-.173-1.372 3.576 3.576 0 011.371-1.025l.07-.026-.041-.068a.706.706 0 01-.1-.6c.15-.432.77-.768 2.143-1.158h.014a13.765 13.765 0 011.9-.324h.04l.027-.041c.108-.317.242-.691.35-.992l.135-.38c.053-.12.081-.2.081-.2a.286.286 0 01.269-.2h.081a2.415 2.415 0 011.763.984l.149.067a3.651 3.651 0 01.729.349 4.76 4.76 0 012.453 3.02 8.428 8.428 0 01-.593 5.9l-.041.08a.31.31 0 00-.031.051l-.008.015a15.292 15.292 0 00-1.75 5.4 2.516 2.516 0 00.552 1.9 1.5 1.5 0 001.1.4h.122c1.6-.081 4.642-.936 6.1-2.517 1.316-1.437 1.126-3.415-.485-5.039l-.111-.11c-.2-.195-.4-.4-.6-.577l-.121-.12-.043-.042c-1.315-1.275-2.558-2.478-2.665-3.824 0-.029-.387-2.882.85-3.974a1.451 1.451 0 01.955-.4 1.232 1.232 0 01.526.121 2.728 2.728 0 011.265 2.4 3.751 3.751 0 01-.269 1.319l-.053.136.135-.04a1.687 1.687 0 00.888-.54 1.456 1.456 0 00.175-1.387 1.377 1.377 0 00-.228-.445 1.108 1.108 0 01-.256-.874 1.664 1.664 0 011.063 1.118 2.087 2.087 0 01-.284 1.979 2.509 2.509 0 01-1.921.827h-.166l-.4-.055a.089.089 0 01-.068-.053.087.087 0 01.012-.1l.271-.309a2.762 2.762 0 00.5-1.588 2.258 2.258 0 00-.915-1.832.646.646 0 00-.265-.059.862.862 0 00-.557.247c-.81.714-.741 2.732-.646 3.449l.014.014c.08 1.118 1.244 2.242 2.477 3.432l.043.042c.265.252.535.521.835.823 1.848 1.85 2.048 4.215.5 5.885-1.613 1.735-4.784 2.628-6.521 2.708a.641.641 0 01-.161.014 2.065 2.065 0 01-1.523-.593 3.1 3.1 0 01-.74-2.356 11.155 11.155 0 01.726-3.193l.095-.243-.2.176a13.751 13.751 0 01-2.983 1.882l-.053.027c-.34.169-.6.31-.835.445a.69.69 0 01-.041-.458.708.708 0 01.336-.4l.311-.161a9.988 9.988 0 004.311-3.476c.051-.07.093-.141.139-.216l.05-.081.053-.094a7.881 7.881 0 00.529-5.461 1.9 1.9 0 00-.066-.214c-.018-.052-.037-.106-.054-.163l-.068.028-.069.012a9.109 9.109 0 01-.12 3.315c-.533 2.217-2.244 3.391-4.648 4.471a3.729 3.729 0 00-2.4 3.3 6.216 6.216 0 00.983 2.021l.027.053c.1.156.18.292.256.418l.11.2a8.563 8.563 0 01.779 3.435c.189 2.466.535 3.786 1.9 4.163a7.866 7.866 0 002.047.2c.945.027 1.524.071 1.524.62a4.842 4.842 0 01-.821 2.748 1.319 1.319 0 01-.954.428 5.516 5.516 0 01-1.16-.208h-.03a.8.8 0 00-.166-.018.716.716 0 00-.522.234 1.927 1.927 0 00-.448 1.347l.012.053.041.014a1.554 1.554 0 011.147.821c.044.076.071.1.093.108a.429.429 0 00.15.019 3.625 3.625 0 00.4-.032c.124-.012.283-.025.472-.04.076-.006.153-.01.227-.013s.166-.007.244-.015h.147c.731-.039 1.422-.076 1.606-.5.089-.2.248-.67.433-1.212l.037-.108c.805-2.426 1.238-3.541 1.671-3.731h.04v-.039a.512.512 0 00-.04-.365 1.534 1.534 0 00-.727-.849 1.469 1.469 0 00-.528-.064c-.123 0-.253 0-.379.009h-.01c-.16.007-.3.013-.45.013a1.571 1.571 0 01-1.233-.4 1.244 1.244 0 01-.2-1.064c.065-.394.132-.735.2-1.064l.006-.028a9.5 9.5 0 00.283-2.789.656.656 0 01.432.176.586.586 0 01.2.483 12.686 12.686 0 01-.31 2.251l-.014.055c-.05.242-.093.488-.139.75l-.048.274a.662.662 0 00.068.565c.141.161.523.181.84.181.117 0 .236 0 .358-.007.148-.009.307-.018.458-.018a1.85 1.85 0 01.717.112 2 2 0 011.143 1.71.72.72 0 01-.391.674l-.026.013a15.422 15.422 0 00-1.335 3.34l-.08.239c-.173.523-.31.935-.4 1.136-.35.778-1.293.821-2.2.862h-.032a6.108 6.108 0 01-.5.025c-.105.008-.207.022-.3.034-.062.008-.12.016-.174.021a5.667 5.667 0 01-.483.028zm-13.026-19.39a.863.863 0 00-.392.089 1.207 1.207 0 00-.511.753 4.1 4.1 0 01-1.6 1.455l-.027.028V40a5.628 5.628 0 00.135 1.065l.026.081.068-.04a1.2 1.2 0 01.487-.11 1.318 1.318 0 01.254.027.145.145 0 01.068.014h.028l.025-.026a1.036 1.036 0 00.134-.229 3.093 3.093 0 011.347-1.387l.014-.014a.335.335 0 01.108-.018.278.278 0 01.229.113.572.572 0 00.4.128 1.217 1.217 0 00.364-.062.865.865 0 01.243-.034 4.893 4.893 0 011.524.444l.051.02a6.848 6.848 0 002.248.636 1.6 1.6 0 00.325-.031c1.042-.212 1.6-.966 2.115-2.032v.039l.136-.31a4.487 4.487 0 012.438-2.366c2.294-1.038 3.813-2.078 4.3-4.054a9.385 9.385 0 00.175-1.4l.03-.391-.149.363a8.827 8.827 0 01-3.964 3.982c-.331.174-.66.331-.977.482h-.009l-.362.173c-1.815.846-2.935 1.424-3.085 2.6a.787.787 0 01-.6.661 3.441 3.441 0 01.014-.849l.026-.1-.106.028a14.4 14.4 0 01-3.522.467 5.879 5.879 0 01-1.579-.162 1.412 1.412 0 00-.429-.072zm44.874 8.089L41.665 11.701l.5-.5 31.2 31.2.04.055 1.618-1.632-1.685-1.7-.04-.041-.675.661-.5-.5 3.558-3.556 5.026 5.014-5.025 5.022h0zm0-9.039h0l-1.9 1.9 2.237 2.235-2.111 2.116 1.739 1.738.04.055 4.021-4.028-3.973-3.961-.054-.055zm-63.993 3.059h0l-.484-.5 31.12-31.128-1.547-1.536-.043-.053-1.627 1.63.632.618-.5.5-3.557-3.543L40.707.708l5.011 5.025-34.029 34.012zM40.707 1.708h0L36.68 5.733l1.927 1.913 2.128-2.115 2.09 2.089 1.858-1.846.041-.041-3.977-3.973zm30.325 35.1L45.14 10.919l.5-.5 25.892 25.889-.5.5zm-60.178-.4h0l-.5-.5L36.235 10.03l.512.485-25.892 25.893zm59.9-4.662h0L50.207 11.202l.5-.494 20.542 20.537-.5.5zm-59.656-.43h0l-.5-.5 20.544-20.544.5.5-20.545 20.536z" stroke-miterlimit="10"></path>
  </symbol>
  <symbol xmlns="http://www.w3.org/2000/svg" viewBox="0 0 320 27" id="logo">
    <path fill="none" d="M0 0h320v27H0z"></path>
    <path d="M69.547 20.541V.529h7.147c6.347 0 10.4 3.653 10.4 9.953s-4.053 10.059-10.4 10.059zm19.413-7.147a7.136 7.136 0 017.52-7.571c4.267 0 6.72 2.965 6.72 6.988a14.994 14.994 0 01-.107 1.535h-9.172a3.271 3.271 0 003.414 2.594 7.4 7.4 0 004-1.483l1.814 3.388a10.149 10.149 0 01-6.189 2.119c-5.173 0-8-3.706-8-7.57zm14.987-7.253h5.12l2.24 7.676c.267.9.533 2.488.533 2.488h.053s.267-1.535.533-2.488l2.241-7.676h5.173l-4.96 14.453h-5.973zm16.586 7.253a7.136 7.136 0 017.52-7.571c4.267 0 6.72 2.965 6.72 6.988a14.994 14.994 0 01-.107 1.535h-9.172a3.271 3.271 0 003.414 2.594 7.4 7.4 0 004-1.483l1.814 3.388a10.149 10.149 0 01-6.189 2.119c-5.173 0-8-3.706-8-7.57zM137.28.529h4.907v14.082c0 1.376.267 1.853 1.333 1.853a2.409 2.409 0 00.587-.053v4.235a9.67 9.67 0 01-1.493.106c-2.614.001-5.387-.635-5.387-5.452V.529zm8.32 12.865c.053-4.554 3.68-7.571 8.266-7.571s8.267 3.07 8.267 7.571-3.68 7.517-8.267 7.517-8.266-3.017-8.266-7.517zM164.64 26.1V6.141h4.374v.741a8.007 8.007 0 01-.053.9h.053a5.486 5.486 0 014.426-2.014c3.947 0 6.56 3.07 6.56 7.57 0 4.553-2.933 7.518-6.773 7.518a5.568 5.568 0 01-3.68-1.377h-.053s.053.53.053 1.218v5.4zm-.053-19.959h.053zm17.866 0h4.694v1.275a8.115 8.115 0 01-.053.9h.053a5.2 5.2 0 014.32-2.493 4.177 4.177 0 014.053 2.436h.053a5.6 5.6 0 014.64-2.436c2.667 0 4.693 1.429 4.693 5.4v9.371H200v-8.578c0-1.059-.213-1.8-1.12-1.8-2.133 0-2.773 2.118-2.773 4.235v6.088H191.2v-8.523c0-1.059-.213-1.8-1.12-1.8-2.24 0-2.773 2.276-2.773 4.235v6.088H182.4V6.141zm24.853 7.253a7.136 7.136 0 017.52-7.571c4.267 0 6.72 2.965 6.72 6.988a14.994 14.994 0 01-.107 1.535h-9.172a3.271 3.271 0 003.414 2.594 7.4 7.4 0 004-1.483l1.814 3.388a10.149 10.149 0 01-6.189 2.119c-5.173 0-8-3.706-8-7.57zm16.801-7.253h4.693v1.271a8.117 8.117 0 01-.053.9h.053a5.2 5.2 0 014.64-2.492c2.933 0 5.227 1.324 5.227 5.4v9.371h-4.907V12.12c0-1.324-.533-1.906-1.6-1.906-2.187 0-3.147 1.8-3.147 3.865v6.512h-4.906V6.141zm18.507 4.023h-1.867V6.405h2.027V2.276h4.746v4.129h3.04v3.759h-3.04v4.447c0 1.641 1.653 1.853 2.613 1.853a3.355 3.355 0 00.64-.053v4.235a8.457 8.457 0 01-1.333.106c-2.293 0-6.827-.635-6.827-5.453z"></path>
  </symbol>
</svg>