<svg width="0" height="0" class="hidden">
  <symbol xmlns="http://www.w3.org/2000/svg" viewBox="0 0 60.734 60.733" id="face">
    <path d="M57.378.001H3.352A3.352 3.352 0 000 3.353v54.026a3.353 3.353 0 003.352 3.354h29.086V37.214h-7.914v-9.167h7.914v-6.76c0-7.843 4.789-12.116 11.787-12.116 3.355 0 6.232.251 7.071.36v8.198l-4.854.002c-3.805 0-4.539 1.809-4.539 4.462v5.851h9.078l-1.187 9.166h-7.892v23.52h15.475a3.355 3.355 0 003.355-3.351V3.351a3.352 3.352 0 00-3.354-3.35z"></path>
  </symbol>
  <symbol xmlns="http://www.w3.org/2000/svg" viewBox="0 0 80 79" id="Podolgrad">
    <path d="M40.8 79l-1.6-1.579L74.047 43.01l-1.956-1.929-2.845 2.806-15.285 15.1v.157H53.8L36.355 76.371 0 40.287l1.6-1.576 34.756 34.5 2.04-2.014-12.835-12.685L2.755 35.99 39.2 0l1.6 1.579L5.957 35.99l1.953 1.929 19.032-18.795 1.6 1.576-16.277 16.079L9.511 39.5l17.627 17.407h1.755v-2.1H26.27V52.7h-.045V28.4l.672-.3a32.39 32.39 0 0110.278-2.6L32.3 20.685l-3.469-3.426-.034-.034L40.063 6.1l5.12 5.034 6.166 6.089-.105.107-6.224 6.131h.014L42.976 25.5a32.4 32.4 0 0110.278 2.6l.67.3v24.172h.038v2.235h-2.893v2.1h1.8L70.493 39.5l-19-18.766 1.6-1.579 19.8 19.552.8.792 3.554 3.51zM29.4 59.142l7.846 7.748L40 69.611l10.6-10.469zm1.758-4.335v2.1h17.648v-2.1zm-2.67-12.531v10.3h23.173v-10.3zm19.826-11.321v9.086h3.347v-9.086zm-14.214 0v9.086h11.951v-9.086zm-5.612 0v9.086h3.35v-9.086zM40.056 27.6a30.865 30.865 0 00-8.231 1.116h16.5A30.882 30.882 0 0040.1 27.6h-.04zM40 9.39l-7.968 7.869 7.976 7.876a.063.063 0 00.029.019.091.091 0 00.038.007.086.086 0 00.037-.007.1.1 0 00.029-.019l7.9-7.8-5.285-5.225L40 9.39zm.074 41.919h-.014a3.933 3.933 0 01-2.2-.666 3.889 3.889 0 01-1.432-1.717 3.862 3.862 0 01.363-3.7 3.986 3.986 0 015.491-1.054 3.9 3.9 0 011.429 1.717 3.856 3.856 0 01-.365 3.7 3.966 3.966 0 01-3.276 1.719zm0-5.574a1.69 1.69 0 00-1.559 1.021 1.652 1.652 0 00.157 1.581 1.694 1.694 0 00.746.606 1.706 1.706 0 001.6-.154 1.692 1.692 0 00.614-.734 1.652 1.652 0 00-.157-1.581 1.669 1.669 0 00-.743-.606 1.727 1.727 0 00-.657-.133zM78.4 40.288L43.555 5.88l-1.6-1.575 1.6-1.585L80 38.71l-1.6 1.578z"></path>
  </symbol>
  <symbol xmlns="http://www.w3.org/2000/svg" viewBox="0 0 80 80" id="star">
    <path fill-rule="evenodd" clip-rule="evenodd" d="M0 40L40 0l40 40-40 40L0 40zm39.245-27.963V2.89L23.677 18.459l15.568-6.422zm-.747 1.942c-1.102 2.457-3.046 7.137-4.271 12.038-4.324-2.585-9.06-4.543-11.568-5.504l15.84-6.534zm.747 17.332V16.067c-1.721 4.071-4.405 11.28-4.608 17.063a8.673 8.673 0 014.608-1.82zm-5.378-3.745c-.326 1.518-.568 3.035-.681 4.496l-9.536-9.536c2.693 1.092 6.635 2.85 10.217 5.04zm-7.8 6.597c-4.9 1.224-9.564 3.164-12.022 4.269l6.563-15.723c.974 2.533 2.91 7.19 5.458 11.454zM12.07 39.245l6.576-15.756L2.891 39.245h9.179zM40 32.783A7.224 7.224 0 0032.783 40c0 3.98 3.238 7.217 7.217 7.217 3.754 0 6.845-2.881 7.184-6.548V39.33c-.34-3.666-3.43-6.547-7.184-6.547zm27.88 7.972l-6.924 16.153 16.153-16.153h-9.23zm-1.948.71c-2.466 1.106-7.12 3.036-12 4.257 2.471 4.131 4.367 8.635 5.368 11.215l6.632-15.471zm-18.046 5.297c1.462-.113 2.98-.355 4.497-.68 2.192 3.581 3.948 7.523 5.04 10.216l-9.537-9.536zm-2.11 7.11c-1.224 4.89-3.16 9.556-4.264 12.018l15.636-6.589c-2.554-.986-7.16-2.91-11.373-5.429zm-5.02 23.237v-9.26l16.006-6.747L40.755 77.11zm0-13.284c1.71-4.046 4.37-11.188 4.604-16.951a8.677 8.677 0 01-4.605 1.815v15.136zm15.596-6.463c-2.694-1.091-6.635-2.848-10.217-5.04.326-1.517.568-3.034.68-4.495l9.537 9.535zm-17.107 6.47c-1.71-4.034-4.371-11.164-4.603-16.958a8.672 8.672 0 004.603 1.815v15.144zm-15.742-2.465l15.742 15.742v-9.257l-15.742-6.485zm10.718-7.492c1.225 4.908 3.17 9.58 4.275 12.035l-15.849-6.53c2.505-.958 7.245-2.916 11.574-5.505zm-.358-1.55c-.325-1.517-.566-3.035-.678-4.5l-9.54 9.54c2.693-1.09 6.635-2.847 10.218-5.04zm-6.245-6.245c1.516.325 3.034.565 4.5.677l-9.538 9.537c1.092-2.692 2.849-6.634 5.038-10.213zm-1.55-.357c-4.918-1.227-9.596-3.177-12.047-4.28l6.489 15.989c.94-2.466 2.924-7.303 5.558-11.71zM2.891 40.755h9.22l6.299 15.519-15.52-15.52zm24.725-6.95c1.517-.325 3.034-.567 4.498-.679l-9.535-9.535c1.091 2.691 2.846 6.632 5.037 10.213zm-11.372 6.95c4.058 1.713 11.1 4.32 16.84 4.546a8.672 8.672 0 01-1.773-4.546H16.244zm-.271-1.51c4.033-1.718 11.324-4.461 17.201-4.667a8.678 8.678 0 00-1.863 4.667H15.973zM40.755 16.07c1.723 4.077 4.408 11.292 4.61 17.061a8.668 8.668 0 00-4.61-1.82V16.07zm16.053 2.873L40.755 2.892v9.154l16.053 6.899zm-11.034 7.075c-1.221-4.874-3.151-9.533-4.255-12.001l15.45 6.64c-2.586 1.004-7.076 2.897-11.195 5.361zm.36 1.549c.326 1.517.568 3.033.681 4.493l9.532-9.532c-2.694 1.092-6.634 2.848-10.213 5.039zm6.247 6.246c-1.52-.326-3.04-.568-4.503-.68l9.548-9.549c-1.093 2.695-2.852 6.645-5.045 10.23zm-5.468 11.494c5.715-.226 12.777-2.838 16.845-4.552H48.69a8.673 8.673 0 01-1.777 4.552zm1.777-6.062a8.674 8.674 0 00-1.859-4.661c5.84.209 13.13 2.943 17.175 4.66H48.69zm5.24-5.072c4.869 1.218 9.515 3.143 11.986 4.248l-6.674-15.316c-1.018 2.604-2.89 7.017-5.312 11.068zm23.18 5.072h-9.188l-7.095-16.283 16.282 16.283z"></path>
  </symbol>
  <symbol xmlns="http://www.w3.org/2000/svg" viewBox="0 0 81.414 81.407" id="Edeldorf">
    <path d="M40.707 80.708h0l-5.025-5.024 34.019-34.012.512.5-31.2 31.2 1.737 1.724 1.7-1.683-.783-.782.5-.5 3.557 3.557-5.017 5.02zm-2.2-6.844l-1.832 1.819 3.975 3.974.057.051 4.017-4.028-1.741-1.738-.039-.053-2.2 2.209-2.237-2.233zm-2.277-2.263h0L10.355 45.708l.5-.512L36.747 71.09l-.511.511zm-4.986-.35h0L10.691 50.696l.5-.5 20.557 20.557-.5.5zm14.39-.054h0l-.5-.5 25.898-25.889.5.512zm4.959-.392h0l-.5-.484 20.549-20.554.5.5-20.544 20.541zm-11.346-.606L8.198 39.152l-.053-.04-1.7 1.7 1.547 1.55.043.04.739-.727.5.5-3.555 3.552-5.012-5.026 5.012-5.011 34.034 34.012-.5.5zM5.719 36.688h0l-4.012 4.013 3.962 3.974.053.055 1.821-1.832-2.093-2.09 2.2-2.2-1.891-1.867-.04-.053zm38.114 20.338a.786.786 0 01-.78-.472l-.027-.053a1.01 1.01 0 00-.809-.444h-.063a.347.347 0 01-.3-.217v-.012a2.492 2.492 0 01.58-2.209 1.327 1.327 0 01.94-.418 1.248 1.248 0 01.315.041h.018a5.238 5.238 0 001.01.187.761.761 0 00.567-.268 4.233 4.233 0 00.607-2.169v-.053l-.055-.014a5.113 5.113 0 00-.834-.053h-.062a9.207 9.207 0 01-2.161-.229c-1.871-.508-2.169-2.436-2.345-4.715l-.018-.22a58.145 58.145 0 00-.058-.573l-.014-.055-.053-.013a4.147 4.147 0 01-3.044-1.778l-.041-.055-.04.027a13.24 13.24 0 00-3.692 2.681c-.835 1.223-.844 2.2-.028 2.9a9.225 9.225 0 001.2.788l.125.074c.953.573 1.641.987 1.736 1.441a.6.6 0 01-.081.432 4.047 4.047 0 00-.228.389l-.017.031c-.307.544-.771 1.366-1.522 1.366a1.163 1.163 0 01-.362-.061 4.725 4.725 0 00-1.415-.266 1.43 1.43 0 00-.861.225 1.251 1.251 0 00-.431.876v.068l.053.014a1.707 1.707 0 01.985.834.048.048 0 00.011.035.02.02 0 00.014.006l.015.014a3 3 0 001.01.081h.256c.323 0 .611.015.8.027.141.008.289.016.409.016a.7.7 0 00.682-.3c.125-.149.339-.466.587-.832l.14-.207.025-.04c1.365-2.027 1.818-2.612 2.1-2.722.083-.014.135-.112.149-.2s-.014-.227-.216-.349a2.132 2.132 0 00-.553-.189l-.051-.015a2.532 2.532 0 01-1.633-.955 1.393 1.393 0 01-.039-1.106c.378-1.178 2.423-1.593 3.608-1.736.015.232.043.436.068.606-.836.1-2.809.429-3.1 1.321a.743.743 0 00.013.618c.193.374.863.555 1.306.674h.01a2.873 2.873 0 01.691.254.974.974 0 01.5.941.843.843 0 01-.523.713l-.014.013a19.484 19.484 0 00-1.793 2.451l-.014.028-.153.224c-.274.4-.491.72-.629.879a1.281 1.281 0 01-1.155.53c-.136 0-.282-.009-.42-.017h-.067l-.155-.008a6.578 6.578 0 00-.45-.019h-.541c-.921 0-1.241-.064-1.445-.462a.962.962 0 00-.794-.552.3.3 0 01-.31-.31v-.026a1.963 1.963 0 01.688-1.685 2.064 2.064 0 011.217-.338 5.312 5.312 0 011.611.3.53.53 0 00.161.027c.351 0 .637-.4 1.011-1.079l.014-.026.049-.087c.053-.094.1-.182.153-.263l.028-.041-.028-.027a5.818 5.818 0 00-1.244-.892l-.17-.1a9.452 9.452 0 01-1.415-.931c-1.054-.889-1.079-2.234-.067-3.69a12.865 12.865 0 013.811-2.83l.068-.039-.041-.055a9.31 9.31 0 01-.507-.905l-.032-.07.12-.021h.006l.1-.018h.016a3.128 3.128 0 00.376-.091c.5.985 1.583 2.666 3.259 2.869l.1.014-.014-.094a7.58 7.58 0 00-.432-1.483 6.155 6.155 0 00-.311-.537c-.024-.037-.046-.075-.067-.111s-.051-.088-.082-.133a9.033 9.033 0 01-1.008-1.966l-.041-.121-.082.094a2.925 2.925 0 01-1.737 1.078 2.271 2.271 0 01-.43.039 7.123 7.123 0 01-2.415-.649l-.091-.036a5.046 5.046 0 00-1.311-.416.3.3 0 00-.091.012 1.734 1.734 0 01-.51.081 1.315 1.315 0 01-.649-.162l-.041-.014-.028.028a2.443 2.443 0 00-.86.982c-.2.422-.412.594-.726.594a1.328 1.328 0 01-.191-.016h-.007a.874.874 0 00-.139-.014.784.784 0 00-.5.231.305.305 0 01-.195.071.33.33 0 01-.047 0 .276.276 0 01-.2-.148 4.725 4.725 0 01-.392-1.966v-.176l.148-.081a5.983 5.983 0 001.505-1.24 1.789 1.789 0 01.807-1.117 1.473 1.473 0 01.687-.163 2.134 2.134 0 01.606.1 5.03 5.03 0 001.419.161c.292 0 .6-.014.926-.04l.149-.014-.095-.106a2.964 2.964 0 00-.748-.449l-.02-.01c-.081-.015-.155-.025-.215-.034s-.092-.013-.123-.019a3.121 3.121 0 01-1.952-.942l-.028-.028-.3.121-.122-.068c-.155-.085-.538-.407-.754-1.549a6.289 6.289 0 01.111-2.038l.01-.063a5.926 5.926 0 00.12-1.184l-.014-.094-.093.053a.664.664 0 01-.349.1.672.672 0 01-.216-.037 1.392 1.392 0 01-.809-.888l-.028-.04a1.278 1.278 0 00-.445-.161h-.044a.261.261 0 01-.173-.122.255.255 0 01-.043-.2l.014-.053c.142-.576.587-1.551 1.351-1.551a.969.969 0 01.226.028 3.381 3.381 0 00.46.1h.012c.81.161 1.818.362 2.048 1.118.04.129.08.292.126.48l.1.41a10.9 10.9 0 00.782 2.479 4.861 4.861 0 00.41.552l.046.055.014.014h.027c.534.127 1.829.408 2.911.566a5 5 0 00-.7.51 35.34 35.34 0 01-2.424-.5l-.042-.012c-.072-.029-.239-.1-.739-.837a9.18 9.18 0 01-.848-2.56l-.029-.12a8.04 8.04 0 01-.1-.4 7.683 7.683 0 00-.125-.46c-.126-.417-1-.578-1.577-.685-.167-.029-.325-.067-.479-.1h-.087c-.22 0-.443.251-.646.726l-.027.067.067.014a.846.846 0 01.513.432l.014.026c.119.281.214.471.445.554h.053l.014-.014a.656.656 0 01.4-.168.607.607 0 01.461.274c.273.329.17.951.04 1.738a6.149 6.149 0 00-.12 1.886 3.053 3.053 0 00.322 1l.041.04.175-.068a.321.321 0 01.118-.023.293.293 0 01.246.131s.014.013.035.037a2.3 2.3 0 00.408.381 2.49 2.49 0 001.267.485 3.91 3.91 0 011.374.43 1.837 1.837 0 01.674.634l.014.04.053-.012a13.194 13.194 0 001.806-.432l.026-.014.014-.013a6.811 6.811 0 012.972-2.096l.125-.06.053-.014c.2-.1.407-.2.623-.305s.427-.207.643-.315c1.725-.881 3.621-2.7 3.907-4.472a2.778 2.778 0 00-.405-1.953l-.173-.269.04.31a2.239 2.239 0 01-.256 1.55l-.014.025v.014a3.29 3.29 0 01-.067.808c-.218.939-1.144 1.763-2.831 2.52l-.4.179-1.068.48c-2.685 1.172-3.689 1.61-4.068 3.232a9.722 9.722 0 01-.661.175 3.607 3.607 0 012.075-2.829l.04-.027-.012-.055a3.221 3.221 0 00-.107-.361l-.014-.041a2.631 2.631 0 01-.161-.58v-.028l-.041-.027a2.385 2.385 0 01-1.065-1.184l.566-.216a1.658 1.658 0 001.064.943.506.506 0 00.087.007c.421 0 .877-.514 1.242-.928l.032-.036.1-.108a2.567 2.567 0 01.522-.5.354.354 0 01.207-.068.962.962 0 01.577.3.575.575 0 01.214.485.625.625 0 01-.175.43 5.068 5.068 0 00-.538-.538l-.041-.028-.04.041a2.875 2.875 0 00-.25.261l-.116.129-.036.041a2.89 2.89 0 01-1.578 1.134h-.08l.025.08c.013.03.022.061.031.09a.729.729 0 00.037.1c.011.038.024.076.038.115.02.058.041.117.057.181l.028.068.067-.028c.357-.183.763-.362 1.193-.552l.543-.241.308-.135c.35-.153.745-.325 1.149-.512 1.479-.673 2.317-1.38 2.493-2.1.394-1.741-1.393-2.758-1.47-2.8a.59.59 0 01.888-.121 3.9 3.9 0 01.8.929l.148.242-.027-.283a3.334 3.334 0 00-.418-1.36 2.5 2.5 0 00-1.495-1.333l-.053-.014-.041.122a51.888 51.888 0 00-.525 1.453.324.324 0 01-.3.216h-.011a15.14 15.14 0 00-2.011.323c-1.291.371-1.626.623-1.711.74l-.014.026.014.041a.582.582 0 00.088.138l.008.011.053.081 3.125-.754a.681.681 0 01-.525.754l-1.065.255-.041.014-.014.041a.365.365 0 01-.008.064.271.271 0 00-.006.044v.093l.081-.012.042-.011a.33.33 0 00.093-.031l.364-.108a.639.639 0 01.184-.027.757.757 0 01.328.08.7.7 0 01.3.352 29.51 29.51 0 00-1 .3 1.156 1.156 0 01-.357.058h-.1a.609.609 0 01-.375-.175.712.712 0 01-.163-.43v-.081l-.93.229a3.393 3.393 0 00-1.469.956.433.433 0 00-.027.391l.027.068.068-.04a.327.327 0 01.134-.028.319.319 0 01.283.162l.136.283a2.382 2.382 0 01-.662.283l-.173.055-.123-.149a1.131 1.131 0 01-.173-1.372 3.576 3.576 0 011.371-1.025l.07-.026-.041-.068a.706.706 0 01-.1-.6c.15-.432.77-.768 2.143-1.158h.014a13.765 13.765 0 011.9-.324h.04l.027-.041c.108-.317.242-.691.35-.992l.135-.38c.053-.12.081-.2.081-.2a.286.286 0 01.269-.2h.081a2.415 2.415 0 011.763.984l.149.067a3.651 3.651 0 01.729.349 4.76 4.76 0 012.453 3.02 8.428 8.428 0 01-.593 5.9l-.041.08a.31.31 0 00-.031.051l-.008.015a15.292 15.292 0 00-1.75 5.4 2.516 2.516 0 00.552 1.9 1.5 1.5 0 001.1.4h.122c1.6-.081 4.642-.936 6.1-2.517 1.316-1.437 1.126-3.415-.485-5.039l-.111-.11c-.2-.195-.4-.4-.6-.577l-.121-.12-.043-.042c-1.315-1.275-2.558-2.478-2.665-3.824 0-.029-.387-2.882.85-3.974a1.451 1.451 0 01.955-.4 1.232 1.232 0 01.526.121 2.728 2.728 0 011.265 2.4 3.751 3.751 0 01-.269 1.319l-.053.136.135-.04a1.687 1.687 0 00.888-.54 1.456 1.456 0 00.175-1.387 1.377 1.377 0 00-.228-.445 1.108 1.108 0 01-.256-.874 1.664 1.664 0 011.063 1.118 2.087 2.087 0 01-.284 1.979 2.509 2.509 0 01-1.921.827h-.166l-.4-.055a.089.089 0 01-.068-.053.087.087 0 01.012-.1l.271-.309a2.762 2.762 0 00.5-1.588 2.258 2.258 0 00-.915-1.832.646.646 0 00-.265-.059.862.862 0 00-.557.247c-.81.714-.741 2.732-.646 3.449l.014.014c.08 1.118 1.244 2.242 2.477 3.432l.043.042c.265.252.535.521.835.823 1.848 1.85 2.048 4.215.5 5.885-1.613 1.735-4.784 2.628-6.521 2.708a.641.641 0 01-.161.014 2.065 2.065 0 01-1.523-.593 3.1 3.1 0 01-.74-2.356 11.155 11.155 0 01.726-3.193l.095-.243-.2.176a13.751 13.751 0 01-2.983 1.882l-.053.027c-.34.169-.6.31-.835.445a.69.69 0 01-.041-.458.708.708 0 01.336-.4l.311-.161a9.988 9.988 0 004.311-3.476c.051-.07.093-.141.139-.216l.05-.081.053-.094a7.881 7.881 0 00.529-5.461 1.9 1.9 0 00-.066-.214c-.018-.052-.037-.106-.054-.163l-.068.028-.069.012a9.109 9.109 0 01-.12 3.315c-.533 2.217-2.244 3.391-4.648 4.471a3.729 3.729 0 00-2.4 3.3 6.216 6.216 0 00.983 2.021l.027.053c.1.156.18.292.256.418l.11.2a8.563 8.563 0 01.779 3.435c.189 2.466.535 3.786 1.9 4.163a7.866 7.866 0 002.047.2c.945.027 1.524.071 1.524.62a4.842 4.842 0 01-.821 2.748 1.319 1.319 0 01-.954.428 5.516 5.516 0 01-1.16-.208h-.03a.8.8 0 00-.166-.018.716.716 0 00-.522.234 1.927 1.927 0 00-.448 1.347l.012.053.041.014a1.554 1.554 0 011.147.821c.044.076.071.1.093.108a.429.429 0 00.15.019 3.625 3.625 0 00.4-.032c.124-.012.283-.025.472-.04.076-.006.153-.01.227-.013s.166-.007.244-.015h.147c.731-.039 1.422-.076 1.606-.5.089-.2.248-.67.433-1.212l.037-.108c.805-2.426 1.238-3.541 1.671-3.731h.04v-.039a.512.512 0 00-.04-.365 1.534 1.534 0 00-.727-.849 1.469 1.469 0 00-.528-.064c-.123 0-.253 0-.379.009h-.01c-.16.007-.3.013-.45.013a1.571 1.571 0 01-1.233-.4 1.244 1.244 0 01-.2-1.064c.065-.394.132-.735.2-1.064l.006-.028a9.5 9.5 0 00.283-2.789.656.656 0 01.432.176.586.586 0 01.2.483 12.686 12.686 0 01-.31 2.251l-.014.055c-.05.242-.093.488-.139.75l-.048.274a.662.662 0 00.068.565c.141.161.523.181.84.181.117 0 .236 0 .358-.007.148-.009.307-.018.458-.018a1.85 1.85 0 01.717.112 2 2 0 011.143 1.71.72.72 0 01-.391.674l-.026.013a15.422 15.422 0 00-1.335 3.34l-.08.239c-.173.523-.31.935-.4 1.136-.35.778-1.293.821-2.2.862h-.032a6.108 6.108 0 01-.5.025c-.105.008-.207.022-.3.034-.062.008-.12.016-.174.021a5.667 5.667 0 01-.483.028zm-13.026-19.39a.863.863 0 00-.392.089 1.207 1.207 0 00-.511.753 4.1 4.1 0 01-1.6 1.455l-.027.028V40a5.628 5.628 0 00.135 1.065l.026.081.068-.04a1.2 1.2 0 01.487-.11 1.318 1.318 0 01.254.027.145.145 0 01.068.014h.028l.025-.026a1.036 1.036 0 00.134-.229 3.093 3.093 0 011.347-1.387l.014-.014a.335.335 0 01.108-.018.278.278 0 01.229.113.572.572 0 00.4.128 1.217 1.217 0 00.364-.062.865.865 0 01.243-.034 4.893 4.893 0 011.524.444l.051.02a6.848 6.848 0 002.248.636 1.6 1.6 0 00.325-.031c1.042-.212 1.6-.966 2.115-2.032v.039l.136-.31a4.487 4.487 0 012.438-2.366c2.294-1.038 3.813-2.078 4.3-4.054a9.385 9.385 0 00.175-1.4l.03-.391-.149.363a8.827 8.827 0 01-3.964 3.982c-.331.174-.66.331-.977.482h-.009l-.362.173c-1.815.846-2.935 1.424-3.085 2.6a.787.787 0 01-.6.661 3.441 3.441 0 01.014-.849l.026-.1-.106.028a14.4 14.4 0 01-3.522.467 5.879 5.879 0 01-1.579-.162 1.412 1.412 0 00-.429-.072zm44.874 8.089L41.665 11.701l.5-.5 31.2 31.2.04.055 1.618-1.632-1.685-1.7-.04-.041-.675.661-.5-.5 3.558-3.556 5.026 5.014-5.025 5.022h0zm0-9.039h0l-1.9 1.9 2.237 2.235-2.111 2.116 1.739 1.738.04.055 4.021-4.028-3.973-3.961-.054-.055zm-63.993 3.059h0l-.484-.5 31.12-31.128-1.547-1.536-.043-.053-1.627 1.63.632.618-.5.5-3.557-3.543L40.707.708l5.011 5.025-34.029 34.012zM40.707 1.708h0L36.68 5.733l1.927 1.913 2.128-2.115 2.09 2.089 1.858-1.846.041-.041-3.977-3.973zm30.325 35.1L45.14 10.919l.5-.5 25.892 25.889-.5.5zm-60.178-.4h0l-.5-.5L36.235 10.03l.512.485-25.892 25.893zm59.9-4.662h0L50.207 11.202l.5-.494 20.542 20.537-.5.5zm-59.656-.43h0l-.5-.5 20.544-20.544.5.5-20.545 20.536z" stroke-miterlimit="10"></path>
  </symbol>
  <symbol xmlns="http://www.w3.org/2000/svg" viewBox="0 0 320 27" id="logo">
    <path fill="none" d="M0 0h320v27H0z"></path>
    <path d="M69.547 20.541V.529h7.147c6.347 0 10.4 3.653 10.4 9.953s-4.053 10.059-10.4 10.059zm19.413-7.147a7.136 7.136 0 017.52-7.571c4.267 0 6.72 2.965 6.72 6.988a14.994 14.994 0 01-.107 1.535h-9.172a3.271 3.271 0 003.414 2.594 7.4 7.4 0 004-1.483l1.814 3.388a10.149 10.149 0 01-6.189 2.119c-5.173 0-8-3.706-8-7.57zm14.987-7.253h5.12l2.24 7.676c.267.9.533 2.488.533 2.488h.053s.267-1.535.533-2.488l2.241-7.676h5.173l-4.96 14.453h-5.973zm16.586 7.253a7.136 7.136 0 017.52-7.571c4.267 0 6.72 2.965 6.72 6.988a14.994 14.994 0 01-.107 1.535h-9.172a3.271 3.271 0 003.414 2.594 7.4 7.4 0 004-1.483l1.814 3.388a10.149 10.149 0 01-6.189 2.119c-5.173 0-8-3.706-8-7.57zM137.28.529h4.907v14.082c0 1.376.267 1.853 1.333 1.853a2.409 2.409 0 00.587-.053v4.235a9.67 9.67 0 01-1.493.106c-2.614.001-5.387-.635-5.387-5.452V.529zm8.32 12.865c.053-4.554 3.68-7.571 8.266-7.571s8.267 3.07 8.267 7.571-3.68 7.517-8.267 7.517-8.266-3.017-8.266-7.517zM164.64 26.1V6.141h4.374v.741a8.007 8.007 0 01-.053.9h.053a5.486 5.486 0 014.426-2.014c3.947 0 6.56 3.07 6.56 7.57 0 4.553-2.933 7.518-6.773 7.518a5.568 5.568 0 01-3.68-1.377h-.053s.053.53.053 1.218v5.4zm-.053-19.959h.053zm17.866 0h4.694v1.275a8.115 8.115 0 01-.053.9h.053a5.2 5.2 0 014.32-2.493 4.177 4.177 0 014.053 2.436h.053a5.6 5.6 0 014.64-2.436c2.667 0 4.693 1.429 4.693 5.4v9.371H200v-8.578c0-1.059-.213-1.8-1.12-1.8-2.133 0-2.773 2.118-2.773 4.235v6.088H191.2v-8.523c0-1.059-.213-1.8-1.12-1.8-2.24 0-2.773 2.276-2.773 4.235v6.088H182.4V6.141zm24.853 7.253a7.136 7.136 0 017.52-7.571c4.267 0 6.72 2.965 6.72 6.988a14.994 14.994 0 01-.107 1.535h-9.172a3.271 3.271 0 003.414 2.594 7.4 7.4 0 004-1.483l1.814 3.388a10.149 10.149 0 01-6.189 2.119c-5.173 0-8-3.706-8-7.57zm16.801-7.253h4.693v1.271a8.117 8.117 0 01-.053.9h.053a5.2 5.2 0 014.64-2.492c2.933 0 5.227 1.324 5.227 5.4v9.371h-4.907V12.12c0-1.324-.533-1.906-1.6-1.906-2.187 0-3.147 1.8-3.147 3.865v6.512h-4.906V6.141zm18.507 4.023h-1.867V6.405h2.027V2.276h4.746v4.129h3.04v3.759h-3.04v4.447c0 1.641 1.653 1.853 2.613 1.853a3.355 3.355 0 00.64-.053v4.235a8.457 8.457 0 01-1.333.106c-2.293 0-6.827-.635-6.827-5.453z"></path>
  </symbol>
  <symbol xmlns="http://www.w3.org/2000/svg" viewBox="0 0 33.596 20.534" id="eye">
    <g fill="none" stroke="#fff" stroke-miterlimit="10" stroke-width="2">
      <path d="M16.799 1c-10.617 0-15.66 9.267-15.66 9.267s5.043 9.267 15.66 9.267 15.66-9.267 15.66-9.267S27.415 1 16.799 1z"></path>
      <path d="M16.798 3.116a6.878 6.878 0 106.9 6.878 6.888 6.888 0 00-6.9-6.878z"></path>
      <path d="M14.504 8.516a2.725 2.725 0 00-.368 1.373 2.754 2.754 0 002.759 2.751" stroke-linecap="round"></path>
    </g>
  </symbol>
  <symbol xmlns="http://www.w3.org/2000/svg" viewBox="0 0 33.455 29.454" id="settings">
    <g fill="none" stroke="#fff" stroke-miterlimit="10" stroke-width="2">
      <path d="M7.264 25.313a3.132 3.132 0 10-3.132 3.142 3.138 3.138 0 003.132-3.142zM32.455 4.141a3.132 3.132 0 10-3.132 3.143 3.138 3.138 0 003.132-3.143zM19.792 14.658A3.132 3.132 0 1016.66 17.8a3.138 3.138 0 003.132-3.142z"></path>
      <path d="M4.132 1.045v20.988M16.66 17.8v10.471m0-27.226v10.472m12.528-4.234v20.988" stroke-linecap="round"></path>
    </g>
  </symbol>
  <symbol xmlns="http://www.w3.org/2000/svg" viewBox="0 0 17 33.969" id="climate">
    <g fill="none" stroke="#fff" stroke-miterlimit="10" stroke-width="2">
      <path d="M8.5 14v8.521" stroke-linecap="round" stroke-linejoin="round"></path>
      <path d="M12.786 19.392V5.263a4.286 4.286 0 00-8.571 0v14.129A7.449 7.449 0 008.5 32.969a7.449 7.449 0 004.286-13.577z"></path>
      <path d="M11.429 25.695a2.714 2.714 0 11-2.715-2.7 2.707 2.707 0 012.715 2.7z"></path>
    </g>
  </symbol>
  <symbol xmlns="http://www.w3.org/2000/svg" viewBox="0 0 33 21.205" id="diagram">
    <g fill="none" stroke="#fff" stroke-miterlimit="10" stroke-width="2">
      <path d="M19.58 20.2h6.194V1H19.58z"></path>
      <path d="M19.581 20.204h-6.194V5.043h6.194m-6.194 15.161H7.193V9.086h6.194"></path>
      <path d="M7.194 20.204H1v-7.075h6.194M33 20.204h-4.129"></path>
    </g>
  </symbol>
  <symbol xmlns="http://www.w3.org/2000/svg" viewBox="0 0 20.397 26.344" id="Premium">
    <g fill="none" stroke="#000" stroke-miterlimit="10" stroke-width="2">
      <path d="M18.052 8.934a7.9 7.9 0 01-7.854 7.934A7.934 7.934 0 0110.197 1a7.894 7.894 0 017.855 7.934z"></path>
      <path d="M14.911 8.934a4.737 4.737 0 01-4.712 4.76 4.761 4.761 0 01-.001-9.521 4.737 4.737 0 014.713 4.761zM4.588 14.487l-3.03 7.572 3.438-.431 2.162 2.679 2.55-7.441m6.099-2.379l3.031 7.572-3.438-.431-2.158 2.679-2.554-7.441"></path>
    </g>
  </symbol>
  <symbol xmlns="http://www.w3.org/2000/svg" viewBox="0 0 18 18" id="Time">
    <g transform="translate(1 1)" fill="none" stroke="#000" stroke-miterlimit="10" stroke-width="2">
      <circle cx="8" cy="8" r="8"></circle>
      <path d="M8 8V3m5 5H7"></path>
    </g>
  </symbol>
  <symbol xmlns="http://www.w3.org/2000/svg" viewBox="0 0 20 24" id="Building">
    <path d="M20 24H0V6h1.538V1.5h3.847V0h1.538v1.5h3.847V6h7.692v3H20v15zm-6.153-3.754h3.076V22.5h1.539v-3h-4.616V18h4.615v-1.5h-4.615V15h4.615v-1.5h-4.615V12h4.615v-1.5h-6.154v12h1.539v-2.253zm-10.769 0h3.845V22.5h3.847v-15H1.538v15h1.539v-2.253zM12.307 7.5V9h4.615V7.5zM3.077 3v3H9.23V3z"></path>
    <path d="M3.846 5.25h3.846v-1.5H3.846zm-.769 5.25h6.149V9H3.077zm0 3h6.149V12H3.077zm0 3h6.149V15H3.077zm0 3h6.149V18H3.077z"></path>
  </symbol>
  <symbol fill="none" xmlns="http://www.w3.org/2000/svg" viewBox="0 0 16 23" id="location">
    <g clip-rule="evenodd" stroke="#000" stroke-width="2" stroke-linecap="round" stroke-linejoin="round">
      <path d="M8.198 21.797c0-6.088 5.78-8.43 6.343-13.594.033-.264.054-.53.054-.804A6.397 6.397 0 101.8 7.4h0v.018c.002.266.023.526.054.781.56 5.168 6.345 7.51 6.345 13.6z"></path>
      <path d="M9.798 7.4a1.6 1.6 0 11-3.198 0 1.6 1.6 0 013.198 0z"></path>
    </g>
  </symbol>
  <symbol fill="none" xmlns="http://www.w3.org/2000/svg" viewBox="0 0 160 196" id="03-icon">
    <path fill-rule="evenodd" clip-rule="evenodd" d="M5.62 172.567c1.091 0 2.131-.071 2.419-.145.4-.096.733-.307 1.091-.733.26-.359.544-1.023.544-1.474 0-.167.07-.215.189-.215l.637.074c.118.022.217.044.192.189-.074.403-.074 1.637-.074 2.467 0 1.07.1 2.208.144 2.708.023.141-.07.166-.189.189l-.57.121c-.092.023-.14-.025-.185-.192-.099-.381-.336-.926-.477-1.208-.262-.452-.832-.763-1.302-.833-.64-.096-1.376-.144-2.42-.144v1.426c0 1.281.12 3.585.12 4.011 0 1.234.258 1.664.569 1.805.355.144.803.214 1.99.214.403 0 1.399-.025 1.898-.07.47-.048 1.184-.285 1.798-.785.621-.497 1.949-1.971 2.42-2.538.095-.096.166-.122.236-.074l.403.237c.096.048.119.119.096.189l-1.065 3.586c-.074.211-.24.356-.525.356-.118 0-.64-.023-2.154-.045-1.542 0-4.054-.026-8.156-.026-.88 0-1.543.026-2.016.026-.496.022-.807.045-1.018.045-.166 0-.214-.071-.214-.26v-.5c0-.141.07-.211.236-.211h.71c1.092 0 1.185-.17 1.185-1v-7.95c0-1.971-.045-4.893-.067-5.127-.096-.762-.336-.926-.973-.926H.167c-.096 0-.118-.074-.118-.24v-.567c0-.074.022-.17.166-.17.522 0 1.347.074 3.507.074l8.32-.026c.381 0 .832-.048.95-.048.119 0 .164.048.19.122.095.33.88 3.582.972 3.819.048.119.048.17-.07.24l-.384.19c-.093.048-.211.022-.279-.097-.121-.189-2.256-2.326-2.803-2.659-.496-.308-1.161-.615-1.798-.638l-3.133-.096-.067 6.909zm19.044.497c0 .308.022 4.342.048 5.816 0 .474.092.856.403 1.304.281.429 1.088.57 1.894.57 1.376 0 3.2-.685 4.432-2.326.95-1.256 1.687-3.204 1.687-5.412 0-1.948-.807-3.941-1.92-5.175-1.258-1.4-3.344-2.16-4.72-2.16-.663 0-1.018.023-1.328.189-.356.167-.448.548-.474 1.023-.022.996-.022 4.104-.022 4.486v1.685zm-3.556-2.304c0-.615-.073-3.986-.118-4.342-.074-.57-.384-.666-.784-.666h-1.187c-.119 0-.189-.022-.189-.163v-.689c0-.097.07-.122.166-.122.308 0 1.35.074 3.725.074.615 0 2.986-.074 3.53-.074 3.225 0 5.785.285 8.038 2.16 1.565 1.307 2.656 3.278 2.656 6.03 0 2.73-.784 4.534-2.349 6.245-2.297 2.493-6.355 2.516-7.85 2.516-.377 0-3.174-.071-4.476-.071-2.064 0-3.011.071-3.344.071-.118 0-.166-.048-.166-.212v-.622c0-.092.07-.141.192-.141h1.232c.448 0 .71-.189.758-.57.07-.497.166-5.838.166-7.642v-1.782zm25.478 1.807c1.09 0 2.13-.071 2.419-.145.403-.096.733-.307 1.091-.733.26-.359.544-1.023.544-1.474 0-.167.07-.215.189-.215l.64.074c.115.022.214.044.189.189-.074.403-.074 1.637-.074 2.467 0 1.07.1 2.208.144 2.708.026.141-.07.166-.189.189l-.57.121c-.092.023-.14-.025-.185-.192-.1-.381-.336-.926-.477-1.208-.259-.452-.832-.763-1.302-.833-.64-.096-1.376-.144-2.42-.144v1.426c0 1.281.119 3.585.119 4.011 0 1.234.26 1.664.57 1.805.355.144.806.214 1.99.214.403 0 1.398-.025 1.898-.07.473-.048 1.184-.285 1.798-.785.62-.497 1.949-1.971 2.42-2.538.095-.096.169-.122.236-.074l.403.237c.1.048.119.119.1.189l-1.07 3.586c-.073.211-.24.356-.524.356-.119 0-.64-.023-2.154-.045-1.542 0-4.054-.026-8.157-.026-.88 0-1.542.026-2.016.026-.496.022-.806.045-1.017.045-.167 0-.215-.071-.215-.26v-.5c0-.141.074-.211.237-.211h.71c1.092 0 1.185-.17 1.185-1v-7.95c0-1.971-.045-4.893-.068-5.127-.096-.762-.332-.926-.972-.926h-.925c-.093 0-.119-.074-.119-.24v-.567c0-.074.026-.17.167-.17.521 0 1.347.074 3.507.074l8.323-.026c.378 0 .829-.048.947-.048.119 0 .164.048.19.122.095.33.88 3.582.972 3.819.048.119.048.17-.07.24l-.381.19c-.096.048-.215.022-.282-.097-.121-.189-2.256-2.326-2.803-2.659-.496-.308-1.158-.615-1.798-.638l-3.133-.096-.067 6.909zm18.853 1.659c0 .404 0 5.531.07 6.479h1.35c1.117 0 2.183 0 3.463-.118 1.28-.115 2.893-2.964 3.248-3.842.07-.144.14-.215.285-.144l.47.189c.074.048.074.073.051.214-.07.167-1.017 4.083-1.161 4.724-.618-.045-7.444-.071-9.626-.071-2.349 0-3.2.071-3.51.071-.167 0-.19-.045-.19-.212v-.596c0-.118.023-.163.167-.163h.736c.874 0 1.018-.334 1.018-.593 0-.455.073-6.364.073-7.812v-1.33c0-1.519-.047-4.034-.073-4.415-.045-.619-.166-.856-.71-.856h-.877c-.144 0-.167-.119-.167-.237v-.567c0-.122.023-.17.167-.17.259 0 1.113.074 3.27.074 2.774 0 3.77-.074 3.984-.074.189 0 .211.074.211.24v.545c0 .118-.048.189-.233.189h-1.117c-.733 0-.829.237-.829.878 0 .311-.07 3.896-.07 5.556v2.041zm18.368-1.162c0 .308.023 4.342.048 5.816 0 .474.093.856.403 1.304.282.429 1.089.57 1.895.57 1.376 0 3.2-.685 4.432-2.326.95-1.256 1.686-3.204 1.686-5.412 0-1.948-.806-3.941-1.92-5.175-1.257-1.4-3.344-2.16-4.72-2.16-.662 0-1.017.023-1.328.189-.355.167-.448.548-.473 1.023-.023.996-.023 4.104-.023 4.486v1.685zm-3.555-2.304c0-.615-.073-3.986-.118-4.342-.074-.57-.384-.666-.784-.666h-1.188c-.118 0-.188-.022-.188-.163v-.689c0-.097.07-.122.166-.122.307 0 1.35.074 3.725.074.614 0 2.986-.074 3.53-.074 3.225 0 5.785.285 8.038 2.16 1.565 1.307 2.653 3.278 2.653 6.03 0 2.73-.781 4.534-2.346 6.245-2.297 2.493-6.355 2.516-7.85 2.516-.377 0-3.174-.071-4.476-.071-2.064 0-3.011.071-3.344.071-.119 0-.167-.048-.167-.212v-.622c0-.092.07-.141.19-.141h1.234c.448 0 .71-.189.759-.57.07-.497.166-5.838.166-7.642v-1.782zm34.984 2.898c0-5.2-3.412-8.049-5.405-8.049-.474 0-1.661-.118-3.107 1.282-1.399 1.33-2.109 3.823-2.109 5.768 0 6.078 3.488 8.238 5.453 8.238 4.384 0 5.168-5.294 5.168-7.239zm-10.928 6.813c-1.684-1.022-3.485-3.586-3.485-7.053 0-1.445.377-3.701 2.205-5.909 2.086-2.541 4.764-3.015 6.899-3.015 1.965 0 3.789.308 5.779 1.875 1.805 1.426 3.251 3.822 3.251 7.097 0 1.734-.544 3.538-1.779 5.201-1.539 1.922-3.555 3.345-7.302 3.345-1.636 0-3.696-.378-5.568-1.541zm24.018-7.052c.454.025.736.025.95.025 3.127 0 3.866-2.992 3.866-4.107 0-1.093-.381-2.138-.899-2.66-.858-.759-1.923-1.045-2.637-1.045-.4 0-.71.048-.899.215-.144.096-.211.356-.259.641l-.122 6.931zm-3.315-2.564c0-1.756 0-3.274-.026-3.915-.025-.785-.329-1.189-.662-1.189h-.951c-.118 0-.14-.071-.14-.163v-.645c0-.118.022-.166.14-.166.215 0 .951.074 3.536.074 1.325 0 3.412-.074 4.384-.074 1.85 0 3.226.666 4.196 1.567.854.785 1.35 1.711 1.35 2.589 0 3.015-2.253 4.367-4.336 4.556v.17c.733.234 1.11.689 1.565 1.256.307.378 1.609 2.493 1.798 2.778.144.212 1.424 2.016 1.898 2.564.285.307 1.184.5 1.731.5.166 0 .189.093.189.189v.57c0 .141-.023.212-.189.212-.189 0-.806-.071-2.63-.071-.692 0-1.565.048-2.253.071-.714-.545-2.183-3.301-2.586-4.105-.806-1.615-1.776-3.374-2.915-3.374h-.806v1.211c0 1.403.073 4.06.118 4.367.048.5.237.93.592.93h.976c.163 0 .186.07.186.189v.57c0 .167-.023.212-.378.212-.026 0-.614-.071-3.107-.071-2.512 0-3.056.071-3.319.071-.185 0-.185-.071-.185-.238v-.544c0-.119 0-.189.115-.189h.71c.522 0 .948-.17.948-.763.051-2.349.051-4.579.051-6.838v-2.301z" fill="#FEFEFE"></path>
    <mask id="a" maskUnits="userSpaceOnUse" x="143" y="164" width="15" height="18">
      <path fill-rule="evenodd" clip-rule="evenodd" d="M143.276 164.683h14.327v17.046h-14.327v-17.046z" fill="#fff"></path>
    </mask>
    <g mask="url(#a)">
      <path fill-rule="evenodd" clip-rule="evenodd" d="M149.036 173.277c.924 0 1.897-.071 2.345-.141.403-.049.855-.359 1.235-.856.26-.333.426-.83.522-1.259.022-.119.096-.189.189-.189l.547.048c.093 0 .141.07.141.166-.048.404-.048 2.372-.048 2.705 0 .855.07 1.996.118 2.47 0 .119-.048.167-.166.189l-.522.119c-.093.022-.163-.048-.185-.189-.052-.192-.311-.904-.455-1.141-.281-.4-.733-.83-1.158-.948-.762-.145-1.591-.167-2.563-.167v.904c0 .711.025 4.697.025 5.008 0 .638.237.759.57.759h1.395c.144 0 .214.048.214.141v.641c0 .144-.044.192-.188.192-.237 0-1.184-.073-3.652-.073-2.323 0-3.225.073-3.58.073-.093 0-.141-.048-.141-.214v-.641c0-.096.07-.119.166-.119h.832c.496 0 .688-.096.707-.474.026-.474.096-3.467.096-7.549v-1.663c0-1.045-.048-4.39-.048-4.63 0-.449-.329-.686-.972-.686h-.97c-.141 0-.214-.048-.214-.144v-.689c0-.093.073-.141.166-.141.259 0 1.162.07 4.054.07.33 0 6.567-.07 7.706-.07.522 0 1.043-.096 1.232-.096.118 0 .189.144.237.403l.925 3.871c.022.096 0 .167-.074.189l-.474.26c-.118.051-.166 0-.332-.237-.304-.401-.877-1.164-1.847-2.182-.429-.475-1.069-.927-1.635-1.068-.595-.166-3.107-.24-4.173-.24 0 .311-.025 5.034-.025 6.482v1.116z" fill="#FEFEFE"></path>
    </g>
    <path fill-rule="evenodd" clip-rule="evenodd" d="M17.82 195.14c.237-.073.237-.259.253-.624.01-.302.01-1.116.01-1.814 0-.788-.01-1.734-.02-1.846-.016-.205-.054-.295-.208-.349-.106-.042-.278-.058-.448-.074-.026-.016-.016-.115 0-.121.26 0 .682.022.934.022h3.37c.323 0 .714-.022.851-.022.01.032.016.089 0 .112-.15.035-.275.048-.355.083-.182.054-.243.122-.253.429-.006.237-.025.952-.025 1.878 0 .708-.007 1.708.025 1.952.016.221.051.317.211.374.1.042.212.058.448.081.007.019.007.099-.019.121-.163 0-.518-.022-.883-.022-.371 0-.723.016-.915.022-.02-.006-.02-.112 0-.121.144-.013.361-.049.477-.097.121-.057.137-.179.147-.375.016-.253.006-1.666.006-2.015 0-.375.01-2-.016-2.124-.01-.033-.051-.055-.057-.055-.096-.019-2.59-.01-2.72 0-.016 0-.032.042-.032.048-.016.122-.016 1.772-.016 2.147a123 123 0 00.016 1.887c.006.276.025.446.217.503.115.032.195.048.432.081 0 .035.007.108-.016.121-.384-.006-.566-.022-.877-.022-.31 0-.761.016-.95.022a.258.258 0 010-.121c.17-.023.317-.049.413-.081zm7.066-4.829c.179 0 .412.025.86.025h1.568c.301 0 .698-.009.82-.025.01 0 .022.016.022.025-.07.266-.122.763-.144 1.032-.016.016-.106.022-.128.01a2.834 2.834 0 00-.067-.481c-.058-.196-.112-.327-.464-.343-.212-.006-1.11-.016-1.242 0-.058.01-.083.074-.083.115a57.657 57.657 0 00-.013 1.91c0 .032.006.067.023.067a19.66 19.66 0 001.302-.009c.26-.016.304-.148.346-.269.035-.09.06-.196.08-.301.025-.017.13-.01.14.009a5.234 5.234 0 00-.057.721c0 .353.019.529.019.651-.026.035-.122.041-.14.009-.017-.122-.023-.186-.049-.275-.025-.1-.057-.27-.333-.286a16.207 16.207 0 00-1.302-.006c-.016 0-.029.054-.029.064-.01.138 0 1.349.013 1.83.01.211.118.275.198.291.164.032.455.048 1.03.048.497 0 .593-.105.698-.208.122-.109.31-.416.439-.734.019-.006.09.032.105.058-.041.26-.243.862-.332 1.016-.049.08-.074.09-.487.09-.406 0-.66-.026-1.926-.026-.541 0-.74.026-1.047.026-.019-.017-.022-.097 0-.122.205-.016.368-.026.512-.064.195-.052.263-.141.282-.475.01-.121.02-1.079.02-2.038 0-.807-.01-1.589-.02-1.711-.016-.323-.045-.397-.25-.445a2.238 2.238 0 00-.374-.064c-.026-.019-.016-.099.01-.115zm7.121 2.764c0-.007.016-.042.023-.042.09.016.176.035.365.035.268 0 .432-.041.601-.137.407-.237.506-.638.506-1.093 0-.74-.346-1.349-1.408-1.349-.087 0-.269.01-.323.032-.026.01-.052.042-.058.106-.01.195-.026.804-.026 1.913 0 .528-.022 1.455 0 2.095.01.449.084.481.336.529.112.026.26.042.372.058.035.016.025.115.01.122-.202 0-.676-.023-.967-.023-.359 0-.797.023-.935.023-.025-.016-.032-.106-.01-.122.154-.016.286-.032.382-.058.172-.048.262-.032.284-.493.016-.247.036-.693.036-1.897 0-.497.006-1.593-.01-1.82-.016-.279-.048-.407-.253-.455a2.616 2.616 0 00-.403-.068c-.01-.025.006-.112.022-.121.138 0 .503.025.877.025.39 0 .656-.016 1.104-.016.285 0 .746.064 1.04.298.253.205.474.522.48 1.035.01.756-.413 1.205-.845 1.416-.25.113-.476.17-.77.17-.122 0-.27-.009-.36-.041a.33.33 0 01-.07-.122zm3.941-2.764c.154 0 .477.025.934.025.439 0 .615-.019.836-.025.019.025.019.096 0 .121-.1.01-.266.042-.35.068-.16.048-.217.112-.227.346-.01.131-.015 1.547-.015 1.865 0 1.666-.01 2.13.025 2.268.016.071.064.08.08.087.09.019 1.616.025 1.715.019.055-.01.112-.035.122-.106.022-.311.022-1.58.022-2.278 0-.788 0-1.746-.01-1.862-.012-.202-.044-.253-.169-.311-.102-.048-.211-.064-.422-.096-.016-.032-.016-.096 0-.121.115 0 .285.025.86.025.439 0 .612-.019.836-.025.019.032.01.096-.007.121a2.35 2.35 0 00-.355.058c-.163.048-.205.138-.211.372-.016.131-.026 1.531-.026 1.849 0 1.666.01 2.057.026 2.252 0 .032.029.103.09.103.3.019 1.66.035 1.782 0 .026-.007.041-.029.051-.064.026-.186.016-.635.016-2.154 0-.384-.01-1.935-.016-2.066-.01-.122-.064-.228-.189-.27-.105-.038-.243-.054-.39-.08a.195.195 0 010-.121c.157 0 .505.025.88.025.323 0 .72-.025.851-.025.016.016.016.096 0 .121-.154.032-.297.048-.39.08-.167.058-.208.148-.218.459-.01.224-.026.916-.026 1.845 0 1.372 0 1.699.017 1.984.019.218.06.285.21.339.11.042.292.068.449.084.016.025.016.096-.016.122-.324 0-.522-.026-.823-.026h-4.992c-.31 0-.77.016-.96.026-.016-.01-.016-.106 0-.122.173-.026.327-.048.423-.084.236-.073.227-.211.243-.576.01-.302.02-1.164.02-1.862 0-.788-.01-1.73-.02-1.846-.016-.205-.048-.269-.17-.327-.105-.048-.313-.07-.486-.086-.026-.016-.016-.115 0-.131zm11.175.658c-.128.34-.534 1.554-.656 1.91 0 .032.006.051.032.058.07.009.275.009.713.009.18 0 .496 0 .535-.009.01 0 .026-.026.016-.058-.192-.618-.486-1.56-.608-1.916-.007 0-.032 0-.032.006zm-1.542 3.512c.495-1.169 1.225-3.259 1.404-3.749a2.28 2.28 0 00.112-.407c.01 0 .077.01.19.01.12 0 .175-.01.185-.01.016.074.048.205.099.359.147.407 1.085 3.368 1.331 3.967.211.481.243.506.787.57.016.026.01.106-.016.122-.205-.006-.665-.022-.854-.022-.192 0-.73.006-.9.022-.009-.016-.015-.102 0-.122.164-.022.292-.041.407-.08.128-.057.128-.115.096-.227-.09-.35-.397-1.221-.553-1.67 0 0-.045-.038-.055-.038-.083-.01-.253-.01-.758-.01-.541 0-.583 0-.666.01-.022 0-.054.032-.064.058-.163.423-.493 1.317-.528 1.55-.022.148-.032.279.237.343.096.023.17.042.342.064.013.02.01.106-.01.122-.143 0-.569-.022-.924-.022-.397 0-.643.022-.765.022-.022-.006-.022-.102 0-.122.57-.073.65-.137.903-.74zm9.076.001c.496-1.17 1.236-3.253 1.405-3.724.058-.163.1-.327.115-.432.01 0 .074.009.186.009.121 0 .18-.009.189-.009.016.073.044.227.096.384.147.436 1.088 3.342 1.33 3.941.212.481.244.507.788.571.02.025 0 .115-.016.122a36.807 36.807 0 00-.851-.023c-.195 0-.74.007-.909.023-.006-.016-.016-.106 0-.122a2.33 2.33 0 00.403-.08c.132-.058.132-.116.1-.228-.154-.548-.957-2.986-1.268-3.919 0-.009-.025 0-.032 0-.22.657-1.12 3.137-1.292 3.634-.122.34-.042.471.204.529.096.022.132.032.343.064.016.016.006.106-.01.122-.147 0-.56-.023-.918-.023-.397 0-.64.023-.762.023-.016-.007-.016-.116 0-.122.566-.074.65-.138.9-.74zm6.082-4.171c.147 0 .57.025.94.025.343 0 .586-.025.781-.025.016.025.026.096.007.121-.122.016-.26.032-.33.048-.18.048-.214.17-.23.423a83.099 83.099 0 00-.006 3.801c.015.25.04.387.242.445.116.032.263.058.413.074.026.025.01.105-.01.122-.166 0-.46-.026-.815-.026-.397 0-.56.026-.983.026-.025-.026-.019-.106 0-.122.112-.01.266-.036.362-.058.205-.042.237-.163.253-.349.016-.196.025-1.602.025-2.278 0-.609 0-1.244-.016-1.619-.025-.195-.019-.365-.201-.413a3.716 3.716 0 00-.442-.074c-.022-.016-.006-.105.01-.121zm3.978 0c.259 0 .681.025.934.025.439 0 .615-.019.835-.025.016.025.016.105-.006.121-.1.01-.253.032-.336.058-.16.048-.227.087-.234.356-.019.327-.019.878-.019 1.727 0 .032.02.054.035.064.016.009.128.016 1.51.016.804 0 1.274 0 1.348-.007.016 0 .032-.035.032-.041 0-.426 0-1.561-.016-1.814-.01-.154-.048-.243-.16-.285a2.33 2.33 0 00-.416-.074c-.026-.025-.026-.096 0-.121.157 0 .496.025.867.025.336 0 .733-.025.864-.025.016.025.026.096 0 .121-.147.026-.278.042-.368.074-.17.058-.233.112-.243.465-.01.224-.026.916-.026 1.845 0 .705.01 1.715.026 1.958.016.221.058.311.211.365.106.042.211.058.445.084.02.025.02.096-.016.122-.323 0-.518-.026-.893-.026-.371 0-.71.016-.909.026-.025-.033-.016-.097 0-.122.138-.016.253-.026.407-.064.173-.052.211-.116.217-.407.01-.205.01-1.279.01-1.782 0-.032-.016-.058-.032-.058-.115-.006-.934-.006-1.363-.006-.57 0-1.408 0-1.495.006-.016 0-.035.042-.035.049 0 .416.01 1.554.02 1.675.022.279.006.439.204.497.112.032.176.054.445.09.016.025 0 .112-.026.122-.252-.01-.56-.026-.867-.026-.31 0-.765.016-.95.026-.026-.026-.026-.097 0-.122.17-.026.317-.048.413-.084.236-.073.236-.259.252-.624.007-.302.007-1.116.007-1.814 0-.788-.007-1.73-.016-1.846-.016-.243-.087-.317-.208-.349-.122-.032-.247-.042-.448-.074-.026-.025-.02-.096 0-.121zm7.45 0c.147 0 .57.025.944.025.339 0 .585-.025.777-.025.016.025.026.096.01.121-.122.016-.26.032-.333.048-.18.048-.211.17-.23.423a55.552 55.552 0 00-.023 1.865c0 .763.007 1.666.016 1.936.016.25.042.387.243.445.116.032.263.058.413.074.026.025.01.105-.006.122-.17 0-.46-.026-.82-.026-.396 0-.56.026-.982.026-.025-.026-.016-.106 0-.122.112-.01.27-.036.365-.058.205-.042.234-.163.25-.349.019-.196.025-1.602.025-2.278 0-.609 0-1.244-.016-1.619-.025-.195-.016-.365-.201-.413a3.757 3.757 0 00-.439-.074c-.025-.016-.01-.105.007-.121zm6.581.178c-.592 0-1.037.365-1.037 1.057 0 1.18.989 1.292 1.626 1.269.012 0 .038-.025.038-.041 0-.535 0-1.852-.026-2.131 0-.032-.032-.08-.08-.096-.096-.032-.236-.058-.521-.058zm1.43 0c-.157.032-.285.106-.294.311a97.356 97.356 0 00-.023 2.079c0 .433.02 1.596.023 1.814.01.301.083.423.278.471.09.026.253.042.368.058.016.006.007.115-.01.122-.121 0-.579-.023-.905-.023-.34 0-.746.023-.842.023-.006-.016-.016-.106 0-.122.202-.023.27-.042.375-.064.147-.052.201-.116.217-.465.016-.301.01-1.211.01-1.644 0-.016-.02-.054-.038-.054-.141 0-.157 0-.285.016-.279.032-.448.195-.563.343-.372.477-.884 1.259-1.194 1.592-.147.17-.25.244-.371.292-.24.106-.66.147-.944.131-.016-.009-.026-.099-.016-.115.374-.032.432 0 .838-.439.371-.407 1.168-1.657 1.523-1.83.01-.006.02-.016 0-.032-.64-.154-1.158-.609-1.158-1.326 0-.731.534-1.308 1.642-1.308.281 0 .704.016.953.016.215 0 .544-.025.743-.025.016.009.025.109 0 .121a7.65 7.65 0 00-.327.058zm5.726 4.651c.234-.073.234-.259.25-.624.01-.302.01-1.116.01-1.814 0-.788-.01-1.734-.017-1.846-.019-.205-.057-.295-.21-.349-.106-.042-.276-.058-.449-.074-.025-.016-.016-.115 0-.121.26 0 .682.022.935.022h3.37c.322 0 .713-.022.85-.022.01.032.016.089 0 .112-.15.035-.272.048-.355.083-.179.054-.243.122-.252.429-.007.237-.023.952-.023 1.878 0 .708-.01 1.708.022 1.952.02.221.052.317.212.374.099.042.21.058.448.081.006.019.006.099-.016.121-.163 0-.522-.022-.887-.022-.37 0-.723.016-.915.022-.016-.006-.016-.112 0-.121.147-.013.365-.049.477-.097.121-.057.138-.179.147-.375.016-.253.006-1.666.006-2.015 0-.375.01-2-.016-2.124-.006-.033-.047-.055-.054-.055-.1-.019-2.592-.01-2.72 0-.02 0-.035.042-.035.048-.016.122-.016 1.772-.016 2.147 0 .333.01 1.56.016 1.887.01.276.025.446.22.503.116.032.196.048.43.081 0 .035.01.108-.016.121-.381-.006-.567-.022-.877-.022-.31 0-.762.016-.95.022a.258.258 0 010-.121c.172-.023.316-.049.415-.081zm7.063-4.829c.179 0 .416.025.86.025h1.569c.3 0 .7-.009.822-.025.006 0 .02.016.02.025-.071.266-.122.763-.142 1.032-.019.016-.108.022-.13.01a2.834 2.834 0 00-.068-.481c-.058-.196-.112-.327-.464-.343-.211-.006-1.11-.016-1.238 0-.061.01-.087.074-.087.115-.013.292-.019 1.836-.013 1.91 0 .032.007.067.023.067.205.013 1.065.007 1.302-.009.26-.016.307-.148.349-.269.032-.09.058-.196.08-.301.022-.017.128-.01.138.009a5.323 5.323 0 00-.055.721c0 .353.016.529.016.651-.025.035-.121.041-.137.009-.02-.122-.026-.186-.052-.275-.025-.1-.057-.27-.332-.286a16.127 16.127 0 00-1.3-.006c-.019 0-.032.054-.032.064-.006.138 0 1.349.013 1.83.01.211.119.275.199.291.163.032.454.048 1.03.048.496 0 .595-.105.698-.208.121-.109.31-.416.441-.734.016-.006.087.032.106.058-.042.26-.247.862-.336 1.016-.048.08-.07.09-.487.09-.406 0-.656-.026-1.926-.026-.54 0-.736.026-1.046.026-.016-.017-.023-.097 0-.122.204-.016.368-.026.512-.064.195-.052.262-.141.284-.475a96.54 96.54 0 00.016-2.038c0-.807-.01-1.589-.016-1.711-.019-.323-.048-.397-.252-.445a2.238 2.238 0 00-.375-.064c-.022-.019-.016-.099.01-.115zm5.537 0c.148 0 .413.025.855.025.371 0 .64-.025.745-.025.016.016.016.096 0 .121-.39.068-.438.132-.457.292-.013.163-.007.718 0 1.019.025.974.707 1.054 1.193 1.054.304 0 .676-.064.944-.202a.1.1 0 00.016-.041c0-.545.01-1.43-.016-1.74-.012-.218-.064-.276-.259-.334a2.89 2.89 0 00-.317-.048c-.016-.016-.016-.105 0-.121.237 0 .48.025.861.025.496 0 .707-.025.861-.025.026.016.026.105.01.121a3.836 3.836 0 00-.368.074c-.176.048-.237.112-.244.397a94.377 94.377 0 00-.025 1.865s.009 1.74.025 2.057c.016.17.058.282.276.34.099.022.22.042.38.058.02.025.01.105-.012.122-.221 0-.423-.026-.829-.026-.512 0-.698.026-.967.026-.016-.01-.016-.122 0-.122a3.62 3.62 0 00.356-.048c.23-.052.252-.164.259-.628.009-.423.009-1.308.009-1.779 0-.009-.016-.041-.025-.035-.371.205-.842.349-1.264.349-.487 0-.893-.089-1.178-.461-.121-.164-.205-.417-.205-.904 0 0-.01-.609-.01-.804 0-.237-.044-.375-.28-.433a2.819 2.819 0 00-.343-.048c-.016-.032-.016-.089.01-.121zm6.753 0c.183 0 .416.025.864.025h1.565c.304 0 .701-.009.822-.025.007 0 .023.016.023.025-.074.266-.122.763-.144 1.032-.016.016-.109.022-.131.01a2.774 2.774 0 00-.068-.481c-.057-.196-.112-.327-.464-.343-.208-.006-1.11-.016-1.238 0-.058.01-.083.074-.083.115a56.11 56.11 0 00-.013 1.91c0 .032.003.067.019.067.205.013 1.066.007 1.303-.009.259-.016.307-.148.348-.269.032-.09.058-.196.08-.301.026-.017.132-.01.138.009a5.4 5.4 0 00-.054.721c0 .353.016.529.016.651-.026.035-.122.041-.138.009a1.745 1.745 0 00-.051-.275c-.023-.1-.058-.27-.33-.286a16.202 16.202 0 00-1.302-.006c-.016 0-.029.054-.029.064-.01.138 0 1.349.013 1.83.006.211.115.275.195.291.163.032.458.048 1.03.048.496 0 .596-.105.701-.208.122-.109.307-.416.439-.734.016-.006.089.032.105.058-.041.26-.243.862-.336 1.016-.045.08-.07.09-.486.09-.407 0-.656-.026-1.927-.026-.54 0-.736.026-1.046.026-.016-.017-.022-.097 0-.122.205-.016.368-.026.512-.064.195-.052.262-.141.285-.475a99.61 99.61 0 00.016-2.038c0-.807-.01-1.589-.016-1.711-.016-.323-.048-.397-.253-.445a2.192 2.192 0 00-.371-.064c-.026-.019-.016-.099.006-.115zm7.122 2.764c0-.007.016-.042.026-.042.086.016.176.035.365.035.265 0 .428-.041.601-.137.407-.237.503-.638.503-1.093 0-.74-.343-1.349-1.405-1.349-.09 0-.269.01-.323.032-.026.01-.052.042-.061.106-.007.195-.023.804-.023 1.913 0 .528-.022 1.455 0 2.095.007.449.084.481.333.529.115.026.259.042.375.058.032.016.025.115.006.122-.202 0-.672-.023-.966-.023-.356 0-.797.023-.935.023-.025-.016-.029-.106-.006-.122.153-.016.285-.032.381-.058.169-.048.262-.032.284-.493.016-.247.032-.693.032-1.897 0-.497.01-1.593-.006-1.82-.019-.279-.048-.407-.253-.455a2.644 2.644 0 00-.406-.068c-.01-.025.009-.112.025-.121.138 0 .503.025.874.025.39 0 .659-.016 1.107-.016.285 0 .746.064 1.04.298.25.205.471.522.48 1.035.01.756-.416 1.205-.845 1.416-.252.113-.48.17-.771.17-.121 0-.269-.009-.361-.041a.385.385 0 01-.071-.122zm7.916-2.513c-.269-.131-.586-.185-1.031-.185-1.286 0-2.038.91-2.038 2.332 0 1.561.893 2.522 2.314 2.522.236 0 .649-.026.972-.333.221-.212.343-.407.528-.731.026-.009.119.029.119.064-.119.42-.442.99-.611 1.064-.228.074-.676.17-1.162.17-1.731 0-2.755-.974-2.755-2.682 0-.884.384-1.74 1.27-2.214.429-.234.957-.381 1.658-.381.63 0 1.117.131 1.481.163-.054.237-.137.83-.147 1.147-.013.022-.141.048-.141.016-.083-.676-.204-.83-.457-.952zm6 3.424c0-.868-.464-1.317-1.472-1.317-.266 0-.282.006-.371.016-.016 0-.036.042-.036.058 0 .503 0 1.756.02 2.063.006.074.022.148.08.196.179.131.464.163.656.163.812 0 1.123-.554 1.123-1.179zm-2.592 1.153c.163-.038.179-.137.205-.429.016-.259.025-.82.025-1.926 0-1.253 0-1.692-.019-1.97-.016-.218-.083-.285-.205-.314-.144-.042-.323-.058-.397-.068-.016-.016-.006-.105.01-.121.25.006.518.025.845.025.339 0 .64-.032.838-.032.016.023.016.096 0 .122a5.876 5.876 0 00-.352.054c-.176.049-.211.138-.217.433-.01.34-.02.846-.02 1.551 0 .019.026.035.026.035.339-.025.643-.035.877-.035 1.088 0 1.536.644 1.536 1.326 0 .661-.371 1.18-1.031 1.433-.236.09-.473.138-1.024.138-.364 0-1.11-.016-1.6-.016-.016-.01-.025-.106 0-.122.18-.026.327-.042.503-.084zm5.329.042c.311-.058.327-.196.34-.609.009-.375.016-1.586.016-1.919 0-.334 0-1.433-.016-1.766-.007-.211-.023-.349-.25-.397a2.75 2.75 0 00-.374-.058c-.026-.026-.016-.115.009-.122.163 0 .535.026.89.026.39 0 .646-.032.79-.026.032.007.042.116 0 .122-.153.026-.179.026-.281.048-.247.048-.256.18-.263.465-.006.317-.006 1.243-.006 1.708 0 .016.006.032.029.032.528 0 .716-.154.844-.343.164-.234.253-.388.416-.715.535-1.099.839-1.439 1.341-1.439.042 0 .17.042.227.09.016.007.048.074.048.09 0 .131-.057.372-.112.445-.025.032-.067.048-.076.042-.087-.058-.292-.163-.413-.163-.234 0-.381.147-.659.692-.346.682-.599 1.128-.842 1.291-.01.01-.016.026-.01.035.122.064.221.16.365.35.359.487.711.951 1.091 1.429.567.708.711.717 1.29.733.032 0 .016.122-.01.122-.192.032-.835-.009-.95-.025a.694.694 0 01-.461-.218c-.275-.269-.797-1.026-1.357-1.782-.233-.317-.406-.487-.748-.487-.007 0-.023.016-.023.032 0 .407.01 1.545.016 1.894.007.279.048.343.269.4.096.023.17.039.349.064.032.026.025.106 0 .122-.122 0-.618-.025-.925-.025-.294 0-.611.016-.854.025-.032 0-.032-.115-.016-.122l.316-.041zm8.607-4.212c-.132.34-.538 1.554-.66 1.91 0 .032.01.051.036.058.07.009.275.009.71.009.179 0 .499 0 .538-.009.006 0 .025-.026.016-.058-.192-.618-.487-1.56-.608-1.916-.01 0-.032 0-.032.006zm-1.543 3.512c.493-1.169 1.223-3.259 1.405-3.749.058-.163.096-.298.112-.407.006 0 .074.01.189.01.121 0 .176-.01.182-.01.019.074.051.205.103.359.144.407 1.084 3.368 1.331 3.967.208.481.243.506.787.57.016.026.006.106-.016.122-.205-.006-.666-.022-.854-.022-.196 0-.73.006-.903.022-.006-.016-.016-.102 0-.122.163-.022.295-.041.407-.08.131-.057.131-.115.096-.227-.087-.35-.397-1.221-.551-1.67 0 0-.048-.038-.054-.038-.083-.01-.253-.01-.759-.01-.54 0-.582 0-.665.01-.023 0-.055.032-.064.058-.163.423-.496 1.317-.528 1.55-.026.148-.032.279.233.343.1.023.173.042.346.064.013.02.006.106-.01.122-.147 0-.569-.022-.924-.022-.4 0-.647.022-.768.022-.02-.006-.02-.102 0-.122.569-.073.649-.137.905-.74zm7.921-111.743l-3.245-3.25 3.949-3.953-4.176-4.179 3.545-3.553.103.102 7.417 7.405-7.52 7.53-.073-.102zm.073-16.797l-6.64 6.649.931.932 1.261-1.236.074.076 3.145 3.173-3.02 3.05-.074-.102-58.25-58.328-.927.932 63.5 63.615 9.383-9.392-9.383-9.369zM13.486 82.84l-.1-.103-7.395-7.427 7.495-7.505.073.1 3.523 3.502-4.099 4.105 3.9 3.903-3.397 3.425zm4.33-4.358l-.08-.074-2.89-2.896 3.168-3.173.099.074 57.97 58.049.935-.932-63.532-63.59-9.357 9.37 9.357 9.395 6.64-6.65-.932-.932-1.379 1.36z" fill="#FEFEFE"></path>
    <path fill-rule="evenodd" clip-rule="evenodd" d="M87.076 19.627l48.336 48.404.931-.933-48.336-48.404-.93.933zm48.741 38.003L97.465 19.225l-.932.929 38.356 38.407.928-.933zm-64.41 74.494L23.071 83.72l-.93.958 48.31 48.404.956-.958zm-48.64-38.129l38.377 38.433.931-.933-38.377-38.432-.931.932zm64.309 37.399l.931.932 48.336-48.378-.931-.958-48.336 48.404zm9.256-.706l.932.907 38.352-38.406-.931-.93-38.353 38.429zM71.407 18.871l-.956-.907-48.31 48.379.93.932 48.336-48.404zm-9.531.479l-.931-.933-38.352 38.407.931.933L61.876 19.35z" fill="#FEFEFE"></path>
    <path fill-rule="evenodd" clip-rule="evenodd" d="M83.051 137.463l3.248 3.249-7.497 7.53-.1-.099-7.42-7.431 3.42-3.4 4.173 4.182 4.103-4.131.073.1zm-2.464-2.468l1.463 1.462-3.175 3.146-3.241-3.223 58.249-58.325-.957-.932-63.507 63.589 9.383 9.395 9.356-9.395-6.64-6.649-.93.932z" fill="#FEFEFE"></path>
    <mask id="b" maskUnits="userSpaceOnUse" x="23" y="0" width="66" height="74">
      <path fill-rule="evenodd" clip-rule="evenodd" d="M23.724.539h64.432V73.52H23.724V.54z" fill="#fff"></path>
    </mask>
    <g mask="url(#b)">
      <path fill-rule="evenodd" clip-rule="evenodd" d="M71.282 9.93l7.52-7.53.074.103 7.42 7.428-.076.077-3.469 3.45-3.9-3.905-3.972 3.954-3.597-3.576zm5.71 5.691l-1.182-1.156 3.04-3.047.08.099 2.89 2.87-58.096 58.204.905.929L88.156 9.93 78.802.537 69.42 9.93l6.64 6.623.931-.932z" fill="#FEFEFE"></path>
    </g>
    <path fill-rule="evenodd" clip-rule="evenodd" d="M87.78 56.145a17.837 17.837 0 01-.327 2.618c-.906 3.704-3.744 5.642-8.023 7.58-2.214.981-3.721 2.468-4.55 4.432l-.253.58v-.073c-1.033 2.14-2.09 3.422-3.949 3.8-1.334.279-3.27-.503-4.803-1.131-1.485-.58-2.614-1.035-3.395-.807-.883.278-1.334-.026-1.434-.126-.15-.201-.403-.253-.63-.176l-.026.026c-.073.026-1.61.756-2.515 2.592-.125.253-.198.378-.25.43l-.047.048h-.052c-.054-.026-.102-.026-.128-.026a2.157 2.157 0 00-1.382.154l-.128.073-.048-.15a10.357 10.357 0 01-.253-1.99v-.074l.051-.051c1.76-1.134 2.816-2.115 2.995-2.72.199-.705.528-1.157.954-1.41.4-.202.906-.228 1.533-.026 1.962.58 6.137.352 9.51-.554l.199-.052-.048.18a6.533 6.533 0 00-.026 1.586c.602-.15 1.056-.631 1.13-1.237.278-2.188 2.361-3.271 5.76-4.858.832-.403 1.66-.781 2.515-1.233 2.54-1.31 5.984-4.031 7.395-7.457l.278-.679-.054.73zm1.407 8.158l.077-.15c1.658-3.147 2.112-7.582 1.107-11.03-.78-2.647-2.365-4.608-4.576-5.694a6.9 6.9 0 00-1.36-.654l-.278-.125c-1.002-1.185-2.163-1.839-3.293-1.839h-.15a.535.535 0 00-.503.378s-.051.15-.15.378c-.205.58-.608 1.689-.906 2.567l-.051.077h-.074a26.17 26.17 0 00-3.548.605h-.026c-2.563.731-3.722 1.359-4 2.166-.125.375-.048.731.18 1.132l.076.128-.131.048c-.826.404-1.959 1.035-2.56 1.916-.656 1.006-.128 2.09.323 2.567l.23.278.323-.102c.077 0 .43-.1 1.236-.529l-.253-.529a.609.609 0 00-.778-.25l-.128.074-.05-.125c-.1-.275-.078-.528.05-.73.55-.83 2.036-1.535 2.743-1.788l1.734-.426v.15c.026.327.125.603.304.804.173.177.422.302.7.327.254.026.555 0 .855-.1a72.52 72.52 0 011.863-.553 1.291 1.291 0 00-.554-.657c-.304-.148-.627-.199-.957-.1l-.678.202c-.1.051-.173.051-.253.077l-.15.023v-.173c0-.052.025-.129.025-.202l.026-.077.077-.026 1.987-.477a1.274 1.274 0 00.98-1.41l-5.835 1.41-.099-.15c-.076-.103-.153-.203-.179-.28l-.026-.077.026-.048c.128-.176.656-.653 3.194-1.384 1.558-.378 3.043-.529 3.776-.605a.6.6 0 00.553-.404c.276-.804.701-1.99.98-2.717l.076-.228.1.026c1.004.202 2.038 1.13 2.79 2.493.454.83.733 1.736.78 2.54l.052.53-.278-.453c-.375-.63-.906-1.233-1.485-1.736a1.13 1.13 0 00-.727-.279c-.38 0-.73.202-.93.506.626.35 3.42 2.24 2.742 5.236-.33 1.362-1.888 2.67-4.653 3.929-.983.455-1.914.855-2.72 1.21-1.232.555-2.31 1.007-3.242 1.484l-.125.052-.05-.125c-.052-.202-.126-.378-.177-.555-.051-.102-.077-.227-.128-.352l-.048-.15h.15c1.258-.154 2.263-1.337 3.018-2.192.253-.28.477-.555.682-.731l.073-.077.077.051c.224.176.602.555 1.005 1.007a1.17 1.17 0 00.326-.805 1.075 1.075 0 00-.4-.907c-.909-.804-1.312-.528-1.462-.429-.378.227-.727.657-1.155 1.134-.755.856-1.687 1.939-2.541 1.788-1.155-.176-1.811-1.384-1.987-1.762l-1.056.404c.15.378.777 1.634 1.987 2.214l.077.051v.051c.048.353.173.757.3 1.083.077.225.177.504.228.754l.022.102-.073.051c-2.39 1.359-3.421 2.743-3.876 5.287.43-.102.832-.201 1.236-.326.704-3.022 2.588-3.855 7.593-6.044.832-.378 1.738-.782 2.743-1.233 3.145-1.413 4.88-2.974 5.283-4.71.099-.504.15-1.01.124-1.513v-.026l.026-.048c.477-.756.653-1.74.477-2.897l-.074-.58.323.504c.708 1.134.957 2.367.756 3.652-.528 3.275-4.048 6.7-7.293 8.36-.806.404-1.61.782-2.365 1.16l-.1.026c-2.412 1.157-4.703 2.214-5.785 3.977l-.025.025-.048.026a24.675 24.675 0 01-3.373.807l-.1.023-.025-.074c-.227-.327-.653-.907-1.258-1.186-1.055-.602-2.313-.778-2.566-.804-.88-.1-1.683-.378-2.365-.907-.553-.403-.803-.781-.828-.781a.556.556 0 00-.679-.202l-.326.128-.077-.077c-.176-.301-.426-.856-.602-1.862-.179-.958.026-2.32.224-3.528.253-1.535.43-2.643-.073-3.249-.48-.602-1.008-.68-1.61-.199l-.026.026h-.099c-.429-.154-.608-.506-.832-1.035l-.025-.048c-.125-.33-.451-.606-.957-.808l-.125-.025.051-.125c.224-.529.653-1.359 1.207-1.359h.128c.3.074.605.148.928.202 1.21.224 2.716.529 2.944 1.282.124.378.25.958.428 1.612.4 1.688.928 4.005 1.636 5.011.953 1.41 1.254 1.513 1.379 1.564l.08.022c.074.026 2.31.555 4.525.933a9.28 9.28 0 011.308-.955c-1.913-.279-4.275-.782-5.433-1.057h-.051l-.026-.026c-.1-.128-.374-.404-.851-1.135-.554-.833-1.107-3.124-1.46-4.633-.178-.68-.303-1.26-.428-1.663-.429-1.41-2.314-1.788-3.824-2.09h-.023a6.259 6.259 0 01-.857-.179c-1.66-.4-2.64 1.615-2.944 2.849l-.026.1a.479.479 0 00.08.378.49.49 0 00.324.227h.099c.256.048.681.176.832.301l.05.077c.2.503.58 1.333 1.511 1.66.378.128.727.077 1.056-.125l.173-.1.026.177c.05.4-.074 1.31-.224 2.214-.205 1.285-.455 2.772-.227 3.928.425 2.244 1.183 2.772 1.407 2.897l.228.128.553-.227.052.051a5.791 5.791 0 003.644 1.763c.125.025.352.048.63.099.049.025 1.006.455 1.434.859l.176.198-.278.026c-1.811.15-3.42.077-4.378-.224-.93-.28-1.734-.228-2.413.125-.703.4-1.206 1.083-1.507 2.089-.179.43-1.61 1.538-2.819 2.317l-.275.15v.33c0 .25.026 2.567.73 3.675a.509.509 0 00.377.276.565.565 0 00.451-.125c.63-.503.906-.452 1.207-.404.704.103 1.206-.022 1.712-1.083.477-.98 1.206-1.586 1.606-1.836l.051-.051.077.026c.352.201 1.107.477 2.163.15.375-.125 1.408.276 2.618.756 1.782.705 3.795 1.535 5.482 1.208 1.308-.278 2.339-.906 3.241-2.015l.154-.176.077.227c.272.984 1.004 2.243 1.881 3.675.106.154.18.305.278.455.077.1.43.705.58 1.007.176.403.502 1.285.806 2.771l.026.177-.18-.026c-3.12-.378-5.13-3.477-6.083-5.364-.23.077-.48.125-.732.176l-.43.074c.231.455.554 1.112 1.009 1.813l.076.103-.127.074c-1.684.907-5.71 3.223-7.114 5.29-1.888 2.72-1.84 5.24.125 6.899.678.58 1.709 1.211 2.64 1.74.93.577 2.336 1.41 2.64 1.862l.05.05-.05.078c-.125.198-.25.426-.378.653l-.025.049c-.83 1.512-1.409 2.217-2.19 1.967-2.39-.782-4.147-.73-5.28.074-.854.63-1.282 1.714-1.282 3.149v.049c0 .33.252.579.579.579.88 0 1.356.782 1.481 1.032.43.833 1.11.885 3.399.859.553-.026 1.03.026 1.433.048h.125c1.206.077 2.138.103 2.94-.958.305-.349.807-1.105 1.46-2.064l.026-.051c1.36-2.038 2.867-4.23 3.347-4.582l.025-.026c.528-.201.932-.73.98-1.336.077-.701-.279-1.358-.931-1.759-.327-.202-.781-.33-1.31-.48-.927-.25-2.086-.58-2.438-1.26-.176-.301-.176-.68-.022-1.157.528-1.637 4.125-2.268 5.782-2.47a14.174 14.174 0 01-.128-1.131c-2.288.275-6.035 1.057-6.736 3.246-.252.781-.23 1.486.074 2.066.605 1.11 2.013 1.487 3.142 1.814.43.103.855.228 1.034.353.374.227.429.477.403.653-.029.177-.128.353-.278.378-.528.202-1.335 1.234-3.927 5.089l-.048.073c-.579.856-1.081 1.612-1.356 1.942-.43.577-.781.603-2.039.529a22.137 22.137 0 00-1.485-.051h-.477c-1.206 0-1.734-.052-1.884-.151l-.03-.026c-.025 0-.047-.025-.047-.076-.15-.276-.73-1.26-1.837-1.561l-.1-.026v-.125c.1-.756.375-1.31.804-1.637.554-.404 1.763-.73 4.25.077 1.837.602 2.893-1.336 3.549-2.496.147-.276.3-.554.425-.727.15-.254.202-.504.15-.808-.172-.83-1.356-1.56-3.241-2.695-.931-.554-1.888-1.109-2.467-1.612-1.91-1.637-1.03-3.825.05-5.415 1.335-1.913 5.61-4.306 6.894-5.011l.073-.052.077.103c1.658 2.09 3.571 3.223 5.683 3.323l.1.025.025.103c.051.477.1.98.15 1.483.33 4.259.858 7.857 4.378 8.816 1.434.378 2.915.403 4.1.429h.05c.528 0 1.233.026 1.559.1l.102.025v.1c-.05.983-.377 3.399-1.133 4.056-.729.653-.93.628-2.944.15h-.047c-.858-.224-1.687.052-2.343.705-.976.984-1.43 2.772-1.082 4.131v.025c.077.228.356.43.609.404h.073c.605 0 1.408.478 1.51.83l.052.099c.4.731.877.882 1.456.882.275 0 .579-.023.88-.049.253-.025.553-.076.88-.102.3 0 .63-.022.93-.048h.052c1.709-.077 3.469-.154 4.125-1.612.201-.429.502-1.362.902-2.57.983-2.945 1.965-5.767 2.493-6.245l.048-.026c.455-.227.73-.679.73-1.259.029-1.083-.83-2.643-2.135-3.198-.608-.253-1.385-.227-2.192-.176-.876.026-1.907.048-2.236-.327-.177-.202-.225-.554-.125-1.057.125-.708.224-1.31.349-1.913l.025-.103c.304-1.538.557-2.845.58-4.207a1.098 1.098 0 00-.375-.904c-.23-.201-.506-.33-.806-.33.15 1.74-.125 3.201-.528 5.214a63.026 63.026 0 00-.378 2.04c-.15.856-.022 1.536.378 1.99.704.83 2.012.78 3.142.728.653-.022 1.36-.048 1.712.103.553.253 1.107.88 1.357 1.586.15.404.099.631.073.682v.074h-.073c-.803.353-1.584 2.342-3.12 6.976-.378 1.108-.701 2.063-.877 2.467-.352.808-1.712.856-3.12.933h-.15c-.276.025-.58.025-.88.051-.327.025-.63.051-.88.074-.63.076-.906.076-1.034.025-.048-.025-.1-.074-.173-.202-.304-.804-1.309-1.384-2.14-1.535l-.078-.025-.022-.1c-.051-.91.3-1.938.855-2.518.377-.378.803-.506 1.283-.404h.022c2.09.503 2.794.679 3.978-.404 1.229-1.108 1.507-4.38 1.532-5.136 0-1.032-1.081-1.109-2.844-1.16-1.13 0-2.538-.026-3.821-.375-2.567-.708-3.194-3.175-3.546-7.783-.3-4.054-1.184-5.944-1.456-6.422l-.204-.378a32.28 32.28 0 00-.477-.782l-.052-.099c-.905-1.487-1.859-3.099-1.833-3.778.048-1.285.602-4.434 4.474-6.171 4.48-2.016 7.673-4.179 8.678-8.36.33-1.41.605-3.877.224-6.197l.128-.023.128-.051c.073.253.173.477.224.705 1.082 3.627.253 7.732-1.008 10.2l-.1.175c-.124.202-.223.379-.351.555-2.314 3.576-5.482 5.213-8.048 6.498l-.58.301c-.3.177-.528.43-.627.756-.073.276-.048.577.077.856a26.654 26.654 0 011.559-.83l.099-.051c1.734-.881 3.696-1.888 5.561-3.525l.375-.33-.176.455c-.829 2.291-1.28 4.307-1.357 5.97-.077 1.887.425 3.447 1.382 4.406.727.73 1.684 1.108 2.842 1.108.102 0 .201 0 .3-.025 3.246-.151 9.181-1.84 12.174-5.063 2.892-3.121 2.515-7.553-.928-11.004a77.56 77.56 0 00-1.559-1.538c-2.342-2.265-4.553-4.38-4.704-6.495l-.025-.026c-.18-1.361-.304-5.114 1.206-6.447.528-.455 1.03-.58 1.536-.352.906.452 1.734 2.115 1.709 3.425-.077 1.961-.931 2.97-.931 2.97l-.506.578a.163.163 0 00-.022.179c.022.048.076.1.128.1l.751.102c.1 0 2.442.224 3.898-1.538.781-.958.979-2.368.528-3.701-.352-1.058-1.107-1.84-1.984-2.09a2.068 2.068 0 00.477 1.635c.176.227.326.503.426.833.326.932.201 1.938-.327 2.592-.425.503-.979.83-1.657 1.01l-.253.073.099-.253c.304-.753.477-1.56.502-2.467.052-1.586-.829-3.752-2.361-4.483-.906-.426-1.888-.25-2.765.529-2.192 1.938-1.664 6.876-1.587 7.43.201 2.545 2.563 4.81 5.056 7.23l.227.224c.451.403.902.858 1.331 1.285 3.018 3.047 3.373 6.725.906 9.42-2.74 2.97-8.426 4.557-11.392 4.707h-.228c-.854 0-1.558-.25-2.06-.753-.733-.73-1.107-2.015-1.03-3.553.147-3.83 2.537-8.713 3.267-10.1.025-.048.05-.1.073-.125z" fill="#FEFEFE"></path>
  </symbol>
  <symbol fill="none" xmlns="http://www.w3.org/2000/svg" viewBox="0 0 160 151" id="01-icon">
    <path d="M2.055 72.7h.326c.3 0 .437.093.626.384l1.242 1.942h1.646l-1.517-2.37c-.326-.512-.514-.615-.634-.684.111-.077.3-.188.625-.633l1.466-2.3H4.198l-1.2 1.872c-.189.283-.326.386-.626.386h-.317v-2.258H.598v5.987h1.457V72.7zm6.94 2.326h1.456V73.05l2.066-4.012h-1.654l-1.14 2.207-1.131-2.207H6.937l2.058 4.012v1.976zm7.979-4.619v-1.368H14.06v1.368h.728v3.242h-.728v1.377h2.914v-1.377h-.729v-3.242h.729zm4.456 1.958l-1.26-3.327h-1.62l2.46 5.988h.865l2.426-5.988h-1.62l-1.252 3.327zm118.009-2.018c.507 0 .96.171 1.32.496l.943-.872a3.088 3.088 0 00-2.263-.993 3.051 3.051 0 00-3.051 3.054 3.051 3.051 0 003.051 3.054 3.09 3.09 0 002.263-.992l-.943-.873c-.36.325-.813.488-1.32.488-.891 0-1.594-.65-1.594-1.677 0-1.026.703-1.685 1.594-1.685zm7.11.06v-1.368h-2.914v1.368h.728v3.242h-.728v1.377h2.914v-1.377h-.728v-3.242h.728zm4.892 4.619v-4.62h1.534v-1.368h-4.526v1.369h1.534v4.619h1.458zm4.956 0h1.457V73.05l2.065-4.012h-1.653l-1.141 2.207-1.131-2.207h-1.654l2.057 4.012v1.976zm-52.106 19.756l7.973-18.564h10.628l-18.601 18.564zm-8.088-12.856c5.618-1.403 10.978-3.622 13.818-4.892l-7.637 17.78c-1.153-2.964-3.336-8.14-6.18-12.888zm-6.963 1.195c1.683-.13 3.431-.407 5.179-.782 2.524 4.117 4.546 8.647 5.803 11.742L89.24 83.12zm-7.34 21.983c1.27-2.83 3.5-8.192 4.91-13.811 4.851 2.894 10.154 5.105 13.095 6.239L81.9 105.104zm-.871 12.894v-10.644l18.432-7.752-18.432 18.396zM86.33 83.25c-.27 6.624-3.332 14.831-5.302 19.48V85.336a10.004 10.004 0 005.302-2.086zm12.658 12.054c-3.102-1.255-7.64-3.274-11.766-5.792.376-1.744.654-3.487.784-5.167L98.99 95.304zM71.848 75.35c0-4.574 3.728-8.294 8.311-8.294 4.322 0 7.882 3.31 8.272 7.524v1.54c-.39 4.213-3.95 7.524-8.272 7.524-4.583 0-8.311-3.72-8.311-8.294zm7.442 27.39c-1.97-4.637-5.035-12.832-5.301-19.49a9.998 9.998 0 005.3 2.086v17.404zm0 15.258L61.16 99.905l18.129 7.453v10.64zm-5.786-26.702c1.411 5.64 3.651 11.009 4.923 13.831l-18.251-7.504c2.884-1.101 8.343-3.351 13.328-6.327zm-1.194-6.952c.13 1.683.407 3.428.781 5.17-4.125 2.52-8.665 4.539-11.767 5.793L72.31 84.344zm-6.41-2.006c1.746.373 3.494.65 5.182.778l-10.983 10.96c1.257-3.095 3.28-7.625 5.8-11.738zm-15.658-5.33c2.823 1.268 8.21 3.51 13.874 4.919-3.033 5.064-5.32 10.622-6.402 13.457l-7.472-18.376zm-12.817-.79h10.619l7.252 17.834-17.87-17.834zM55.57 56.375l-7.573 18.107h-10.57L55.57 56.375zm8.544 12.267c-5.64 1.406-11.012 3.636-13.843 4.906l7.558-18.069c1.121 2.91 3.35 8.263 6.285 13.163zm6.965-1.192c-1.686.13-3.434.406-5.18.78-2.523-4.116-4.544-8.645-5.8-11.738l10.98 10.958zm2.018-6.39c-.375 1.745-.654 3.488-.784 5.168l-10.981-10.96c3.101 1.255 7.64 3.274 11.765 5.792zm-.902 20.382c-6.608-.26-14.718-3.255-19.392-5.224h17.35a9.954 9.954 0 002.042 5.224zm-19.704-6.96c4.644-1.975 13.04-5.127 19.808-5.364a9.962 9.962 0 00-2.145 5.364H52.49zm26.8-26.637v17.52a9.998 9.998 0 00-5.307 2.09c.233-6.646 3.324-14.931 5.306-19.61zm-.86-2.4c-1.27 2.825-3.508 8.202-4.92 13.835-4.978-2.97-10.432-5.221-13.32-6.326l18.24-7.509zm.86-12.743v10.511l-17.928 7.38 17.928-17.89zm1.739 15.147c1.983 4.685 5.075 12.977 5.308 19.607a9.993 9.993 0 00-5.308-2.092V47.85zm0-15.147l18.485 18.449-18.485-7.928v-10.52zm5.779 26.58c-1.407-5.602-3.63-10.956-4.9-13.793l17.793 7.63c-2.98 1.155-8.15 3.33-12.893 6.163zm1.199 6.943c-.13-1.678-.41-3.42-.785-5.164 4.122-2.518 8.659-4.536 11.761-5.79L88.007 66.224zm6.409 2.015c-1.75-.375-3.5-.653-5.186-.783l10.996-10.972c-1.259 3.096-3.285 7.635-5.81 11.755zm13.102 7.978c-4.685 1.97-12.817 4.971-19.398 5.23a9.956 9.956 0 002.045-5.23h17.353zm-17.353-1.736a9.956 9.956 0 00-2.14-5.356c6.724.24 15.12 3.382 19.778 5.356H90.165zm19.838-.946c-2.846-1.27-8.196-3.483-13.803-4.883 2.789-4.655 4.945-9.726 6.117-12.72l7.686 17.603zm12.889.946h-10.579l-8.171-18.713 18.75 18.713zM80.159 29.38L34.096 75.35l46.063 45.97 46.062-45.97-46.062-45.97zm56.229 51.893h23.442v-1.736h-23.442v1.736zM.58 81.292h23.44v-1.735H.58v1.735zm20.885-36.24l-1.63-.735-1.86 4.102-1.967-.888 1.718-3.79-1.63-.735-1.718 3.79-1.917-.866 1.86-4.103-1.63-.736-2.642 5.83 8.774 3.96 2.642-5.829zm-3.158-9.946l.822-1.186c.955-1.377 2.6-1.844 4.196-.742 1.607 1.11 1.737 2.802.782 4.18l-.822 1.185-4.978-3.437zm7.271 3.267c1.542-2.223 1.135-5.16-1.173-6.753-2.296-1.587-5.204-.94-6.746 1.284l-1.902 2.744 7.919 5.47 1.902-2.745zM35.944 26.4l-1.266-1.26-3.189 3.187-1.529-1.523 2.947-2.945-1.267-1.26-2.946 2.944-1.49-1.484 3.189-3.189-1.266-1.26-4.53 4.529 6.817 6.792 4.53-4.53zm8.578-6.515l-1.043-1.45-3.52 2.523-4.573-6.355-1.541 1.105 5.616 7.805 5.061-3.628zm6.429-3.56l-.226-6.235 4.507 4.317 1.029-.46-.405-10.356-1.92.861.391 6.537-4.672-4.62-1.016.456.354 6.554-4.634-4.636-1.922.86 7.497 7.177 1.017-.455zm19.38-6.085l-.356-1.747-4.422.897-.43-2.112 4.084-.83-.356-1.749-4.085.83-.42-2.059 4.422-.897-.357-1.75L62.13 2.1l1.919 9.417 6.282-1.275zm5.348-8.318l.276 6.036-1.155.053.082 1.783 4.207-.192-.083-1.783-1.154.053-.276-6.036 1.154-.053L78.65 0l-4.207.192.082 1.783 1.155-.053zm12.334 6.486l-.082-.009c-1.42-.163-2.326-.957-2.682-1.605l-1.359.99c.634 1.11 1.925 2.169 3.838 2.388l.082.009c2.12.229 3.847-.707 4.056-2.52.226-1.978-1.139-2.867-3.053-3.32l-.756-.17c-.849-.208-1.565-.482-1.491-1.125.096-.831 1.147-.945 1.775-.874l.11.012c.697.08 1.707.569 2.352 1.223l1.36-.99c-.877-1.041-2.156-1.85-3.508-2.005l-.11-.013c-1.984-.2-3.668.714-3.873 2.501-.192 1.678 1.132 2.561 2.939 2.989l.742.168c.97.235 1.723.556 1.627 1.387-.084.724-.858 1.077-1.967.964zm11.112 4.124l.08.023c2.044.6 3.91-.018 4.436-1.766.572-1.906-.614-3.02-2.417-3.804l-.714-.3c-.798-.354-1.454-.751-1.268-1.37.241-.8 1.296-.728 1.902-.546l.105.03c.672.202 1.58.861 2.098 1.619l1.515-.736c-.68-1.179-1.794-2.2-3.098-2.591l-.106-.032c-1.918-.545-3.735.057-4.253 1.779-.487 1.615.66 2.72 2.362 3.459l.7.295c.914.403 1.597.851 1.356 1.653-.21.697-1.034.908-2.105.602l-.079-.024c-1.37-.411-2.12-1.352-2.355-2.053l-1.513.736c.427 1.203 1.51 2.473 3.354 3.026zm17.98 3.748l3.105 2.06-2.186 3.28 1.581 1.05 5.331-8.003-1.581-1.049-2.156 3.236-3.103-2.06 2.155-3.235-1.581-1.05-5.331 8.003 1.58 1.05 2.186-3.282zm13.414 7.765l-1.103 2.593-1.483-1.452 2.586-1.141zm-6.043 2.736l1.724-.772 2.425 2.373-.742 1.735 1.502 1.471L133.34 22l-.795-.778-9.571 4.09 1.502 1.47zm9.528 11.048c1.16 1.653 3.357 2.415 5.633.824l4.575-3.197-1.088-1.553-4.542 3.173c-1.476 1.032-2.537.55-3.113-.271-.576-.821-.667-1.98.809-3.013l4.542-3.172-1.089-1.553-4.575 3.198c-2.276 1.59-2.319 3.9-1.152 5.564zm9.7 8.391l.235.721c.296.953.405 1.763-.36 2.108-.665.299-1.367-.185-1.838-1.193l-.033-.074c-.589-1.303-.37-2.486.007-3.123L140.164 44c-.629 1.113-.88 2.763-.087 4.516l.034.074c.89 1.934 2.581 2.936 4.249 2.184 1.819-.82 1.884-2.445 1.292-4.319l-.241-.734c-.256-.834-.386-1.59.203-1.855.765-.345 1.403.498 1.663 1.074l.046.1c.288.638.386 1.754.153 2.644l1.551.657c.445-1.286.486-2.796-.074-4.036l-.045-.1c-.846-1.803-2.494-2.778-4.138-2.038-1.542.695-1.624 2.284-1.066 4.051zM16.601 108.766l1.625-.765-1.788-3.78 1.913-.901 1.934 4.091 1.625-.765-2.749-5.813-8.75 4.122 2.75 5.813 1.625-.766-1.935-4.092 1.962-.924 1.788 3.78zm7.209 9.558c-1.598 1.136-3.246.681-4.224-.69l-.84-1.18 4.954-3.52.841 1.181c.977 1.371.857 3.081-.73 4.209zm2.195-5.249l-1.947-2.731-7.883 5.599 1.947 2.73c1.579 2.214 4.497 2.833 6.795 1.202 2.286-1.624 2.667-4.586 1.088-6.8zm5.879 9.83l3.231 3.17 1.26-1.278-4.592-4.505-6.78 6.884 4.592 4.505 1.259-1.278-3.232-3.171 1.52-1.544 2.986 2.929 1.26-1.279-2.987-2.929 1.483-1.504zm7.88 4.629l-5.59 7.879 5.108 3.611 1.039-1.463-3.553-2.511 4.554-6.416-1.558-1.1zm13.671 14.789l.336-6.587-1.023-.455-4.681 4.657.375-6.572-1.933-.859-.364 10.414 1.023.454 4.529-4.347-.221 6.262 1.035.46 7.501-7.241-1.933-.859-4.644 4.673zm8.607 6.401l6.311 1.283.36-1.757-4.443-.903.433-2.122 4.104.834.358-1.757-4.103-.834.422-2.068 4.443.903.358-1.757-6.31-1.283-1.933 9.461zm12.522-5.954l1.16.057-.296 6.063-1.16-.057-.087 1.792 4.225.206.087-1.792-1.16-.056.296-6.063 1.16.055.087-1.791-4.225-.205-.087 1.791zm13.576 1.737l-.779.001c-.877-.017-1.64-.13-1.71-.774-.09-.838.916-1.181 1.548-1.249l.11-.012c.7-.075 1.8.182 2.577.681L91 141.883c-1.09-.827-2.522-1.34-3.883-1.194l-.11.012c-1.99.242-3.439 1.507-3.246 3.304.182 1.688 1.677 2.263 3.542 2.285l.765.001c1.003.017 1.811.166 1.901 1.003.079.728-.603 1.245-1.715 1.377l-.082.01c-1.43.153-2.493-.427-2.984-.984l-1.115 1.271c.867.948 2.366 1.702 4.292 1.496l.081-.009c2.13-.242 3.617-1.539 3.42-3.364-.213-1.989-1.749-2.56-3.726-2.584zm11.902-2.437l-.766.135c-.867.137-1.638.158-1.82-.464-.233-.809.697-1.322 1.308-1.499l.106-.031c.677-.196 1.803-.133 2.655.224l.876-1.446c-1.218-.624-2.717-.881-4.032-.5l-.106.03c-1.917.584-3.123 2.082-2.619 3.817.473 1.63 2.045 1.937 3.885 1.634l.754-.131c.99-.157 1.813-.151 2.047.657.205.703-.376 1.33-1.448 1.655l-.079.022c-1.382.4-2.53.014-3.11-.45l-.876 1.445c1.019.783 2.627 1.266 4.486.728l.08-.023c2.053-.609 3.291-2.145 2.779-3.907-.557-1.921-2.169-2.216-4.12-1.896zm17.222-12.357l2.118 3.283-3.15 2.024-2.118-3.283-1.604 1.031 5.239 8.119 1.604-1.03-2.149-3.329 3.15-2.024 2.148 3.329 1.604-1.031-5.238-8.119-1.604 1.03zm13.05-2.862l-1.516 1.432-1.052-2.635 2.568 1.203zm-5.334-3.338l3.759 9.744 1.536-1.45-.714-1.757 2.48-2.342 1.717.809 1.537-1.451-9.502-4.321-.813.768zm15.178-9.23l-4.529-3.308-1.126 1.536 4.495 3.284c1.461 1.067 1.344 2.23.749 3.043-.596.812-1.672 1.275-3.133.207l-4.496-3.283-1.126 1.536 4.529 3.308c2.253 1.646 4.468.939 5.676-.709 1.2-1.636 1.214-3.968-1.039-5.614zm7.166-11.06c-1.806-.868-3.102.133-4.165 1.796l-.411.66c-.477.735-.975 1.323-1.561 1.042-.759-.366-.522-1.4-.246-1.972l.048-.099c.306-.634 1.104-1.43 1.939-1.824l-.494-1.616c-1.279.488-2.47 1.431-3.064 2.662l-.048.099c-.845 1.815-.532 3.71 1.1 4.495 1.531.736 2.809-.227 3.813-1.797l.404-.648c.544-.841 1.098-1.447 1.857-1.082.66.317.741 1.167.267 2.18l-.035.074c-.624 1.293-1.679 1.889-2.412 2.011l.493 1.615c1.264-.234 2.698-1.107 3.538-2.848l.035-.074c.918-1.933.598-3.878-1.058-4.674z" fill-rule="evenodd" clip-rule="evenodd" fill="#fff"></path>
  </symbol>
  <symbol fill="none" xmlns="http://www.w3.org/2000/svg" viewBox="0 0 200 75" id="02-icon">
    <path fill-rule="evenodd" clip-rule="evenodd" d="M101.333 3.207l13.102 12.994.602-.596-13.704-13.59-.605.6.603.594.002-.002z" fill="#FEFEFE"></path>
    <path fill-rule="evenodd" clip-rule="evenodd" d="M98.961 26.247l-2.95-2.927h7.972l-3.986 3.954-1.036-1.027zm-2.29-3.77h6.637v-.794h-6.636v.794zm-1.003-1.637h8.713v-3.89h-8.713v3.889zm0-4.732h1.26v-3.432h-1.26v3.432zm2.11 0h4.494v-3.432h-4.494v3.432zm2.247-4.697a11.558 11.558 0 013.103.422h-6.205a11.555 11.555 0 013.102-.422zm-3.024-3.907l2.996-2.971 1.036 1.027 1.988 1.972-2.971 2.947a.04.04 0 01-.025.01.033.033 0 01-.014-.003.023.023 0 01-.011-.007l-2.999-2.975zm6.122 8.604h1.258v-3.432h-1.258v3.432zm2.063 7.212h.06v-.059l5.747-5.7 1.07-1.06.735.728-13.101 12.994.601.597 13.703-13.591-1.336-1.326-.301-.299-7.444-7.383-.603.596 7.145 7.086-6.628 6.574h-.676v-.794h1.088v-.843h-.014v-9.13l-.252-.111a12.175 12.175 0 00-3.864-.985l.773-.767h-.005l2.34-2.316.04-.04-2.319-2.3-1.925-1.9-4.235 4.2.013.012 1.305 1.294 1.832 1.817a12.175 12.175 0 00-3.865.985l-.253.111v9.176h.017v.796h.986v.794h-.66l-6.627-6.574 1.035-1.027 6.122-6.072-.603-.595-7.156 7.097-.735-.728 13.102-12.995-.601-.596-13.705 13.591 8.575 8.505 4.828 4.788-.767.76L85.56 15.606l-.603.596 13.67 13.626 6.56-6.507z" fill="#FEFEFE"></path>
    <path fill-rule="evenodd" clip-rule="evenodd" d="M100.611 19.134a.634.634 0 01-.586.385.636.636 0 01-.636-.63.623.623 0 01.28-.524.641.641 0 01.883.172.615.615 0 01.059.597zm.246-1.467a1.496 1.496 0 00-2.065.397 1.469 1.469 0 00.402 2.047c.236.159.524.253.831.252a1.481 1.481 0 001.232-.65 1.458 1.458 0 00.137-1.398 1.47 1.47 0 00-.537-.648z" fill="#FEFEFE"></path>
    <mask id="a" maskUnits="userSpaceOnUse" x="195" y="41" width="5" height="6">
      <path fill-rule="evenodd" clip-rule="evenodd" d="M195.432 41.78h4.561v4.523h-4.561V41.78z" fill="#fff"></path>
    </mask>
    <g mask="url(#a)">
      <path fill-rule="evenodd" clip-rule="evenodd" d="M197.713 41.78l-2.281 2.262 2.281 2.261 2.28-2.26-2.28-2.263z" fill="#FEFEFE"></path>
    </g>
    <path fill-rule="evenodd" clip-rule="evenodd" d="M0 44.042l2.28 2.262 2.28-2.262-2.28-2.262L0 44.042zM87.322 61.78l.239-.254.073-.146.165-.2c.245-.242.527-.558.845-.947.318-.388.645-.801.981-1.238a100.212 100.212 0 001.892-2.53c.263-.365.48-.666.652-.902.17-.237.268-.36.293-.374 0-.01.015-.06.046-.145.03-.085.056-.175.074-.273a.795.795 0 00.009-.264c-.012-.078-.055-.112-.129-.1-.11-.024-.199 0-.267.073a4.75 4.75 0 01-.191.2l-.258.291c-.22.268-.447.55-.679.847a54.08 54.08 0 01-.66.828c-.38.437-.754.91-1.12 1.42-.197.256-.448.559-.753.91l-.937 1.075c-.318.364-.621.725-.908 1.083a7.563 7.563 0 00-.67.956.881.881 0 00-.101.119c-.03.042-.059.082-.083.118-.147.194-.291.376-.431.546a5.1 5.1 0 00-.395.547 27.202 27.202 0 00-1.248 1.638c-.099.097-.184.2-.257.31-.074.11-.16.212-.258.309a.283.283 0 01-.091.173.395.395 0 00-.11.154 7.715 7.715 0 00-.579.765 5.433 5.433 0 01-.596.747.814.814 0 01-.12.154 1.961 1.961 0 00-.138.155 6.046 6.046 0 01-.1.146.355.355 0 01-.156.127c.037-.46.103-.94.202-1.439.097-.497.177-.958.238-1.383.061-.558.147-1.14.257-1.748.11-.607.214-1.237.313-1.893a.687.687 0 00.1-.337.976.976 0 01.083-.355c.012-.024.012-.043 0-.055-.012-.011-.012-.03 0-.054a1.96 1.96 0 01.055-.282c.024-.09.05-.179.074-.265l.036-.236a.941.941 0 01.056-.2c.048-.243.088-.485.118-.728s.07-.468.12-.674a5.411 5.411 0 01.184-.638c.06-.121.116-.236.165-.345.049-.11.043-.237-.018-.383a1.285 1.285 0 00-.33-.291 3.349 3.349 0 00-.404-.2 1.321 1.321 0 00-.79.31c-.172.836-.318 1.68-.441 2.53l-.367 2.531c-.05.316-.095.64-.138.973-.043.335-.094.66-.156.975-.11.728-.205 1.468-.285 2.22-.08.753-.149 1.5-.21 2.24 0 .267.088.486.266.656.177.17.425.243.743.218.11.025.208.022.294-.009a.78.78 0 00.239-.136c.073-.061.14-.127.202-.2l.165-.2a43.362 43.362 0 001.432-1.93.11.11 0 01.01-.055.157.157 0 00.008-.056c.22-.278.422-.528.606-.746.184-.218.38-.466.588-.746a.553.553 0 01.247-.219c.092-.036.163-.121.211-.254.061-.073.12-.148.174-.227.055-.08.114-.161.176-.247v-.11a.373.373 0 00.127-.181.354.354 0 01.147-.182c.184-.292.386-.573.606-.846.22-.274.434-.544.643-.81a2.188 2.188 0 01.22-.31zm2.726-1.82c-.062-.073-.141-.092-.239-.055a.975.975 0 00-.293.182 1.843 1.843 0 00-.257.274c-.074.097-.105.164-.093.2-.012.048-.03.109-.054.182a.905.905 0 00-.046.219.379.379 0 00.028.19c.024.056.072.095.146.119.049.024.083.03.102.018a.115.115 0 01.063-.018.39.39 0 01.175-.119c.079-.03.132-.075.157-.136.023 0 .035-.003.035-.009 0-.006.012-.003.037.009 0-.036.022-.073.065-.11.043-.036.058-.072.046-.108.048.024.07.012.064-.037-.007-.048.01-.06.046-.036 0-.025.006-.04.018-.046.012-.005.012-.021 0-.045.097-.048.162-.143.193-.283a.384.384 0 00-.083-.354.093.093 0 01-.046-.018.107.107 0 00-.064-.019zm11.216.145l.055-.182c.465-.109.958-.194 1.479-.255.519-.06 1-.12 1.441-.181l.017-.037a.235.235 0 01.129-.036.338.338 0 00.165-.055c.012-.012.019-.042.019-.091 0-.048.012-.085.037-.109-.013 0-.019.012-.019.037 0 .012-.006.017-.018.017a.618.618 0 00-.037-.064c-.013-.017-.006-.038.018-.063a1.115 1.115 0 00-.449-.082 7.772 7.772 0 00-.414.028 8.88 8.88 0 01-.432.045 1.012 1.012 0 01-.192 0 .938.938 0 00-.183 0c-.073.006-.209.021-.405.046a6.82 6.82 0 01-.422.063 3.62 3.62 0 00-.439.082h-.019c.122-.267.248-.528.376-.783s.254-.516.376-.783c.159-.279.3-.57.423-.874.121-.303.251-.6.385-.892a.638.638 0 00.046-.164.493.493 0 01.046-.146 1.14 1.14 0 00.119-.172c.031-.055.034-.106.01-.155-.025-.097-.099-.173-.221-.227a.883.883 0 00-.367-.082c-.098 0-.214.023-.348.073-.136.048-.215.09-.239.127a.34.34 0 00-.083.164c-.019.073-.04.139-.065.2a.704.704 0 01-.091.21.47.47 0 00-.074.172.126.126 0 00-.037.092.19.19 0 01-.036.108 1.055 1.055 0 01-.129.274c-.06.158-.125.319-.193.482a4.522 4.522 0 01-.229.482c-.171.377-.333.747-.486 1.111-.153.364-.298.735-.431 1.11a1.177 1.177 0 01-.175.056l-.174.036a2.05 2.05 0 00-.257.036 10.99 10.99 0 00-.44.091c-.16.037-.316.07-.47.1-.153.03-.271.058-.357.082l-.22.09c-.024.05-.052.104-.083.165-.03.06-.058.122-.083.182a1.1 1.1 0 00-.036.255c0 .074.03.128.092.164.012.024.04.034.083.027.042-.006.094-.015.156-.027a.33.33 0 00.137-.072 1.14 1.14 0 01.12-.092c.085-.024.174-.052.265-.082l.248-.082c.208-.097.382-.167.523-.21.14-.042.29-.075.45-.099-.062.17-.119.342-.174.52a30.92 30.92 0 01-.175.536c-.135.46-.28.916-.44 1.365-.16.45-.3.91-.423 1.384l-.014.068c-.05.04-.096.08-.16.114-.091.05-.186.103-.285.164a.463.463 0 00-.2.036 1.137 1.137 0 00-.258.155 7.11 7.11 0 00-.257.21 3.313 3.313 0 00-.293.172.75.75 0 01-.065.028c-.031.012-.114.05-.248.11a7.86 7.86 0 01-.311.145c-.087.036-.184.08-.295.127a2.258 2.258 0 01.019-.474c.024-.218.058-.448.1-.69.043-.244.086-.474.129-.693.043-.219.07-.377.082-.473.037-.134.077-.274.12-.419.043-.146.058-.285.046-.418-.012-.11-.089-.21-.23-.301a.74.74 0 00-.394-.136 1.219 1.219 0 00-.515.163 11.5 11.5 0 00-.458.274c-.393.23-.735.485-1.028.764-.294.279-.6.558-.919.837a1.09 1.09 0 00-.2.173.36.36 0 01-.222.119c.074-.207.15-.394.23-.565.08-.17.157-.34.23-.51a.53.53 0 00.036-.2c0-.072.013-.145.038-.218.06-.097.121-.2.183-.31.06-.11.06-.236 0-.382-.025-.122-.12-.206-.285-.255a.492.492 0 00-.551.173.748.748 0 01-.083.1c-.011.06-.024.13-.036.21-.012.079-.031.16-.055.245a1.084 1.084 0 01-.11.2c-.05.073-.086.14-.11.201-.085.213-.18.412-.27.619a.97.97 0 00-.3.11l-.293.181c-.061.037-.15.079-.266.127a2.79 2.79 0 01-.303.11c-.306.11-.612.237-.918.382-.306.146-.584.276-.835.391-.25.116-.463.208-.634.274-.171.067-.275.082-.312.045-.036-.036-.036-.115 0-.237a2.66 2.66 0 01.184-.427c.085-.164.177-.337.275-.519.098-.183.19-.358.276-.528.024-.012.036-.03.036-.055 0-.024.013-.043.037-.055.013-.011.02-.014.028-.008.005.005.014.003.027-.01a.855.855 0 00.055-.136.425.425 0 01.055-.119.403.403 0 00.073-.273.326.326 0 00.028-.164l-.028-.2a.245.245 0 00-.082-.145.783.783 0 01-.12-.129c-.036.026-.082.022-.137-.008a.162.162 0 00-.156-.01.745.745 0 00-.276.11 6.57 6.57 0 00-.476.791 36.86 36.86 0 00-.423.847 5.42 5.42 0 01-.129.31c-.048.11-.098.213-.146.31a1.374 1.374 0 01-.101.273 2.843 2.843 0 00-.12.274c-.061.181-.11.345-.147.491a.9.9 0 000 .436.687.687 0 00.358.265c.14.042.31.063.506.063a.19.19 0 01.072.009c.013.007.038-.01.074-.046.086.037.245-.014.478-.154.232-.139.486-.3.762-.482.275-.183.538-.358.789-.528.25-.17.444-.28.578-.328.147-.074.296-.152.45-.237.153-.084.284-.176.395-.273.134-.06.256-.13.367-.21.04-.028.073-.058.112-.088-.033.07-.06.147-.094.216a6.177 6.177 0 00-.459 1.375c-.037.085-.07.175-.1.273a.436.436 0 00-.028.218c.025.097.1.182.228.255.13.073.242.098.34.073.123-.025.313-.183.57-.474.257-.29.593-.655 1.009-1.092.135-.132.276-.255.423-.364.146-.109.28-.218.404-.328a8.94 8.94 0 01.624-.564c.208-.17.422-.34.642-.51l.22-.182a.653.653 0 01.257-.128 4.402 4.402 0 01-.091.401 2.327 2.327 0 00-.074.455c-.012.073-.04.206-.083.4a51.52 51.52 0 00-.128.61l-.12.602a2.487 2.487 0 00-.054.373c0 .133.052.282.156.446.103.163.223.234.357.209.086 0 .181-.006.285-.018a4.37 4.37 0 00.34-.054c.146-.048.303-.13.469-.246a4.34 4.34 0 01.449-.282c.147-.098.241-.158.284-.183a.473.473 0 00.093-.064.935.935 0 01.082-.072l.257-.209a.64.64 0 00.202-.128c.049-.049.11-.115.183-.2.027-.014.038-.034.064-.05-.05.222-.103.436-.147.67-.08.423-.13.86-.156 1.31 0 .06.006.121.018.181.013.061.068.116.165.164h.02a.516.516 0 01.173-.045.345.345 0 00.157-.045c.061-.013.085-.027.073-.046-.012-.018.012-.04.074-.063a.95.95 0 00.018-.183c0-.06.012-.121.037-.181l.11-.183a.558.558 0 00.018-.164c0-.072.006-.139.019-.2l.036-.182a1.05 1.05 0 01.055-.182c0-.036.015-.073.046-.11a.462.462 0 00.064-.09 1.08 1.08 0 00.101-.327.83.83 0 01.12-.329c.024-.11.06-.212.11-.309a1.42 1.42 0 00.11-.292 39.66 39.66 0 01.606-1.93c.221-.643.434-1.286.642-1.93z" fill="#FEFEFE"></path>
    <mask id="b" maskUnits="userSpaceOnUse" x="100" y="61" width="21" height="14">
      <path fill-rule="evenodd" clip-rule="evenodd" d="M100.185 61.126h20.378v13.433h-20.378V61.126z" fill="#fff"></path>
    </mask>
    <g mask="url(#b)">
      <path fill-rule="evenodd" clip-rule="evenodd" d="M115.124 62.302l-.022.02c-.005 0-.009.003-.025-.013.017-.01.032-.008.047-.007zm.841.37a3.448 3.448 0 011.165-.69c0 .035-.012.053-.037.053a8.233 8.233 0 01-.697.72c-.257.237-.508.452-.752.646a10.62 10.62 0 01-.304.182.622.622 0 01-.32.092c.292-.366.608-.698.945-1.002zm-6.681 4.188c-.03.025-.033.061-.008.11-.123.279-.282.63-.478 1.055-.196.425-.416.877-.661 1.356-.245.48-.517.96-.817 1.44-.3.479-.618.92-.954 1.329a5.932 5.932 0 01-1.066 1.019 2.61 2.61 0 01-1.165.5.234.234 0 01-.073-.209c.013-.079 0-.13-.037-.155.05-.364.147-.704.294-1.02.147-.315.321-.615.524-.9.201-.285.413-.556.633-.81a31.6 31.6 0 00.623-.748c.074-.083.202-.227.385-.427.185-.2.405-.428.661-.683a164.868 164.868 0 011.744-1.693c.025-.06.086-.103.185-.127a.51.51 0 00.238-.128.075.075 0 01-.028.091zm11.114-4.023a.091.091 0 00-.046.017c-.019.013-.034.02-.046.02a1.168 1.168 0 00-.238.081c-.062.03-.129.076-.202.136a29.96 29.96 0 01-.579.3 33.54 33.54 0 01-.597.301 92.6 92.6 0 01-.605.328 19.255 19.255 0 01-.927.464c-.165.08-.376.18-.634.3a4.291 4.291 0 01-.385.147c-.147.048-.288.09-.422.127a5.313 5.313 0 00-.532.182 1.358 1.358 0 01-.643.073.434.434 0 01-.156-.32 1.032 1.032 0 01.055-.381c.042-.128.101-.249.174-.364.074-.116.147-.21.221-.282.208.023.413.017.615-.02a1.07 1.07 0 00.486-.2c.49-.327.979-.703 1.469-1.128a.705.705 0 01.11-.154c.049-.056.104-.113.165-.174a.738.738 0 01.166-.182c.073-.06.116-.115.128-.163 0-.147-.068-.294-.202-.447-.135-.151-.423-.227-.863-.227a.225.225 0 00-.138.036.722.722 0 01-.118.073 7.66 7.66 0 01-.404.182 2.757 2.757 0 00-.423.219c-.233.125-.459.3-.681.501-.251.07-.491.154-.712.264-.245.12-.49.248-.735.382.012 0 .018.006.018.017a.686.686 0 00-.256.082 1.751 1.751 0 00-.202.137c-.024 0-.052.012-.083.037-.03.024-.058.048-.083.072h-.054a1.907 1.907 0 01-.385.219c-.184.085-.376.183-.578.291a7.93 7.93 0 00-.58.346 1.249 1.249 0 00-.385.365c.036-.17.089-.338.157-.502.066-.164.112-.336.137-.519.049-.096.082-.202.1-.318.019-.115.047-.22.083-.318a.6.6 0 00.01-.274.61.61 0 00-.175-.254.1.1 0 00-.092-.028c-.037.006-.061-.002-.073-.027-.049.012-.089.01-.12-.01a.191.191 0 00-.1-.026c-.099 0-.168.027-.211.082-.043.054-.083.1-.12.136-.061.061-.088.097-.082.11.006.011-.003.048-.028.108 0 .061-.037.113-.111.155a2.11 2.11 0 00-.201.136 7.957 7.957 0 00-.193.2.867.867 0 01-.193.164c-.244.208-.495.414-.752.62-.258.206-.508.395-.753.565a.825.825 0 00-.146.072 2.33 2.33 0 00-.148.11 3.467 3.467 0 00-.284.173 8.57 8.57 0 01-.266.172 1.647 1.647 0 01-.082.037c-.031.012-.071.006-.12-.019 0-.023.009-.054.027-.09a.235.235 0 00.028-.11c.061-.193.137-.37.23-.528.091-.158.186-.309.284-.455a1.13 1.13 0 00.248-.31.647.647 0 01.285-.273 2 2 0 01.385-.419.353.353 0 01.147-.218c.073-.048.14-.103.202-.164a.74.74 0 01.183-.236c.074-.06.153-.122.239-.182.062-.073.165-.16.312-.264.147-.104.275-.2.385-.291.111-.091.175-.173.193-.246.018-.073-.07-.116-.266-.127a.994.994 0 00-.11.008.442.442 0 00-.147.046c-.134.05-.27.118-.404.209-.134.09-.27.173-.404.246-.025 0-.061.018-.11.054a1.493 1.493 0 01-.166.11 2.119 2.119 0 00-.256.182l-.376.373c-.179.176-.365.364-.561.565-.196.2-.37.394-.522.582a2.04 2.04 0 00-.262.385c-.067.02-.116.03-.2.06a10.95 10.95 0 00-.587.365 2.987 2.987 0 01-.643.329 2.363 2.363 0 00-.293.154 2.027 2.027 0 01-.304.154c-.091.037-.167.043-.228.018-.062-.023-.092-.115-.092-.272l.111-.4a.713.713 0 00.063-.165 3.26 3.26 0 01.028-.146c.024-.084.061-.14.11-.163v-.091a.8.8 0 00.129-.292c.072-.109.143-.212.211-.31.066-.096.119-.2.156-.31 0-.132-.044-.217-.129-.254a3.647 3.647 0 01-.202-.09h-.349a.42.42 0 00-.128.017.123.123 0 00-.037.091.206.206 0 01-.018.092.237.237 0 01-.055.108.225.225 0 00-.055.092v.018h-.056a1.042 1.042 0 01-.302.292 2.05 2.05 0 00-.322.236c-.404.304-.796.592-1.175.865-.379.274-.777.531-1.193.774a.699.699 0 01-.293.164.504.504 0 01.128-.273.657.657 0 00.147-.292c.048-.06.095-.124.138-.191a.418.418 0 01.174-.155v-.037c.048-.036.073-.078.073-.127a.532.532 0 00.211-.155 1.19 1.19 0 01.175-.172c.098-.097.201-.194.312-.292l.312-.273a3.506 3.506 0 00.331-.291 9.3 9.3 0 00.293-.191.947.947 0 01.294-.137c.025-.073.057-.118.101-.137a.315.315 0 01.12-.027l.036-.036.22-.146c.111-.097.226-.17.349-.218a.253.253 0 01.147-.028.145.145 0 00.128-.045.23.23 0 00.111-.128c.024-.06.018-.108-.018-.145a.248.248 0 00-.093-.191 1.493 1.493 0 01-.165-.174.572.572 0 01-.257-.054c-.025.025-.052.034-.082.028a.453.453 0 00-.083-.01c-.013 0-.019.004-.019.01s-.006.009-.018.009c-.172.049-.297.118-.376.209a.931.931 0 01-.321.228c-.074.012-.208.093-.404.245a21.491 21.491 0 00-1.304 1.12c-.208.194-.361.334-.458.419a6.576 6.576 0 01-.35.455 3.343 3.343 0 00-.33.474 3.474 3.474 0 00-.211.317.89.89 0 00-.119.374c0 .024-.006.037-.018.037-.013 0-.019.006-.019.018-.061.23-.024.388.11.473a.326.326 0 00.239.119c.098.006.195.015.294.026a.423.423 0 00.156.037h.156a.456.456 0 00.266-.045c.091-.043.18-.094.266-.155.318-.134.618-.297.9-.492a.222.222 0 01.109-.082c.049-.018.086-.033.111-.045.012 0 .015-.01.01-.028-.007-.018-.004-.026.009-.026a.458.458 0 01.1-.074.247.247 0 00.101-.109.605.605 0 00.211-.145c.055-.061.113-.128.175-.2.037-.025.067-.046.091-.065a.545.545 0 01.074-.045c.012 0 .021-.009.027-.027.006-.018.022-.021.047-.01a2.016 2.016 0 00.017.783c.037.086.077.16.12.228a.499.499 0 00.23.173.58.58 0 01.1.045.162.162 0 00.083.028c.257.061.48.061.669 0a2.14 2.14 0 00.534-.255 5.3 5.3 0 00.485-.364 2.18 2.18 0 01.534-.328c.019.01.065-.01.117-.036a2.127 2.127 0 00-.052.291c-.012.11-.012.212 0 .31a.574.574 0 00.092.255c.05 0 .08.011.092.036.012.025.03.042.055.054h-.037c.024.025.095.044.211.056.117.011.239.024.367.035.13.013.251.019.368.019a.648.648 0 00.211-.019c.061-.01.144-.038.247-.082.105-.042.212-.09.322-.145.11-.055.214-.11.312-.164a.995.995 0 00.202-.137c.098-.097.205-.184.322-.263a2.49 2.49 0 00.339-.283.272.272 0 01.128-.09l.074-.073a1.65 1.65 0 00.072-.074c0-.011.019-.017.056-.017.025-.073.049-.11.074-.11.024.073.028.14.009.2a2.34 2.34 0 01-.064.183 4.077 4.077 0 00-.075.208.605.605 0 01-.044.12c-.019.035-.04.075-.065.117l-.11.192c.024 0 .015.054-.028.163-.043.11-.07.164-.083.164a.762.762 0 01-.082.064 2.134 2.134 0 01-.248.137 2.68 2.68 0 00-.312.264 3.188 3.188 0 01-.33.281 47.34 47.34 0 00-1.781 1.667 19.735 19.735 0 00-1.725 1.93 11.086 11.086 0 00-1.286 2.048c-.33.692-.483 1.353-.459 1.985-.037.011-.015.082.065.209s.186.239.321.337c.147.06.297.082.45.063a2.35 2.35 0 00.45-.1 5.962 5.962 0 002.083-1.384 10.945 10.945 0 001.57-2.047c.452-.76.853-1.55 1.202-2.377.349-.825.688-1.608 1.018-2.348.062-.134.114-.273.157-.419a.56.56 0 01.23-.328.407.407 0 01.156-.19 5.93 5.93 0 00.229-.156l.147-.108c.061-.049.119-.092.174-.129a.872.872 0 01.193-.09c.098-.097.202-.182.311-.255.111-.073.221-.145.332-.22.097-.071.242-.172.431-.3.19-.127.386-.26.588-.4.201-.139.388-.272.559-.4a3.73 3.73 0 00.349-.283c-.037 0-.049-.012-.037-.036a.87.87 0 01.341-.21c.011-.003.023-.011.034-.015-.17.182-.343.36-.505.552a.896.896 0 01-.074.183.52.52 0 01-.147.183 4.284 4.284 0 00-.211.446 2.998 2.998 0 00-.155.491 1.59 1.59 0 00-.038.483.729.729 0 00.147.4.92.92 0 00.413.337c.166.067.34.103.524.11.183.005.367-.01.551-.047.183-.037.348-.073.495-.109.11-.036.223-.07.34-.1a1.12 1.12 0 00.321-.137l1.322-.618c.085-.037.214-.104.385-.202.172-.096.355-.202.551-.317l.588-.347c.195-.115.36-.222.495-.319a2.73 2.73 0 01.211-.136c.055-.03.104-.06.147-.091.042-.03.058-.046.045-.046.05-.072.114-.145.193-.218a1.84 1.84 0 00.202-.21c.055-.065.083-.117.083-.154 0-.037-.055-.054-.165-.054z" fill="#FEFEFE"></path>
    </g>
    <mask id="c" maskUnits="userSpaceOnUse" x="0" y="0" width="200" height="75">
      <path fill-rule="evenodd" clip-rule="evenodd" d="M0 74.558h199.993V.986H0v73.572z" fill="#fff"></path>
    </mask>
    <g mask="url(#c)" fill-rule="evenodd" clip-rule="evenodd" fill="#FEFEFE">
      <path d="M121.418 60.24h53.921v-.945h-53.921v.945zm-96.763 0h53.921v-.945H24.655v.945zm96.763-31.451h53.921v-.946h-53.921v.946zm-96.764 0h53.921v-.946H24.654v.946zM7.807 37.176H8.87c.262 0 .45.063.564.187.115.124.172.332.172.627v9.03c0 .314-.063.529-.189.645-.125.117-.366.175-.722.175h-.887v.796h5.46v-.796h-.911c-.352 0-.587-.058-.707-.175-.12-.116-.18-.331-.18-.646v-9.08c0-.282.055-.485.163-.61.109-.124.283-.186.523-.186h4.364c.268 0 .458.06.569.178.111.12.167.325.167.618v9.08c0 .315-.063.53-.188.647-.125.116-.364.174-.715.174h-.91v.796h5.475v-.796h-.903c-.357 0-.598-.058-.723-.175-.125-.116-.188-.331-.188-.646v-9.03c0-.282.057-.488.171-.618.114-.13.292-.195.531-.195h1.112v-.804H7.807v.804zm30.571 9.577c-.608.94-1.525 1.41-2.752 1.41-1.242 0-2.165-.465-2.767-1.398-.602-.931-.902-2.35-.902-4.257 0-1.908.302-3.327.906-4.258.605-.932 1.527-1.398 2.763-1.398 1.238 0 2.158.462 2.76 1.386.602.923.903 2.347.903 4.27 0 1.89-.304 3.305-.911 4.245zm-2.752-10.688c-1.716 0-3.128.604-4.234 1.812-1.107 1.208-1.66 2.751-1.66 4.631 0 1.88.552 3.42 1.656 4.618 1.103 1.2 2.516 1.8 4.238 1.8 1.723 0 3.132-.598 4.227-1.792 1.095-1.194 1.643-2.735 1.643-4.626 0-1.885-.55-3.43-1.65-4.636-1.102-1.205-2.508-1.807-4.22-1.807zM57.78 47.84h-5.126c.647-1.211 1.134-2.669 1.463-4.375.329-1.704.522-3.801.577-6.29h3.085V47.84zm2.035-10.469c.114-.13.292-.195.531-.195h1.112v-.804h-9.573v.804h.602c.49 0 .818.103.982.31.164.208.248.689.248 1.44a21.73 21.73 0 01-.56 4.98c-.375 1.583-.885 2.895-1.531 3.934h-1.74v4.179h.627c.095-1.266.377-2.146.845-2.64.469-.496 1.26-.743 2.374-.743h3.855c1.12 0 1.915.247 2.383.742.468.495.747 1.375.836 2.641h.652v-4.18h-1.814v-9.85c0-.282.057-.488.171-.618zm19.608.867c.602.923.902 2.347.902 4.27 0 1.89-.303 3.306-.91 4.245-.608.94-1.525 1.41-2.751 1.41-1.243 0-2.165-.465-2.767-1.397-.603-.931-.904-2.35-.904-4.258 0-1.907.303-3.327.907-4.258.605-.932 1.526-1.398 2.764-1.398 1.237 0 2.157.462 2.759 1.386zm-6.994-.361c-1.107 1.208-1.66 2.751-1.66 4.631 0 1.88.551 3.42 1.656 4.618 1.103 1.2 2.516 1.8 4.239 1.8 1.722 0 3.131-.597 4.227-1.79 1.094-1.195 1.641-2.737 1.641-4.628 0-1.885-.55-3.43-1.65-4.635-1.1-1.205-2.507-1.808-4.218-1.808-1.717 0-3.129.604-4.235 1.812zm51.161 9.789c-.125.116-.367.174-.723.174h-.887v.796h5.461v-.796h-.77c-.44 0-.722-.057-.844-.17-.122-.113-.184-.33-.184-.65v-9.031c0-.348.081-.576.243-.685.161-.107.565-.16 1.212-.16 1.639 0 2.718.231 3.239.695.522.465.902 1.421 1.142 2.87h.735l-.217-4.337H121.98v.805h1.063c.262 0 .45.062.564.186.114.125.171.333.171.626v9.03c0 .315-.062.53-.188.647zm21.618-9.694c0-.31.056-.522.167-.639.112-.115.301-.173.569-.173a.052.052 0 00.024-.01 1.45 1.45 0 01.127-.007h.894c1.121 0 1.902.196 2.345.589.443.393.664 1.06.664 2.006 0 1-.267 1.7-.802 2.098-.535.398-1.527.597-2.976.597-.285 0-.495-.003-.632-.008a2.757 2.757 0 01-.38-.041v-4.412zm-2.052 9.694c-.126.115-.368.174-.724.174h-.886v.796h5.611v-.796h-1.062c-.351 0-.587-.059-.707-.175-.12-.116-.18-.331-.18-.646v-3.848a21.446 21.446 0 001.714.05c1.683 0 2.949-.288 3.796-.867.847-.577 1.27-1.443 1.27-2.599 0-1.172-.362-2.029-1.086-2.57-.725-.543-1.882-.814-3.47-.814h-5.886v.805h1.061c.263 0 .451.063.565.187.114.124.172.332.172.627v9.03c0 .314-.063.53-.188.645zm19.704-3.89l1.956-4.925 2.032 4.925h-3.988zm5.042 3.948c-.135.065-.378.099-.729.099h-.768v.813h5.116v-.814h-.359c-.357 0-.605-.053-.744-.16-.139-.109-.279-.334-.418-.676l-4.364-10.814h-.67l-4.021 10.225c-.229.569-.465.949-.711 1.14-.245.19-.596.285-1.053.285h-.142v.814h4.423v-.814h-.427c-.429 0-.745-.072-.948-.215-.204-.144-.306-.362-.306-.655 0-.089.024-.229.071-.422a5.21 5.21 0 01.172-.565l.526-1.318h4.607l.786 2.14a3.3 3.3 0 01.121.356.9.9 0 01.038.231c0 .167-.067.284-.2.35zm17.52-10.548h3.086V47.84h-5.126c.647-1.21 1.135-2.668 1.463-4.375.329-1.704.521-3.8.577-6.289zm-2.809 0h.602c.491 0 .818.104.982.311.165.207.247.687.247 1.439 0 1.736-.187 3.396-.56 4.979-.373 1.584-.884 2.895-1.53 3.935h-1.74v4.18h.628c.095-1.267.376-2.147.844-2.642.469-.495 1.261-.742 2.375-.742h3.854c1.121 0 1.915.247 2.383.742.468.495.747 1.375.837 2.641h.651V47.84h-1.814v-9.85c0-.283.057-.489.172-.62.114-.128.29-.194.53-.194h1.112v-.804h-9.573v.804zm-80.186.191c.108-.127.283-.19.522-.19h1.113v-.805h-9.791v.804h.577c.48 0 .802.097.969.29.168.194.252.59.252 1.187 0 .224-.04 1.205-.067 1.66-.106 1.798-.545 5.507-1.19 6.304-.373.454-.947.754-1.779.968l.105.292.391 1.076.02.055c.053-.015.105-.031.155-.048 2.617-.861 2.778-3.763 3.102-7.081.05-.517.134-1.979.14-2.073.06-1.025.104-1.61.135-1.75.071-.332.21-.562.414-.69.203-.127.544-.19 1.023-.19h1.881v9.843c0 .316-.063.53-.188.647-.125.116-.366.174-.722.174h-.904v.796h5.477v-.796h-.904c-.35 0-.587-.058-.71-.175-.123-.116-.184-.33-.184-.646v-9.03c0-.288.055-.495.163-.622z"></path>
    </g>
  </symbol>
</svg>