<svg xmlns="http://www.w3.org/2000/svg" width="33.596" height="20.534" viewBox="0 0 33.596 20.534">
  <g id="Surveillance_Icon" data-name="Surveillance Icon" transform="translate(1.045 1)">
    <path id="Stroke_1" data-name="Stroke 1" d="M15.66,0C5.043,0,0,9.267,0,9.267s5.043,9.267,15.66,9.267,15.66-9.267,15.66-9.267S26.276,0,15.66,0Z" transform="translate(0.094 0)" fill="none" stroke="#fff" stroke-miterlimit="10" stroke-width="2"/>
    <path id="Stroke_3" data-name="Stroke 3" d="M6.9,0a6.878,6.878,0,1,0,6.9,6.878A6.888,6.888,0,0,0,6.9,0Z" transform="translate(8.853 2.116)" fill="none" stroke="#fff" stroke-miterlimit="10" stroke-width="2"/>
    <path id="Stroke_5" data-name="Stroke 5" d="M.368,0A2.725,2.725,0,0,0,0,1.373,2.754,2.754,0,0,0,2.759,4.124" transform="translate(13.091 7.516)" fill="none" stroke="#fff" stroke-linecap="round" stroke-miterlimit="10" stroke-width="2"/>
  </g>
</svg>
